<?xml version="1.0" standalone="no"?>
<!DOCTYPE svg PUBLIC "-//W3C//DTD SVG 1.1//EN" "http://www.w3.org/Graphics/SVG/1.1/DTD/svg11.dtd" >
<svg xmlns="http://www.w3.org/2000/svg" xmlns:xlink="http://www.w3.org/1999/xlink" version="1.1">
<metadata>
Created by FontForge 20170910 at Sat May 27 01:41:47 2017
 By jimmywarting
(c) 2017 Microsoft Corporation. All Rights Reserved.
</metadata>
<defs>
<font id="SitkaBanner-Bold" horiz-adv-x="0" >
  <font-face 
    font-family="Sitka Banner"
    font-weight="700"
    font-stretch="normal"
    units-per-em="2250"
    panose-1="2 0 8 5 2 0 0 2 0 4"
    ascent="1703"
    descent="-547"
    x-height="969"
    cap-height="1378"
    bbox="-1037 -668 2856 2303"
    underline-thickness="50"
    underline-position="-100"
    unicode-range="U+000D-FB04"
  />
<missing-glyph horiz-adv-x="1024" 
d="M128 0v1586h768v-1586h-768zM256 128h512v1330h-512v-1330z" />
    <glyph glyph-name="f_b.liga" unicode="fb" horiz-adv-x="1839" 
d="M1262 -27q-47 0 -96.5 3.5t-102 13t-108 27t-112.5 45.5v1210q0 18 -6 32t-22 25l-8 -36h-29q-26 14 -57.5 29t-64.5 27t-64 20t-56 8q-26 0 -42 -11.5t-23 -40.5q-12 -51 -15 -139t-4 -223h271l-32 -108h-236v-707q0 -23 12.5 -37.5t32.5 -19.5l119 -32v-59h-578v59
l101 32q20 6 32.5 20.5t12.5 36.5v707h-181l27 108h155q0 136 35.5 241t98 177t147.5 109t185 37q18 0 44 -2.5t54 -8t55 -13t45 -17.5l-7 -30l266 55v-682q40 58 83.5 91.5t84 50.5t76.5 21.5t61 4.5q88 0 157.5 -35t118 -98t74 -150.5t25.5 -191.5q0 -115 -36 -215
t-104.5 -174.5t-166.5 -117t-222 -42.5zM1268 75q64 0 110 31t75 83.5t43 120.5t14 142q0 86 -13 156.5t-40.5 120.5t-71.5 77t-105 27q-19 0 -42 -1.5t-46 -8.5t-44.5 -22.5t-36.5 -42.5v-606q10 -13 28 -26.5t39.5 -25t45 -18.5t44.5 -7z" />
    <glyph glyph-name="f_f_b.liga" unicode="ffb" horiz-adv-x="2542" 
d="M41 59l101 32q20 6 32.5 20.5t12.5 36.5v707h-181l27 108h155q0 136 35.5 241t98 177t147.5 109t185 37q18 0 44 -2.5t54 -8t55 -13t45 -17.5l-45 -193h-29q-26 14 -57.5 29t-64.5 27t-64 20t-56 8q-26 0 -42 -11.5t-23 -40.5q-12 -51 -15 -139t-4 -223h271l-32 -108
h-236v-707q0 -23 12.5 -37.5t32.5 -19.5l119 -32v-59h-578v59zM1965 -27q-47 0 -96.5 3.5t-102 13t-108 27t-112.5 45.5v1210q0 18 -6 32t-22 25l-8 -36h-29q-26 14 -57.5 29t-64.5 27t-64 20t-56 8q-26 0 -42 -11.5t-23 -40.5q-12 -51 -15 -139t-4 -223h271l-32 -108h-236
v-707q0 -23 12.5 -37.5t32.5 -19.5l119 -32v-59h-578v59l101 32q20 6 32.5 20.5t12.5 36.5v707h-181l27 108h155q0 136 35.5 241t98 177t147.5 109t185 37q18 0 44 -2.5t54 -8t55 -13t45 -17.5l-7 -30l266 55v-682q40 58 83.5 91.5t84 50.5t76.5 21.5t61 4.5q88 0 157.5 -35
t118 -98t74 -150.5t25.5 -191.5q0 -115 -36 -215t-104.5 -174.5t-166.5 -117t-222 -42.5zM1971 75q64 0 110 31t75 83.5t43 120.5t14 142q0 86 -13 156.5t-40.5 120.5t-71.5 77t-105 27q-19 0 -42 -1.5t-46 -8.5t-44.5 -22.5t-36.5 -42.5v-606q10 -13 28 -26.5t39.5 -25
t45 -18.5t44.5 -7z" />
    <glyph glyph-name="uniFB00" unicode="ff" horiz-adv-x="1406" 
d="M41 59l101 32q20 6 32.5 20.5t12.5 36.5v707h-181l27 108h155q0 136 35.5 241t98 177t147.5 109t185 37q18 0 44 -2.5t54 -8t55 -13t45 -17.5l-45 -193h-29q-26 14 -57.5 29t-64.5 27t-64 20t-56 8q-26 0 -42 -11.5t-23 -40.5q-12 -51 -15 -139t-4 -223h271l-32 -108
h-236v-707q0 -23 12.5 -37.5t32.5 -19.5l119 -32v-59h-578v59zM744 59l101 32q20 6 32.5 20.5t12.5 36.5v707h-181l27 108h155q0 136 35.5 241t98 177t147.5 109t185 37q18 0 44 -2.5t54 -8t55 -13t45 -17.5l-45 -193h-29q-26 14 -57.5 29t-64.5 27t-64 20t-56 8
q-26 0 -42 -11.5t-23 -40.5q-12 -51 -15 -139t-4 -223h271l-32 -108h-236v-707q0 -23 12.5 -37.5t32.5 -19.5l119 -32v-59h-578v59z" />
    <glyph glyph-name="f_h.liga" unicode="fh" horiz-adv-x="1905" 
d="M726 59l98 32q20 7 32.5 20.5t12.5 35.5v1125q0 24 -11.5 41.5t-39.5 28.5l-11 -49h-29q-26 14 -57.5 29t-64.5 27t-64 20t-56 8q-26 0 -42 -11.5t-23 -40.5q-12 -51 -15 -139t-4 -223h271l-32 -108h-236v-707q0 -23 12.5 -37.5t32.5 -19.5l119 -32v-59h-578v59l101 32
q20 6 32.5 20.5t12.5 36.5v707h-181l27 108h155q0 136 35.5 241t98 177t147.5 109t185 37q18 0 44 -2.5t54 -8t55 -13t45 -17.5l-9 -36l294 61v-684q42 56 81 89.5t76.5 51.5t74 23.5t74.5 5.5q64 0 120.5 -19.5t98.5 -61t66 -107t24 -156.5v-501q0 -25 13.5 -39.5
t31.5 -21.5l86 -32v-59h-533v59l91 32q17 6 30 21t13 40v410q0 67 -6 117.5t-23.5 84.5t-50.5 51.5t-87 17.5q-23 0 -47.5 -2.5t-48.5 -10.5t-45.5 -24t-38.5 -44v-604q0 -23 12.5 -36t32.5 -21l76 -32v-59h-532v59z" />
    <glyph glyph-name="f_f_h.liga" unicode="ffh" horiz-adv-x="2608" 
d="M41 59l101 32q20 6 32.5 20.5t12.5 36.5v707h-181l27 108h155q0 136 35.5 241t98 177t147.5 109t185 37q18 0 44 -2.5t54 -8t55 -13t45 -17.5l-45 -193h-29q-26 14 -57.5 29t-64.5 27t-64 20t-56 8q-26 0 -42 -11.5t-23 -40.5q-12 -51 -15 -139t-4 -223h271l-32 -108
h-236v-707q0 -23 12.5 -37.5t32.5 -19.5l119 -32v-59h-578v59zM1429 59l98 32q20 7 32.5 20.5t12.5 35.5v1125q0 24 -11.5 41.5t-39.5 28.5l-11 -49h-29q-26 14 -57.5 29t-64.5 27t-64 20t-56 8q-26 0 -42 -11.5t-23 -40.5q-12 -51 -15 -139t-4 -223h271l-32 -108h-236v-707
q0 -23 12.5 -37.5t32.5 -19.5l119 -32v-59h-578v59l101 32q20 6 32.5 20.5t12.5 36.5v707h-181l27 108h155q0 136 35.5 241t98 177t147.5 109t185 37q18 0 44 -2.5t54 -8t55 -13t45 -17.5l-9 -36l294 61v-684q42 56 81 89.5t76.5 51.5t74 23.5t74.5 5.5q64 0 120.5 -19.5
t98.5 -61t66 -107t24 -156.5v-501q0 -25 13.5 -39.5t31.5 -21.5l86 -32v-59h-533v59l91 32q17 6 30 21t13 40v410q0 67 -6 117.5t-23.5 84.5t-50.5 51.5t-87 17.5q-23 0 -47.5 -2.5t-48.5 -10.5t-45.5 -24t-38.5 -44v-604q0 -23 12.5 -36t32.5 -21l76 -32v-59h-532v59z" />
    <glyph glyph-name="uniFB01" unicode="fi" horiz-adv-x="1320" 
d="M1013 1189q-35 0 -66 12t-53.5 32.5t-35.5 48.5t-13 61q0 31 13 59t35.5 48.5t53.5 32.5t66 12q36 0 67 -12t54 -32.5t36.5 -48.5t13.5 -59q0 -33 -13.5 -61t-36.5 -48.5t-54 -32.5t-67 -12zM41 59l101 32q20 6 32.5 20.5t12.5 36.5v707h-181l27 108h155q0 136 35.5 241
t98 177t147.5 109t185 37q18 0 44 -2.5t54 -8t55 -13t45 -17.5l-45 -193h-29q-26 14 -57.5 29t-64.5 27t-64 20t-56 8q-26 0 -42 -11.5t-23 -40.5q-12 -51 -15 -139t-4 -223h271l-32 -108h-236v-707q0 -23 12.5 -37.5t32.5 -19.5l119 -32v-59h-578v59zM742 59l103 32
q20 6 32.5 20.5t12.5 36.5v610q0 26 -13.5 43.5t-48.5 30.5l-82 30v48l412 79v-841q0 -23 12.5 -36.5t32.5 -20.5l94 -32v-59h-555v59z" />
    <glyph glyph-name="uniFB03" unicode="ffi" horiz-adv-x="2023" 
d="M41 59l101 32q20 6 32.5 20.5t12.5 36.5v707h-181l27 108h155q0 136 35.5 241t98 177t147.5 109t185 37q18 0 44 -2.5t54 -8t55 -13t45 -17.5l-45 -193h-29q-26 14 -57.5 29t-64.5 27t-64 20t-56 8q-26 0 -42 -11.5t-23 -40.5q-12 -51 -15 -139t-4 -223h271l-32 -108
h-236v-707q0 -23 12.5 -37.5t32.5 -19.5l119 -32v-59h-578v59zM744 59l101 32q20 6 32.5 20.5t12.5 36.5v707h-181l27 108h155q0 136 35.5 241t98 177t147.5 109t185 37q18 0 44 -2.5t54 -8t55 -13t45 -17.5l-45 -193h-29q-26 14 -57.5 29t-64.5 27t-64 20t-56 8
q-26 0 -42 -11.5t-23 -40.5q-12 -51 -15 -139t-4 -223h271l-32 -108h-236v-707q0 -23 12.5 -37.5t32.5 -19.5l119 -32v-59h-578v59zM1716 1186q-35 0 -65 12.5t-52 34t-35 51t-13 63.5q0 33 13 62t35 50.5t52 34t65 12.5t65.5 -12.5t53.5 -34t36 -50.5t13 -62
q0 -34 -13 -63.5t-36 -51t-53.5 -34t-65.5 -12.5zM1445 59l103 32q20 6 32.5 20.5t12.5 36.5v610q0 26 -13.5 43.5t-48.5 30.5l-82 30v48l412 79v-841q0 -23 12.5 -36.5t32.5 -20.5l94 -32v-59h-555v59z" />
    <glyph glyph-name="f_j.liga" unicode="fj" horiz-adv-x="1303" 
d="M41 59l101 32q20 6 32.5 20.5t12.5 36.5v707h-181l27 108h155q0 136 35.5 241t98 177t147.5 109t185 37q18 0 44 -2.5t54 -8t55 -13t45 -17.5l-45 -193h-29q-26 14 -57.5 29t-64.5 27t-64 20t-56 8q-26 0 -42 -11.5t-23 -40.5q-12 -51 -15 -139t-4 -223h271l-32 -108
h-236v-707q0 -23 12.5 -37.5t32.5 -19.5l119 -32v-59h-578v59zM1008 1186q-35 0 -65 12.5t-52 34t-35 51t-13 63.5q0 33 13 62t35 50.5t52 34t65 12.5t65.5 -12.5t53.5 -34t36 -50.5t13 -62q0 -34 -13 -63.5t-36 -51t-53.5 -34t-65.5 -12.5zM694 -453q-18 0 -44 2.5t-54 8
t-55 13t-45 17.5l45 193h29q25 -14 57 -29t65 -27t64.5 -20t55.5 -8q26 0 42 11.5t23 40.5q6 25 9.5 61t6 81.5t3 100.5t0.5 119v647q0 29 -14 46t-48 28l-96 30v48l426 79v-884q0 -131 -36 -234.5t-99 -175.5t-149 -110t-186 -38z" />
    <glyph glyph-name="f_f_j.liga" unicode="ffj" horiz-adv-x="2006" 
d="M41 59l101 32q20 6 32.5 20.5t12.5 36.5v707h-181l27 108h155q0 136 35.5 241t98 177t147.5 109t185 37q18 0 44 -2.5t54 -8t55 -13t45 -17.5l-45 -193h-29q-26 14 -57.5 29t-64.5 27t-64 20t-56 8q-26 0 -42 -11.5t-23 -40.5q-12 -51 -15 -139t-4 -223h271l-32 -108
h-236v-707q0 -23 12.5 -37.5t32.5 -19.5l119 -32v-59h-578v59zM744 59l101 32q20 6 32.5 20.5t12.5 36.5v707h-181l27 108h155q0 136 35.5 241t98 177t147.5 109t185 37q18 0 44 -2.5t54 -8t55 -13t45 -17.5l-45 -193h-29q-26 14 -57.5 29t-64.5 27t-64 20t-56 8
q-26 0 -42 -11.5t-23 -40.5q-12 -51 -15 -139t-4 -223h271l-32 -108h-236v-707q0 -23 12.5 -37.5t32.5 -19.5l119 -32v-59h-578v59zM1711 1186q-35 0 -65 12.5t-52 34t-35 51t-13 63.5q0 33 13 62t35 50.5t52 34t65 12.5t65.5 -12.5t53.5 -34t36 -50.5t13 -62
q0 -34 -13 -63.5t-36 -51t-53.5 -34t-65.5 -12.5zM1397 -453q-18 0 -44 2.5t-54 8t-55 13t-45 17.5l45 193h29q25 -14 57 -29t65 -27t64.5 -20t55.5 -8q26 0 42 11.5t23 40.5q6 25 9.5 61t6 81.5t3 100.5t0.5 119v647q0 29 -14 46t-48 28l-96 30v48l426 79v-884
q0 -131 -36 -234.5t-99 -175.5t-149 -110t-186 -38z" />
    <glyph glyph-name="f_k.liga" unicode="fk" horiz-adv-x="1823" 
d="M726 59l98 32q45 16 45 57v1132q0 24 -11.5 36t-39.5 23l-11 -46h-29q-26 14 -57.5 29t-64.5 27t-64 20t-56 8q-26 0 -42 -11.5t-23 -40.5q-12 -51 -15 -139t-4 -223h271l-32 -108h-236v-707q0 -23 12.5 -37.5t32.5 -19.5l119 -32v-59h-578v59l101 32q20 6 32.5 20.5
t12.5 36.5v707h-181l27 108h155q0 136 35.5 241t98 177t147.5 109t185 37q18 0 44 -2.5t54 -8t55 -13t45 -17.5l-9 -36l294 61v-1024l362 379l-116 44v59h410v-59l-108 -34q-21 -7 -42.5 -22.5t-35.5 -28.5l-203 -190l323 -503q12 -18 31 -30.5t44 -20.5l68 -22v-59h-498v59
l84 32l-231 382l-88 -64v-261q0 -23 12 -35.5t33 -21.5l76 -32v-59h-532v59z" />
    <glyph glyph-name="f_f_k.liga" unicode="ffk" horiz-adv-x="2526" 
d="M41 59l101 32q20 6 32.5 20.5t12.5 36.5v707h-181l27 108h155q0 136 35.5 241t98 177t147.5 109t185 37q18 0 44 -2.5t54 -8t55 -13t45 -17.5l-45 -193h-29q-26 14 -57.5 29t-64.5 27t-64 20t-56 8q-26 0 -42 -11.5t-23 -40.5q-12 -51 -15 -139t-4 -223h271l-32 -108
h-236v-707q0 -23 12.5 -37.5t32.5 -19.5l119 -32v-59h-578v59zM1429 59l98 32q45 16 45 57v1132q0 24 -11.5 36t-39.5 23l-11 -46h-29q-26 14 -57.5 29t-64.5 27t-64 20t-56 8q-26 0 -42 -11.5t-23 -40.5q-12 -51 -15 -139t-4 -223h271l-32 -108h-236v-707q0 -23 12.5 -37.5
t32.5 -19.5l119 -32v-59h-578v59l101 32q20 6 32.5 20.5t12.5 36.5v707h-181l27 108h155q0 136 35.5 241t98 177t147.5 109t185 37q18 0 44 -2.5t54 -8t55 -13t45 -17.5l-9 -36l294 61v-1024l362 379l-116 44v59h410v-59l-108 -34q-21 -7 -42.5 -22.5t-35.5 -28.5l-203 -190
l323 -503q12 -18 31 -30.5t44 -20.5l68 -22v-59h-498v59l84 32l-231 382l-88 -64v-261q0 -23 12 -35.5t33 -21.5l76 -32v-59h-532v59z" />
    <glyph glyph-name="uniFB02" unicode="fl" horiz-adv-x="1321" 
d="M746 59l98 32q45 16 45 57v1124q0 26 -13 44.5t-48 29.5l-8 2l-13 -55h-29q-26 14 -57.5 29t-64.5 27t-64 20t-56 8q-26 0 -42 -11.5t-23 -40.5q-12 -51 -15 -139t-4 -223h271l-32 -108h-236v-707q0 -23 12.5 -37.5t32.5 -19.5l119 -32v-59h-578v59l101 32
q20 6 32.5 20.5t12.5 36.5v707h-181l27 108h155q0 136 35.5 241t98 177t147.5 109t185 37q18 0 44 -2.5t54 -8t55 -13t45 -17.5l-10 -40l315 65v-1363q0 -23 12.5 -36t32.5 -21l86 -32v-59h-542v59z" />
    <glyph glyph-name="uniFB04" unicode="ffl" horiz-adv-x="2024" 
d="M41 59l101 32q20 6 32.5 20.5t12.5 36.5v707h-181l27 108h155q0 136 35.5 241t98 177t147.5 109t185 37q18 0 44 -2.5t54 -8t55 -13t45 -17.5l-45 -193h-29q-26 14 -57.5 29t-64.5 27t-64 20t-56 8q-26 0 -42 -11.5t-23 -40.5q-12 -51 -15 -139t-4 -223h271l-32 -108
h-236v-707q0 -23 12.5 -37.5t32.5 -19.5l119 -32v-59h-578v59zM1449 59l98 32q45 16 45 57v1124q0 26 -13 44.5t-48 29.5l-8 2l-13 -55h-29q-26 14 -57.5 29t-64.5 27t-64 20t-56 8q-26 0 -42 -11.5t-23 -40.5q-12 -51 -15 -139t-4 -223h271l-32 -108h-236v-707
q0 -23 12.5 -37.5t32.5 -19.5l119 -32v-59h-578v59l101 32q20 6 32.5 20.5t12.5 36.5v707h-181l27 108h155q0 136 35.5 241t98 177t147.5 109t185 37q18 0 44 -2.5t54 -8t55 -13t45 -17.5l-10 -40l315 65v-1363q0 -23 12.5 -36t32.5 -21l86 -32v-59h-542v59z" />
    <glyph glyph-name=".notdef" horiz-adv-x="1024" 
d="M128 0v1586h768v-1586h-768zM256 128h512v1330h-512v-1330z" />
    <glyph glyph-name="glyph1" 
 />
    <glyph glyph-name="glyph1" 
 />
    <glyph glyph-name="uni000D" unicode="&#xd;" 
 />
    <glyph glyph-name="space" unicode=" " horiz-adv-x="512" 
 />
    <glyph glyph-name="space" unicode="&#xa0;" horiz-adv-x="512" 
 />
    <glyph glyph-name="A" unicode="A" horiz-adv-x="1287" 
d="M-73 61l92 35q43 17 59 59l397 1014l121 230h121l490 -1244q8 -20 24.5 -36t34.5 -23l92 -35v-61h-602v61l174 43l-150 381h-443l-145 -377l170 -47v-61h-435v61zM737 595l-131 332l-51 135l-174 -467h356z" />
    <glyph glyph-name="B" unicode="B" horiz-adv-x="1290" 
d="M37 61l127 37q22 6 34.5 21.5t12.5 37.5v1064q0 23 -12.5 38.5t-34.5 21.5l-127 36v61h587q159 0 260 -25.5t159.5 -68t80.5 -97.5t22 -114q0 -65 -22.5 -120t-63.5 -98.5t-100 -75t-132 -50.5v0q92 -6 167 -31t128.5 -67.5t83 -101.5t29.5 -132q0 -79 -24 -139
t-65.5 -104t-98 -73.5t-121.5 -47.5t-136 -25.5t-141 -7.5h-613v61zM566 760q78 0 131 16t85.5 46.5t47 74t14.5 99.5q0 145 -63.5 209.5t-191.5 64.5h-94v-510h71zM666 109q130 0 195 60t65 197q0 80 -18 135.5t-55.5 90t-95.5 50t-137 15.5h-125v-548h171z" />
    <glyph glyph-name="C" unicode="C" horiz-adv-x="1220" 
d="M703 -29q-151 0 -273 49.5t-208 142t-132.5 225t-46.5 298.5q0 107 23 202t65.5 175.5t102 144t133 108t159 68t179.5 23.5q49 0 111 -7t124.5 -18t119 -25t94.5 -28v-337h-67l-74 175q-8 17 -18 26t-23 17q-62 35 -128 54.5t-139 19.5q-80 0 -145.5 -37t-112 -109
t-72 -177.5t-25.5 -242.5q0 -142 28.5 -252t85.5 -185.5t141.5 -114.5t195.5 -39q73 0 128.5 16.5t99 41t77 54t62.5 55.5h43v-109q-40 -35 -96 -72.5t-123 -69t-140.5 -52t-148.5 -20.5z" />
    <glyph glyph-name="D" unicode="D" horiz-adv-x="1426" 
d="M37 61l127 37q22 6 34.5 21.5t12.5 37.5v1064q0 23 -12.5 38.5t-34.5 21.5l-127 36v61h643q69 0 148.5 -13t157.5 -43.5t150 -81.5t126.5 -128t87.5 -182t33 -243q0 -176 -55.5 -305.5t-151.5 -214t-225 -126t-275 -41.5h-639v61zM683 109q100 0 173.5 36.5t122.5 106.5
t73 171.5t24 231.5q0 142 -32 256t-90 193.5t-140 122.5t-181 43h-138v-1161h188z" />
    <glyph glyph-name="E" unicode="E" horiz-adv-x="1270" 
d="M37 61l127 37q20 6 33.5 21.5t13.5 37.5v1064q0 23 -13.5 38.5t-33.5 21.5l-127 36v61h1106v-358h-70l-81 213q-6 15 -14.5 25t-26.5 10h-456v-495h290q20 0 29 9t14 23l67 164h63v-503h-63l-67 162q-6 15 -14.5 25t-28.5 10h-290v-552h542q18 0 27 9.5t14 25.5l77 241
h70v-387h-1188v61z" />
    <glyph glyph-name="F" unicode="F" horiz-adv-x="1159" 
d="M37 61l127 37q19 5 33 21t14 38v1064q0 23 -13.5 39t-33.5 21l-127 36v61h1108v-356h-68l-81 211q-5 14 -14 24.5t-27 10.5h-460v-510h300q20 0 29 9.5t14 23.5l67 170h61v-515h-61l-67 168q-6 16 -14.5 25.5t-28.5 9.5h-300v-492q0 -23 13.5 -38.5t34.5 -20.5l143 -37
v-61h-649v61z" />
    <glyph glyph-name="G" unicode="G" horiz-adv-x="1431" 
d="M713 -31q-137 0 -259 48.5t-213.5 141t-144.5 225.5t-53 302q0 160 53 293t146 228t220.5 147.5t277.5 52.5q88 0 161.5 -6.5t134.5 -17.5t111.5 -24.5t92.5 -27.5v-339h-69l-71 179q-6 15 -17.5 24t-25.5 17q-32 18 -73.5 31.5t-86 22.5t-90 13.5t-85.5 4.5
q-71 0 -137.5 -35.5t-119 -107t-84 -178t-31.5 -248.5q0 -135 24.5 -250t72 -198t118 -130t162.5 -47q40 0 77.5 7.5t69 18t56 22.5t38.5 21v302q0 23 -12 37.5t-35 21.5l-139 37v61h642v-61l-127 -37q-22 -6 -34.5 -21.5t-12.5 -37.5v-154v-139t2 -96q-51 -21 -114.5 -39.5
t-134 -33t-144.5 -22.5t-146 -8z" />
    <glyph glyph-name="H" unicode="H" horiz-adv-x="1557" 
d="M37 61l127 37q20 6 33.5 21.5t13.5 37.5v1064q0 23 -13.5 38.5t-33.5 21.5l-127 36v61h632v-61l-126 -36q-20 -6 -34 -22t-14 -38v-448h566v448q0 23 -13.5 38.5t-33.5 21.5l-127 36v61h632v-61l-127 -36q-20 -5 -33.5 -21.5t-13.5 -38.5v-1064q0 -23 13.5 -38t33.5 -21
l127 -37v-61h-632v61l127 37q20 6 33.5 21.5t13.5 37.5v504h-566v-504q0 -23 14 -38t34 -21l126 -37v-61h-632v61z" />
    <glyph glyph-name="I" unicode="I" horiz-adv-x="707" 
d="M37 61l127 37q22 6 34.5 21.5t12.5 37.5v1064q0 23 -14 39t-33 21l-127 36v61h632v-61l-126 -36q-19 -5 -33.5 -21.5t-14.5 -38.5v-1064q0 -23 13.5 -38t34.5 -21l126 -37v-61h-632v61z" />
    <glyph glyph-name="J" unicode="J" horiz-adv-x="698" 
d="M7 -399q-18 0 -44.5 3t-55.5 8.5t-56.5 13.5t-48.5 19l47 223h35q27 -17 60 -35.5t67.5 -33.5t68.5 -25t63 -10q23 0 38 11t21 37q6 25 9.5 60.5t6 81.5t3 102t0.5 122v1043q0 23 -13.5 39t-33.5 21l-139 36v61h645v-61l-127 -36q-20 -6 -33.5 -22t-13.5 -38v-1049
q0 -135 -40 -241t-108.5 -179.5t-159 -112t-191.5 -38.5z" />
    <glyph glyph-name="K" unicode="K" horiz-adv-x="1408" 
d="M37 61l127 37q21 6 34 21.5t13 37.5v1064q0 23 -13.5 38.5t-33.5 21.5l-127 36v61h632v-61l-126 -36q-19 -5 -33.5 -21.5t-14.5 -38.5v-544l535 584l-130 56v61h469v-61l-137 -56q-26 -11 -49 -27.5t-48 -42.5l-368 -375l475 -640q10 -14 21.5 -27.5t23.5 -24.5t25 -19.5
t27 -12.5l104 -31v-61h-626v61l149 39l-390 532l-81 -87v-388q0 -23 14.5 -38.5t33.5 -20.5l124 -37v-61h-630v61z" />
    <glyph glyph-name="L" unicode="L" horiz-adv-x="1169" 
d="M37 61l127 37q22 6 34.5 21.5t12.5 37.5v1064q0 23 -13.5 39t-33.5 21l-127 36v61h639v-61l-133 -36q-21 -6 -34.5 -22t-13.5 -38v-1110h480q10 0 17 5.5t12.5 13.5t8.5 17t5 17l86 264h67v-428h-1134v61z" />
    <glyph glyph-name="M" unicode="M" horiz-adv-x="1800" 
d="M37 61l127 43q20 7 33.5 22.5t13.5 36.5v1058q0 23 -14 39t-33 21l-127 36v61h512l281 -779l70 -204v0l355 983h508v-61l-127 -36q-21 -6 -34 -22t-13 -38v-1064q0 -23 13 -38t34 -21l127 -37v-61h-633v61l127 37q21 6 34 21.5t13 37.5v1018v0l-61 -184l-276 -762
l-104 -229h-105l-358 990l-63 188v0v-1015q0 -23 13 -37t34 -22l127 -43v-61h-474v61z" />
    <glyph glyph-name="N" unicode="N" horiz-adv-x="1487" 
d="M453 931l-106 154v0v-922q0 -22 12 -36.5t35 -22.5l127 -43v-61h-484v61l127 43q20 7 33.5 22.5t13.5 36.5v1054q0 23 -14 38.5t-33 20.5l-137 41v61h438l601 -864l94 -137v0v838q0 23 -12 37t-35 22l-127 43v61h485v-61l-127 -43q-21 -8 -34.5 -22.5t-13.5 -36.5v-986
l-30 -239h-158z" />
    <glyph glyph-name="O" unicode="O" horiz-adv-x="1429" 
d="M713 -31q-161 0 -286 53.5t-210.5 149t-129.5 228t-44 290.5q0 150 45.5 281t132 228.5t211.5 153.5t283 56q172 0 298 -57.5t208.5 -155.5t123 -228.5t40.5 -277.5q0 -87 -17 -174t-52 -167t-89 -149.5t-129 -120.5t-171 -80.5t-214 -29.5zM729 76q88 0 154 45
t109.5 123.5t65 185t21.5 229.5q0 142 -22.5 260t-69.5 203t-118.5 132.5t-170.5 47.5q-94 0 -160 -48t-108 -128.5t-61 -185t-19 -217.5q0 -139 22 -257.5t68 -205t118 -135.5t171 -49z" />
    <glyph glyph-name="P" unicode="P" horiz-adv-x="1188" 
d="M37 61l127 37q22 6 34.5 21.5t12.5 37.5v1064q0 23 -12.5 38.5t-34.5 21.5l-127 36v61h593q108 0 204 -21t168 -66t114 -115.5t42 -169.5q0 -105 -35.5 -189t-97.5 -143t-145.5 -90.5t-180.5 -31.5q-22 0 -49 6t-54.5 15.5t-53.5 22t-47 25.5v-464q0 -23 14 -38.5
t34 -20.5l143 -37v-61h-649v61zM636 670q47 0 81.5 16t58.5 42t39.5 58t24.5 64t12 61t3 48q0 61 -12.5 117.5t-42.5 99.5t-80.5 68.5t-126.5 25.5h-98v-584q12 -4 29 -7t36 -5t38.5 -3t37.5 -1z" />
    <glyph glyph-name="Q" unicode="Q" horiz-adv-x="1435" 
d="M1062 -410q-45 0 -77 7t-57 22t-46 38.5t-45 57.5q-24 33 -55 77t-60 84q-33 47 -67 95q-148 9 -262 66t-192 151.5t-118 222.5t-40 279q0 150 45.5 281t132 228.5t211.5 153.5t283 56q172 0 298 -57.5t208.5 -155.5t123 -228.5t40.5 -277.5q0 -105 -25 -209t-77 -195
t-133 -162.5t-193 -110.5l187 -245q20 -27 48.5 -50.5t54.5 -31.5l128 -35v-61h-313zM729 76q88 0 154 45t109.5 123.5t65 185t21.5 229.5q0 142 -22.5 260t-69.5 203t-118.5 132.5t-170.5 47.5q-94 0 -160 -48t-108 -128.5t-61 -185t-19 -217.5q0 -139 22 -257.5t68 -205
t118 -135.5t171 -49z" />
    <glyph glyph-name="R" unicode="R" horiz-adv-x="1354" 
d="M37 61l127 37q20 6 33.5 21.5t13.5 37.5v1064q0 23 -14 39t-33 21l-127 36v61h602q108 0 190 -14t141.5 -38.5t98.5 -57t62 -70.5t32.5 -79.5t9.5 -82.5q0 -85 -30 -147t-74.5 -105.5t-96.5 -70.5t-95 -41l334 -494q8 -12 20.5 -25t27 -24.5t29.5 -20.5t28 -12l129 -35
v-61h-320q-45 0 -75 6.5t-52.5 21t-41 38.5t-40.5 59l-289 455l-132 36v-459q0 -23 11.5 -38.5t31.5 -20.5l148 -37v-61h-649v61zM628 703q61 0 106 24.5t75 65t44.5 92.5t14.5 106q0 146 -67 212.5t-189 66.5h-117v-557q9 -2 26.5 -3.5t37.5 -3t39 -2.5t30 -1z" />
    <glyph glyph-name="S" unicode="S" horiz-adv-x="1159" 
d="M537 -31q-60 0 -119 7t-115.5 19t-111.5 27.5t-108 32.5l-24 390h67l89 -199q3 -6 8.5 -13.5t12 -15t13 -13.5t11.5 -9q36 -24 80.5 -42.5t89.5 -31.5t85.5 -20t69.5 -7q57 0 102 18.5t76.5 50t48.5 73.5t17 89q0 39 -10.5 70.5t-32.5 57.5t-54.5 47t-77.5 39
q-38 15 -75.5 26t-75 21.5t-74.5 22t-74 26.5q-61 25 -108 63t-78.5 85.5t-48 102.5t-16.5 115q0 57 17.5 109.5t49.5 97.5t76.5 82.5t99.5 63.5t118.5 40.5t132.5 14.5q61 0 120.5 -5t114.5 -14t104.5 -21t91.5 -26v-360h-67l-79 185q-6 14 -19 26.5t-24 20.5
q-24 18 -58.5 31t-71 21.5t-71 12.5t-57.5 4q-50 0 -90.5 -16t-68.5 -43t-43 -61.5t-15 -70.5q0 -39 9 -73t30 -62.5t54.5 -51t83.5 -40.5q36 -13 71.5 -23.5t71.5 -21t73.5 -23t78.5 -29.5q49 -20 96.5 -52.5t84.5 -78t60 -105t23 -132.5q0 -79 -32 -156.5t-100.5 -138.5
t-175.5 -99t-256 -38z" />
    <glyph glyph-name="T" unicode="T" horiz-adv-x="1307" 
d="M316 60l147 37q22 5 34.5 21t12.5 38v1112h-293q-20 0 -29 -10t-14 -25l-82 -221h-67v366h1257v-366h-67l-82 221q-5 15 -13.5 25t-27.5 10h-298v-1112q0 -23 14.5 -38.5t33.5 -20.5l147 -37v-60h-673v60z" />
    <glyph glyph-name="U" unicode="U" horiz-adv-x="1448" 
d="M728 -31q-134 0 -236 33.5t-170.5 90t-103.5 129.5t-35 151v848q0 23 -14 39t-34 21l-127 36v61h633v-61l-127 -36q-20 -6 -33.5 -22t-13.5 -38v-756q0 -34 5 -73t18 -78t36 -74.5t59 -62.5t87 -43.5t120 -16.5t122 16.5t91.5 44t64.5 63.5t41.5 74.5t22 77t6.5 71.5v751
q0 23 -14.5 38t-32.5 21l-127 43v61h474v-61l-127 -43q-19 -6 -33 -21.5t-14 -37.5v-801q0 -81 -25 -145.5t-67 -114t-97 -84.5t-115 -57.5t-120.5 -33t-113.5 -10.5z" />
    <glyph glyph-name="V" unicode="V" horiz-adv-x="1320" 
d="M88 1223q-8 19 -22.5 35.5t-36.5 24.5l-98 34v61h611v-61l-172 -43l326 -819l54 -143v0l357 948l-166 57v61h442v-61l-96 -44q-20 -9 -35.5 -25t-23.5 -35l-396 -1006l-114 -227h-136z" />
    <glyph glyph-name="W" unicode="W" horiz-adv-x="1940" 
d="M90 1225q-6 20 -22 35t-37 23l-86 34v61h597v-61l-172 -43l258 -836l23 -76v0l239 769l104 247h129l286 -936l27 -89v0l290 907l-165 57v61h434v-61l-91 -44q-17 -8 -35 -25t-25 -37l-324 -978l-103 -247h-153l-254 833l-39 133v0l-226 -719l-104 -247h-170z" />
    <glyph glyph-name="X" unicode="X" horiz-adv-x="1314" 
d="M-17 61l92 43q26 12 47 31t35 38l371 479l-371 571q-11 17 -30 35.5t-36 24.5l-96 34v61h622v-61l-171 -43l209 -327l70 -116v0l311 429l-158 57v61h439v-61l-89 -42q-23 -11 -45.5 -31t-36.5 -39l-357 -466l380 -584q11 -17 29 -34.5t36 -24.5l96 -35v-61h-622v61
l172 43l-218 341l-69 116v0l-324 -443l153 -57v-61h-439v61z" />
    <glyph glyph-name="Y" unicode="Y" horiz-adv-x="1272" 
d="M301 61l147 37q20 5 33.5 21t13.5 38v408l-372 658q-11 19 -25 35.5t-36 24.5l-98 34v61h609v-61l-170 -43l254 -451l69 -122v0l327 559l-159 57v61h427v-61l-97 -44q-18 -8 -34.5 -24.5t-27.5 -35.5l-383 -639v-417q0 -23 13 -38.5t34 -20.5l148 -37v-61h-673v61z" />
    <glyph glyph-name="Z" unicode="Z" horiz-adv-x="1198" 
d="M-2 82l747 1091l70 95v0h-549q-20 0 -29 -10t-14 -25l-82 -221h-67v366h1085v-76l-751 -1097l-69 -94v0h640q19 0 27.5 9.5t13.5 25.5l82 241h69v-387h-1173v82z" />
    <glyph glyph-name="Agrave" unicode="&#xc0;" horiz-adv-x="1287" 
d="M-73 61l92 35q43 17 59 59l397 1014l121 230h121l490 -1244q8 -20 24.5 -36t34.5 -23l92 -35v-61h-602v61l174 43l-150 381h-443l-145 -377l170 -47v-61h-435v61zM737 595l-131 332l-51 135l-174 -467h356zM786 1486q-74 46 -125.5 77t-88.5 53.5t-64 39t-51 33.5
q-44 31 -63 58t-19 65q0 17 7.5 32.5t21.5 27.5t33.5 19t43.5 7q22 0 41.5 -3t38.5 -12t37.5 -25.5t38.5 -43.5q18 -24 35 -48t39.5 -56.5t53 -77t74.5 -108.5z" />
    <glyph glyph-name="Aacute" unicode="&#xc1;" horiz-adv-x="1287" 
d="M-73 61l92 35q43 17 59 59l397 1014l121 230h121l490 -1244q8 -20 24.5 -36t34.5 -23l92 -35v-61h-602v61l174 43l-150 381h-443l-145 -377l170 -47v-61h-435v61zM737 595l-131 332l-51 135l-174 -467h356zM445 1524q44 64 74.5 108.5t53 77t39.5 56.5t35 48
q20 27 38.5 43.5t37 25.5t38 12t42.5 3q24 0 43.5 -7t33.5 -19t21.5 -27.5t7.5 -32.5q0 -19 -5 -35t-15 -30.5t-25.5 -28.5t-36.5 -29q-24 -17 -51 -33.5t-64 -39t-88.5 -53.5t-125.5 -77z" />
    <glyph glyph-name="Acircumflex" unicode="&#xc2;" horiz-adv-x="1287" 
d="M-73 61l92 35q43 17 59 59l397 1014l121 230h121l490 -1244q8 -20 24.5 -36t34.5 -23l92 -35v-61h-602v61l174 43l-150 381h-443l-145 -377l170 -47v-61h-435v61zM737 595l-131 332l-51 135l-174 -467h356zM306 1518l194 289q26 40 61 60t80 20t80.5 -20t61.5 -60
l195 -288l-52 -35l-284 232l-285 -234z" />
    <glyph glyph-name="uni1EA4" unicode="&#x1ea4;" horiz-adv-x="1287" 
d="M-73 61l92 35q43 17 59 59l397 1014l121 230h121l490 -1244q8 -20 24.5 -36t34.5 -23l92 -35v-61h-602v61l174 43l-150 381h-443l-145 -377l170 -47v-61h-435v61zM737 595l-131 332l-51 135l-174 -467h356zM893 1770l88 231q11 29 24 48.5t29.5 31t36.5 16.5t45 5
q21 0 39 -6t31.5 -18t21.5 -29.5t8 -40.5t-14.5 -49t-50.5 -55l-206 -168zM306 1519l194 289q26 40 61 60t80 20t80.5 -20t61.5 -60l195 -288l-52 -35l-284 232l-285 -234z" />
    <glyph glyph-name="uni1EA6" unicode="&#x1ea6;" horiz-adv-x="1287" 
d="M-73 61l92 35q43 17 59 59l397 1014l121 230h121l490 -1244q8 -20 24.5 -36t34.5 -23l92 -35v-61h-602v61l174 43l-150 381h-443l-145 -377l170 -47v-61h-435v61zM737 595l-131 332l-51 135l-174 -467h356zM338 1736l-206 168q-36 29 -50.5 55t-14.5 49t8 40.5t21.5 29.5
t31.5 18t39 6q25 0 45 -5t36.5 -16.5t29.5 -31t24 -48.5l88 -231zM306 1519l194 289q26 40 61 60t80 20t80.5 -20t61.5 -60l195 -288l-52 -35l-284 232l-285 -234z" />
    <glyph glyph-name="uni1EA8" unicode="&#x1ea8;" horiz-adv-x="1287" 
d="M-73 61l92 35q43 17 59 59l397 1014l121 230h121l490 -1244q8 -20 24.5 -36t34.5 -23l92 -35v-61h-602v61l174 43l-150 381h-443l-145 -377l170 -47v-61h-435v61zM737 595l-131 332l-51 135l-174 -467h356zM306 1519l194 289q26 40 61 60t80 20t80.5 -20t61.5 -60
l195 -288l-52 -35l-284 232l-285 -234zM998 2036q36 0 67.5 -6.5t55 -20.5t37 -35t13.5 -49q0 -35 -17 -57.5t-37.5 -42.5t-37.5 -42.5t-17 -57.5v-22h-122v27q0 26 6.5 43t16.5 29t21 21.5t21 20t16.5 24t6.5 34.5t-13.5 35.5t-40.5 14.5q-29 0 -46.5 -15t-31.5 -31h-43v96
q8 4 21.5 10t32 11t41.5 9t50 4z" />
    <glyph glyph-name="uni1EAA" unicode="&#x1eaa;" horiz-adv-x="1287" 
d="M-73 61l92 35q43 17 59 59l397 1014l121 230h121l490 -1244q8 -20 24.5 -36t34.5 -23l92 -35v-61h-602v61l174 43l-150 381h-443l-145 -377l170 -47v-61h-435v61zM737 595l-131 332l-51 135l-174 -467h356zM306 1519l194 277q26 38 61 57.5t80 19.5t80.5 -19.5
t61.5 -57.5l195 -276l-52 -35l-284 217l-285 -219zM280 1888q10 60 32.5 110.5t54.5 87.5t73 57.5t88 20.5q32 0 70 -11.5t84 -36.5q48 -26 79.5 -36t48.5 -10q55 0 81 28.5t39 79.5h74q-9 -59 -30.5 -109.5t-53 -87.5t-72 -57.5t-87.5 -20.5q-17 0 -32 2t-32.5 7.5
t-38.5 15t-49 25.5q-45 25 -78.5 36t-51.5 11q-56 0 -84 -30t-41 -82h-74z" />
    <glyph glyph-name="Atilde" unicode="&#xc3;" horiz-adv-x="1287" 
d="M-73 61l92 35q43 17 59 59l397 1014l121 230h121l490 -1244q8 -20 24.5 -36t34.5 -23l92 -35v-61h-602v61l174 43l-150 381h-443l-145 -377l170 -47v-61h-435v61zM737 595l-131 332l-51 135l-174 -467h356zM283 1545q10 60 32.5 110.5t54.5 87.5t73 57.5t88 20.5
q32 0 70 -11.5t84 -36.5q48 -26 79.5 -36t48.5 -10q55 0 81 28.5t39 79.5h74q-9 -59 -30.5 -109.5t-53 -87.5t-72 -57.5t-87.5 -20.5q-17 0 -32 2t-32.5 7.5t-38.5 15t-49 25.5q-45 25 -78.5 36t-51.5 11q-56 0 -84 -30t-41 -82h-74z" />
    <glyph glyph-name="Adieresis" unicode="&#xc4;" horiz-adv-x="1287" 
d="M-73 61l92 35q43 17 59 59l397 1014l121 230h121l490 -1244q8 -20 24.5 -36t34.5 -23l92 -35v-61h-602v61l174 43l-150 381h-443l-145 -377l170 -47v-61h-435v61zM737 595l-131 332l-51 135l-174 -467h356zM864 1534q-28 0 -52 10.5t-42 28.5t-28.5 42.5t-10.5 52.5
t10.5 52.5t28.5 42.5t42 28.5t52 10.5t53 -10.5t44 -28.5t29.5 -42.5t10.5 -52.5t-10.5 -52.5t-29.5 -42.5t-44 -28.5t-53 -10.5zM416 1534q-28 0 -52 10.5t-42 28.5t-28.5 42.5t-10.5 52.5t10.5 52.5t28.5 42.5t42 28.5t52 10.5t53 -10.5t44 -28.5t29.5 -42.5t10.5 -52.5
t-10.5 -52.5t-29.5 -42.5t-44 -28.5t-53 -10.5z" />
    <glyph glyph-name="Amacron" unicode="&#x100;" horiz-adv-x="1287" 
d="M-73 61l92 35q43 17 59 59l397 1014l121 230h121l490 -1244q8 -20 24.5 -36t34.5 -23l92 -35v-61h-602v61l174 43l-150 381h-443l-145 -377l170 -47v-61h-435v61zM737 595l-131 332l-51 135l-174 -467h356zM334 1728h644v-148h-644v148z" />
    <glyph glyph-name="Abreve" unicode="&#x102;" horiz-adv-x="1287" 
d="M-73 61l92 35q43 17 59 59l397 1014l121 230h121l490 -1244q8 -20 24.5 -36t34.5 -23l92 -35v-61h-602v61l174 43l-150 381h-443l-145 -377l170 -47v-61h-435v61zM737 595l-131 332l-51 135l-174 -467h356zM655 1512q-55 0 -106.5 16.5t-94.5 56t-73.5 104.5t-43.5 163
l86 17q16 -55 34 -91.5t44.5 -59t63.5 -32t90 -9.5q51 0 87.5 9t63.5 31t46 59t36 93l86 -17q-15 -98 -45 -163.5t-72 -104.5t-93.5 -55.5t-108.5 -16.5z" />
    <glyph glyph-name="uni1EAE" unicode="&#x1eae;" horiz-adv-x="1287" 
d="M-73 61l92 35q43 17 59 59l397 1014l121 230h121l490 -1244q8 -20 24.5 -36t34.5 -23l92 -35v-61h-602v61l174 43l-150 381h-443l-145 -377l170 -47v-61h-435v61zM737 595l-131 332l-51 135l-174 -467h356zM584 1734l65 250q7 29 18 47.5t25 29t30.5 14.5t34.5 4
q19 0 36 -5.5t29.5 -16.5t20 -27.5t7.5 -37.5q0 -15 -4 -29t-11.5 -27.5t-19 -27.5t-25.5 -29l-155 -170zM654 1477q-55 0 -106.5 16.5t-94.5 56t-73.5 104.5t-43.5 163l86 17q16 -55 34 -91.5t44.5 -59t63.5 -32t90 -9.5q51 0 87.5 9t63.5 31t46 59t36 93l86 -17
q-15 -98 -45 -163.5t-72 -104.5t-93.5 -55.5t-108.5 -16.5z" />
    <glyph glyph-name="uni1EB0" unicode="&#x1eb0;" horiz-adv-x="1287" 
d="M-73 61l92 35q43 17 59 59l397 1014l121 230h121l490 -1244q8 -20 24.5 -36t34.5 -23l92 -35v-61h-602v61l174 43l-150 381h-443l-145 -377l170 -47v-61h-435v61zM737 595l-131 332l-51 135l-174 -467h356zM674 1709l-155 170q-14 15 -25.5 29t-19 27.5t-11.5 27.5t-4 29
q0 21 7.5 37.5t20 27.5t29.5 16.5t36 5.5q18 0 34.5 -4t30.5 -14.5t24.5 -29t18.5 -47.5l65 -250zM654 1477q-55 0 -106.5 16.5t-94.5 56t-73.5 104.5t-43.5 163l86 17q16 -55 34 -91.5t44.5 -59t63.5 -32t90 -9.5q51 0 87.5 9t63.5 31t46 59t36 93l86 -17
q-15 -98 -45 -163.5t-72 -104.5t-93.5 -55.5t-108.5 -16.5z" />
    <glyph glyph-name="uni1EB2" unicode="&#x1eb2;" horiz-adv-x="1287" 
d="M-73 61l92 35q43 17 59 59l397 1014l121 230h121l490 -1244q8 -20 24.5 -36t34.5 -23l92 -35v-61h-602v61l174 43l-150 381h-443l-145 -377l170 -47v-61h-435v61zM737 595l-131 332l-51 135l-174 -467h356zM661 2051q36 0 67.5 -6.5t55 -20.5t37 -35t13.5 -49
q0 -35 -17 -57.5t-37.5 -42.5t-37.5 -42.5t-17 -57.5v-22h-122v27q0 26 6.5 43t16.5 29t21 21.5t21 20t16.5 24t6.5 34.5t-13.5 35.5t-40.5 14.5q-29 0 -46.5 -15t-31.5 -31h-43v96q8 4 21.5 10t32 11t41.5 9t50 4zM655 1477q-55 0 -106.5 16.5t-94.5 56t-73.5 104.5
t-43.5 163l86 17q16 -55 34 -91.5t44.5 -59t63.5 -32t90 -9.5q51 0 87.5 9t63.5 31t46 59t36 93l86 -17q-15 -98 -45 -163.5t-72 -104.5t-93.5 -55.5t-108.5 -16.5z" />
    <glyph glyph-name="uni1EB4" unicode="&#x1eb4;" horiz-adv-x="1287" 
d="M-73 61l92 35q43 17 59 59l397 1014l121 230h121l490 -1244q8 -20 24.5 -36t34.5 -23l92 -35v-61h-602v61l174 43l-150 381h-443l-145 -377l170 -47v-61h-435v61zM737 595l-131 332l-51 135l-174 -467h356zM655 1477q-55 0 -106.5 16.5t-94.5 56t-73.5 104.5t-43.5 163
l86 17q16 -55 34 -91.5t44.5 -59t63.5 -32t90 -9.5q51 0 87.5 9t63.5 31t46 59t36 93l86 -17q-15 -98 -45 -163.5t-72 -104.5t-93.5 -55.5t-108.5 -16.5zM293 1875q10 60 32.5 110.5t54.5 87.5t73 57.5t88 20.5q32 0 70 -11.5t84 -36.5q48 -26 79.5 -36t48.5 -10
q55 0 81 28.5t39 79.5h74q-9 -59 -30.5 -109.5t-53 -87.5t-72 -57.5t-87.5 -20.5q-17 0 -32 2t-32.5 7.5t-38.5 15t-49 25.5q-45 25 -78.5 36t-51.5 11q-56 0 -84 -30t-41 -82h-74z" />
    <glyph glyph-name="Aring" unicode="&#xc5;" horiz-adv-x="1287" 
d="M-73 61l92 35q43 17 59 59l397 1014l121 230h121l490 -1244q8 -20 24.5 -36t34.5 -23l92 -35v-61h-602v61l174 43l-150 381h-443l-145 -377l170 -47v-61h-435v61zM737 595l-131 332l-51 135l-174 -467h356zM639 1481q-48 0 -89 13t-71 39t-47 64.5t-17 88.5t18.5 89
t51 65.5t75.5 40.5t92 14q47 0 87 -13.5t69.5 -39t46 -64t16.5 -87.5q0 -51 -19 -90t-50.5 -65.5t-74 -40.5t-88.5 -14zM652 1542q48 0 70 37t22 97q0 33 -7.5 62t-21 50.5t-33 33.5t-43.5 12q-48 0 -71.5 -36t-23.5 -100q0 -35 7.5 -63.5t22 -49t34.5 -32t44 -11.5z" />
    <glyph glyph-name="Aringacute" unicode="&#x1fa;" horiz-adv-x="1287" 
d="M-73 61l92 35q43 17 59 59l397 1014l121 230h121l490 -1244q8 -20 24.5 -36t34.5 -23l92 -35v-61h-602v61l174 43l-150 381h-443l-145 -377l170 -47v-61h-435v61zM737 595l-131 332l-51 135l-174 -467h356zM406 1929q44 64 74.5 108.5t53 77t39.5 56.5t35 48
q20 27 38.5 43.5t37 25.5t38 12t42.5 3q24 0 43.5 -7t33.5 -19t21.5 -27.5t7.5 -32.5q0 -19 -5 -35t-15 -30.5t-25.5 -28.5t-36.5 -29q-24 -17 -51 -33.5t-64 -39t-88.5 -53.5t-125.5 -77zM639 1463q-48 0 -89 13t-71 39t-47 64.5t-17 88.5t18.5 89t51 65.5t75.5 40.5t92 14
q47 0 87 -13.5t69.5 -39t46 -64t16.5 -87.5q0 -51 -19 -90t-50.5 -65.5t-74 -40.5t-88.5 -14zM652 1524q48 0 70 37t22 97q0 33 -7.5 62t-21 50.5t-33 33.5t-43.5 12q-48 0 -71.5 -36t-23.5 -100q0 -35 7.5 -63.5t22 -49t34.5 -32t44 -11.5z" />
    <glyph glyph-name="uni1EA2" unicode="&#x1ea2;" horiz-adv-x="1287" 
d="M-73 61l92 35q43 17 59 59l397 1014l121 230h121l490 -1244q8 -20 24.5 -36t34.5 -23l92 -35v-61h-602v61l174 43l-150 381h-443l-145 -377l170 -47v-61h-435v61zM737 595l-131 332l-51 135l-174 -467h356zM650 1970q49 0 92 -9.5t74.5 -29.5t49.5 -50t18 -71
q0 -34 -11.5 -59t-28.5 -46t-36.5 -40t-36.5 -39.5t-28.5 -46t-11.5 -58.5v-31h-151v39q0 37 10 63.5t25 47t32 38t32 35.5t25 40t10 52q0 31 -21 51.5t-66 20.5q-23 0 -41.5 -6t-33.5 -15t-27.5 -21t-24.5 -24h-47v109q12 6 30.5 14.5t43 16.5t55.5 13.5t68 5.5z" />
    <glyph glyph-name="uni1EA0" unicode="&#x1ea0;" horiz-adv-x="1287" 
d="M-73 61l92 35q43 17 59 59l397 1014l121 230h121l490 -1244q8 -20 24.5 -36t34.5 -23l92 -35v-61h-602v61l174 43l-150 381h-443l-145 -377l170 -47v-61h-435v61zM737 595l-131 332l-51 135l-174 -467h356zM556 -449q-35 0 -65 12.5t-52 34t-35 51t-13 63.5q0 33 13 62
t35 50.5t52 34t65 12.5t65.5 -12.5t53.5 -34t36 -50.5t13 -62q0 -34 -13 -63.5t-36 -51t-53.5 -34t-65.5 -12.5z" />
    <glyph glyph-name="uni1EAC" unicode="&#x1eac;" horiz-adv-x="1287" 
d="M-73 61l92 35q43 17 59 59l397 1014l121 230h121l490 -1244q8 -20 24.5 -36t34.5 -23l92 -35v-61h-602v61l174 43l-150 381h-443l-145 -377l170 -47v-61h-435v61zM737 595l-131 332l-51 135l-174 -467h356zM321 1518l194 289q26 40 61 60t80 20t80.5 -20t61.5 -60
l195 -288l-52 -35l-284 232l-285 -234zM556 -449q-35 0 -65 12.5t-52 34t-35 51t-13 63.5q0 33 13 62t35 50.5t52 34t65 12.5t65.5 -12.5t53.5 -34t36 -50.5t13 -62q0 -34 -13 -63.5t-36 -51t-53.5 -34t-65.5 -12.5z" />
    <glyph glyph-name="uni1EB6" unicode="&#x1eb6;" horiz-adv-x="1287" 
d="M-73 61l92 35q43 17 59 59l397 1014l121 230h121l490 -1244q8 -20 24.5 -36t34.5 -23l92 -35v-61h-602v61l174 43l-150 381h-443l-145 -377l170 -47v-61h-435v61zM737 595l-131 332l-51 135l-174 -467h356zM655 1512q-55 0 -106.5 16.5t-94.5 56t-73.5 104.5t-43.5 163
l86 17q16 -55 34 -91.5t44.5 -59t63.5 -32t90 -9.5q51 0 87.5 9t63.5 31t46 59t36 93l86 -17q-15 -98 -45 -163.5t-72 -104.5t-93.5 -55.5t-108.5 -16.5zM556 -449q-35 0 -65 12.5t-52 34t-35 51t-13 63.5q0 33 13 62t35 50.5t52 34t65 12.5t65.5 -12.5t53.5 -34t36 -50.5
t13 -62q0 -34 -13 -63.5t-36 -51t-53.5 -34t-65.5 -12.5z" />
    <glyph glyph-name="Aogonek" unicode="&#x104;" horiz-adv-x="1287" 
d="M1048 -439q-55 0 -99.5 14.5t-76 40t-49 59t-17.5 71.5q0 42 14.5 77.5t39 67t57 58.5t67.5 51h-228v61l174 43l-150 381h-443l-145 -377l170 -47v-61h-435v61l92 35q43 17 59 59l397 1014l121 230h121l490 -1244q8 -20 24.5 -36t34.5 -23l92 -35v-61h-278
q-43 -42 -68.5 -95t-25.5 -121q0 -27 7 -48.5t21 -36.5t35 -23t49 -8q18 0 43 5.5t46 16.5h21v-89q-40 -17 -83.5 -28.5t-76.5 -11.5zM737 595l-131 332l-51 135v0l-174 -467h356z" />
    <glyph glyph-name="AE" unicode="&#xc6;" horiz-adv-x="2034" 
d="M-75 61l93 35q22 8 42 23.5t33 35.5l645 1021q11 18 18 34.5t7 33.5q0 13 -17.5 22.5t-37.5 14.5l-127 36v61h1326v-358h-70l-81 213q-6 15 -14.5 25t-26.5 10h-458v-535h292q20 0 29 9t14 23l67 164h63v-503h-63l-67 192q-3 7 -6 9t-8 1t-12 -3t-17 -2h-292v-512h544
q18 0 27 9.5t14 25.5l77 241h70v-387h-1190v61l127 37q20 6 33.5 21.5t13.5 37.5v466h-444l-323 -515l160 -47v-61h-441v61zM973 733v539h-37l-338 -539h375z" />
    <glyph glyph-name="AEacute" unicode="&#x1fc;" horiz-adv-x="2034" 
d="M-75 61l93 35q22 8 42 23.5t33 35.5l645 1021q11 18 18 34.5t7 33.5q0 13 -17.5 22.5t-37.5 14.5l-127 36v61h1326v-358h-70l-81 213q-6 15 -14.5 25t-26.5 10h-458v-535h292q20 0 29 9t14 23l67 164h63v-503h-63l-67 192q-3 7 -6 9t-8 1t-12 -3t-17 -2h-292v-512h544
q18 0 27 9.5t14 25.5l77 241h70v-387h-1190v61l127 37q20 6 33.5 21.5t13.5 37.5v466h-444l-323 -515l160 -47v-61h-441v61zM973 733v539h-37l-338 -539h375zM1009 1524q44 64 74.5 108.5t53 77t39.5 56.5t35 48q20 27 38.5 43.5t37 25.5t38 12t42.5 3q24 0 43.5 -7
t33.5 -19t21.5 -27.5t7.5 -32.5q0 -19 -5 -35t-15 -30.5t-25.5 -28.5t-36.5 -29q-24 -17 -51 -33.5t-64 -39t-88.5 -53.5t-125.5 -77z" />
    <glyph glyph-name="Cacute" unicode="&#x106;" horiz-adv-x="1220" 
d="M703 -29q-151 0 -273 49.5t-208 142t-132.5 225t-46.5 298.5q0 107 23 202t65.5 175.5t102 144t133 108t159 68t179.5 23.5q49 0 111 -7t124.5 -18t119 -25t94.5 -28v-337h-67l-74 175q-8 17 -18 26t-23 17q-62 35 -128 54.5t-139 19.5q-80 0 -145.5 -37t-112 -109
t-72 -177.5t-25.5 -242.5q0 -142 28.5 -252t85.5 -185.5t141.5 -114.5t195.5 -39q73 0 128.5 16.5t99 41t77 54t62.5 55.5h43v-109q-40 -35 -96 -72.5t-123 -69t-140.5 -52t-148.5 -20.5zM446 1524q44 64 74.5 108.5t53 77t39.5 56.5t35 48q20 27 38.5 43.5t37 25.5t38 12
t42.5 3q24 0 43.5 -7t33.5 -19t21.5 -27.5t7.5 -32.5q0 -19 -5 -35t-15 -30.5t-25.5 -28.5t-36.5 -29q-24 -17 -51 -33.5t-64 -39t-88.5 -53.5t-125.5 -77z" />
    <glyph glyph-name="Ccircumflex" unicode="&#x108;" horiz-adv-x="1220" 
d="M703 -29q-151 0 -273 49.5t-208 142t-132.5 225t-46.5 298.5q0 107 23 202t65.5 175.5t102 144t133 108t159 68t179.5 23.5q49 0 111 -7t124.5 -18t119 -25t94.5 -28v-337h-67l-74 175q-8 17 -18 26t-23 17q-62 35 -128 54.5t-139 19.5q-80 0 -145.5 -37t-112 -109
t-72 -177.5t-25.5 -242.5q0 -142 28.5 -252t85.5 -185.5t141.5 -114.5t195.5 -39q73 0 128.5 16.5t99 41t77 54t62.5 55.5h43v-109q-40 -35 -96 -72.5t-123 -69t-140.5 -52t-148.5 -20.5zM361 1518l194 289q26 40 61 60t80 20t80.5 -20t61.5 -60l195 -288l-52 -35l-284 232
l-285 -234z" />
    <glyph glyph-name="Ccaron" unicode="&#x10c;" horiz-adv-x="1220" 
d="M703 -29q-151 0 -273 49.5t-208 142t-132.5 225t-46.5 298.5q0 107 23 202t65.5 175.5t102 144t133 108t159 68t179.5 23.5q49 0 111 -7t124.5 -18t119 -25t94.5 -28v-337h-67l-74 175q-8 17 -18 26t-23 17q-62 35 -128 54.5t-139 19.5q-80 0 -145.5 -37t-112 -109
t-72 -177.5t-25.5 -242.5q0 -142 28.5 -252t85.5 -185.5t141.5 -114.5t195.5 -39q73 0 128.5 16.5t99 41t77 54t62.5 55.5h43v-109q-40 -35 -96 -72.5t-123 -69t-140.5 -52t-148.5 -20.5zM697 1501q-45 0 -79 20t-62 60l-194 279l51 36l285 -224l284 222l52 -35l-195 -278
q-28 -40 -62.5 -60t-79.5 -20z" />
    <glyph glyph-name="Cdotaccent" unicode="&#x10a;" horiz-adv-x="1220" 
d="M703 -29q-151 0 -273 49.5t-208 142t-132.5 225t-46.5 298.5q0 107 23 202t65.5 175.5t102 144t133 108t159 68t179.5 23.5q49 0 111 -7t124.5 -18t119 -25t94.5 -28v-337h-67l-74 175q-8 17 -18 26t-23 17q-62 35 -128 54.5t-139 19.5q-80 0 -145.5 -37t-112 -109
t-72 -177.5t-25.5 -242.5q0 -142 28.5 -252t85.5 -185.5t141.5 -114.5t195.5 -39q73 0 128.5 16.5t99 41t77 54t62.5 55.5h43v-109q-40 -35 -96 -72.5t-123 -69t-140.5 -52t-148.5 -20.5zM693 1513q-35 0 -65 12.5t-52 34t-35 51t-13 63.5q0 33 13 62t35 50.5t52 34t65 12.5
t65.5 -12.5t53.5 -34t36 -50.5t13 -62q0 -34 -13 -63.5t-36 -51t-53.5 -34t-65.5 -12.5z" />
    <glyph glyph-name="Ccedilla" unicode="&#xc7;" horiz-adv-x="1220" 
d="M681 -446q-51 0 -98.5 16t-89.5 39v91h23q12 -8 29 -17.5t37.5 -17.5t43 -13.5t46.5 -5.5q45 0 69.5 24t24.5 60q0 44 -33.5 58.5t-108.5 14.5v172q-134 13 -241 67.5t-183 146t-116.5 217t-40.5 280.5q0 107 23 202t65.5 175.5t102 144t133 108t159 68t179.5 23.5
q49 0 111 -7t124.5 -18t119 -25t94.5 -28v-337h-67l-74 175q-8 17 -18 26t-23 17q-62 35 -128 54.5t-139 19.5q-80 0 -145.5 -37t-112 -109t-72 -177.5t-25.5 -242.5q0 -142 28.5 -252t85.5 -185.5t141.5 -114.5t195.5 -39q73 0 128.5 16.5t99 41t77 54t62.5 55.5h43v-109
q-39 -34 -94 -71t-119.5 -68t-136.5 -52t-145 -23v-63q40 0 77.5 -7.5t66.5 -25.5t46.5 -47.5t17.5 -72.5q0 -48 -17.5 -85.5t-50 -63t-77 -39t-98.5 -13.5z" />
    <glyph glyph-name="Dcaron" unicode="&#x10e;" horiz-adv-x="1426" 
d="M37 61l127 37q22 6 34.5 21.5t12.5 37.5v1064q0 23 -12.5 38.5t-34.5 21.5l-127 36v61h643q69 0 148.5 -13t157.5 -43.5t150 -81.5t126.5 -128t87.5 -182t33 -243q0 -176 -55.5 -305.5t-151.5 -214t-225 -126t-275 -41.5h-639v61zM683 109q100 0 173.5 36.5t122.5 106.5
t73 171.5t24 231.5q0 142 -32 256t-90 193.5t-140 122.5t-181 43h-138v-1161h188zM607 1501q-45 0 -79 20t-62 60l-194 279l51 36l285 -224l284 222l52 -35l-195 -278q-28 -40 -62.5 -60t-79.5 -20z" />
    <glyph glyph-name="Dcroat" unicode="&#x110;" horiz-adv-x="1426" 
d="M683 109q100 0 173.5 36.5t122.5 106.5t73 171.5t24 231.5q0 142 -32 256t-90 193.5t-140 122.5t-181 43h-138v-497h326v-112h-326v-552h188zM37 61l127 37q22 6 34.5 21.5t12.5 37.5v504h-164v112h164v448q0 23 -12.5 38.5t-34.5 21.5l-127 36v61h644q70 0 149 -13
t157 -43.5t149.5 -81.5t126.5 -128t87.5 -182t32.5 -243q0 -176 -55.5 -305.5t-151.5 -214t-224.5 -126t-274.5 -41.5h-640v61z" />
    <glyph glyph-name="Egrave" unicode="&#xc8;" horiz-adv-x="1270" 
d="M37 61l127 37q20 6 33.5 21.5t13.5 37.5v1064q0 23 -13.5 38.5t-33.5 21.5l-127 36v61h1106v-358h-70l-81 213q-6 15 -14.5 25t-26.5 10h-456v-495h290q20 0 29 9t14 23l67 164h63v-503h-63l-67 162q-6 15 -14.5 25t-28.5 10h-290v-552h542q18 0 27 9.5t14 25.5l77 241
h70v-387h-1188v61zM778 1486q-74 46 -125.5 77t-88.5 53.5t-64 39t-51 33.5q-44 31 -63 58t-19 65q0 17 7.5 32.5t21.5 27.5t33.5 19t43.5 7q22 0 41.5 -3t38.5 -12t37.5 -25.5t38.5 -43.5q18 -24 35 -48t39.5 -56.5t53 -77t74.5 -108.5z" />
    <glyph glyph-name="Eacute" unicode="&#xc9;" horiz-adv-x="1270" 
d="M37 61l127 37q20 6 33.5 21.5t13.5 37.5v1064q0 23 -13.5 38.5t-33.5 21.5l-127 36v61h1106v-358h-70l-81 213q-6 15 -14.5 25t-26.5 10h-456v-495h290q20 0 29 9t14 23l67 164h63v-503h-63l-67 162q-6 15 -14.5 25t-28.5 10h-290v-552h542q18 0 27 9.5t14 25.5l77 241
h70v-387h-1188v61zM464 1524q44 64 74.5 108.5t53 77t39.5 56.5t35 48q20 27 38.5 43.5t37 25.5t38 12t42.5 3q24 0 43.5 -7t33.5 -19t21.5 -27.5t7.5 -32.5q0 -19 -5 -35t-15 -30.5t-25.5 -28.5t-36.5 -29q-24 -17 -51 -33.5t-64 -39t-88.5 -53.5t-125.5 -77z" />
    <glyph glyph-name="Ecircumflex" unicode="&#xca;" horiz-adv-x="1270" 
d="M37 61l127 37q20 6 33.5 21.5t13.5 37.5v1064q0 23 -13.5 38.5t-33.5 21.5l-127 36v61h1106v-358h-70l-81 213q-6 15 -14.5 25t-26.5 10h-456v-495h290q20 0 29 9t14 23l67 164h63v-503h-63l-67 162q-6 15 -14.5 25t-28.5 10h-290v-552h542q18 0 27 9.5t14 25.5l77 241
h70v-387h-1188v61zM308 1518l194 289q26 40 61 60t80 20t80.5 -20t61.5 -60l195 -288l-52 -35l-284 232l-285 -234z" />
    <glyph glyph-name="uni1EBE" unicode="&#x1ebe;" horiz-adv-x="1270" 
d="M37 61l127 37q20 6 33.5 21.5t13.5 37.5v1064q0 23 -13.5 38.5t-33.5 21.5l-127 36v61h1106v-358h-70l-81 213q-6 15 -14.5 25t-26.5 10h-456v-495h290q20 0 29 9t14 23l67 164h63v-503h-63l-67 162q-6 15 -14.5 25t-28.5 10h-290v-552h542q18 0 27 9.5t14 25.5l77 241
h70v-387h-1188v61zM895 1770l88 231q11 29 24 48.5t29.5 31t36.5 16.5t45 5q21 0 39 -6t31.5 -18t21.5 -29.5t8 -40.5t-14.5 -49t-50.5 -55l-206 -168zM308 1519l194 289q26 40 61 60t80 20t80.5 -20t61.5 -60l195 -288l-52 -35l-284 232l-285 -234z" />
    <glyph glyph-name="uni1EC0" unicode="&#x1ec0;" horiz-adv-x="1270" 
d="M37 61l127 37q20 6 33.5 21.5t13.5 37.5v1064q0 23 -13.5 38.5t-33.5 21.5l-127 36v61h1106v-358h-70l-81 213q-6 15 -14.5 25t-26.5 10h-456v-495h290q20 0 29 9t14 23l67 164h63v-503h-63l-67 162q-6 15 -14.5 25t-28.5 10h-290v-552h542q18 0 27 9.5t14 25.5l77 241
h70v-387h-1188v61zM340 1736l-206 168q-36 29 -50.5 55t-14.5 49t8 40.5t21.5 29.5t31.5 18t39 6q25 0 45 -5t36.5 -16.5t29.5 -31t24 -48.5l88 -231zM308 1519l194 289q26 40 61 60t80 20t80.5 -20t61.5 -60l195 -288l-52 -35l-284 232l-285 -234z" />
    <glyph glyph-name="uni1EC2" unicode="&#x1ec2;" horiz-adv-x="1270" 
d="M37 61l127 37q20 6 33.5 21.5t13.5 37.5v1064q0 23 -13.5 38.5t-33.5 21.5l-127 36v61h1106v-358h-70l-81 213q-6 15 -14.5 25t-26.5 10h-456v-495h290q20 0 29 9t14 23l67 164h63v-503h-63l-67 162q-6 15 -14.5 25t-28.5 10h-290v-552h542q18 0 27 9.5t14 25.5l77 241
h70v-387h-1188v61zM308 1519l194 289q26 40 61 60t80 20t80.5 -20t61.5 -60l195 -288l-52 -35l-284 232l-285 -234zM1000 2036q36 0 67.5 -6.5t55 -20.5t37 -35t13.5 -49q0 -35 -17 -57.5t-37.5 -42.5t-37.5 -42.5t-17 -57.5v-22h-122v27q0 26 6.5 43t16.5 29t21 21.5t21 20
t16.5 24t6.5 34.5t-13.5 35.5t-40.5 14.5q-29 0 -46.5 -15t-31.5 -31h-43v96q8 4 21.5 10t32 11t41.5 9t50 4z" />
    <glyph glyph-name="uni1EC4" unicode="&#x1ec4;" horiz-adv-x="1270" 
d="M37 61l127 37q20 6 33.5 21.5t13.5 37.5v1064q0 23 -13.5 38.5t-33.5 21.5l-127 36v61h1106v-358h-70l-81 213q-6 15 -14.5 25t-26.5 10h-456v-495h290q20 0 29 9t14 23l67 164h63v-503h-63l-67 162q-6 15 -14.5 25t-28.5 10h-290v-552h542q18 0 27 9.5t14 25.5l77 241
h70v-387h-1188v61zM308 1519l194 277q26 38 61 57.5t80 19.5t80.5 -19.5t61.5 -57.5l195 -276l-52 -35l-284 217l-285 -219zM282 1888q10 60 32.5 110.5t54.5 87.5t73 57.5t88 20.5q32 0 70 -11.5t84 -36.5q48 -26 79.5 -36t48.5 -10q55 0 81 28.5t39 79.5h74
q-9 -59 -30.5 -109.5t-53 -87.5t-72 -57.5t-87.5 -20.5q-17 0 -32 2t-32.5 7.5t-38.5 15t-49 25.5q-45 25 -78.5 36t-51.5 11q-56 0 -84 -30t-41 -82h-74z" />
    <glyph glyph-name="Ecaron" unicode="&#x11a;" horiz-adv-x="1270" 
d="M37 61l127 37q20 6 33.5 21.5t13.5 37.5v1064q0 23 -13.5 38.5t-33.5 21.5l-127 36v61h1106v-358h-70l-81 213q-6 15 -14.5 25t-26.5 10h-456v-495h290q20 0 29 9t14 23l67 164h63v-503h-63l-67 162q-6 15 -14.5 25t-28.5 10h-290v-552h542q18 0 27 9.5t14 25.5l77 241
h70v-387h-1188v61zM646 1501q-45 0 -79 20t-62 60l-194 279l51 36l285 -224l284 222l52 -35l-195 -278q-28 -40 -62.5 -60t-79.5 -20z" />
    <glyph glyph-name="uni1EBC" unicode="&#x1ebc;" horiz-adv-x="1270" 
d="M37 61l127 37q20 6 33.5 21.5t13.5 37.5v1064q0 23 -13.5 38.5t-33.5 21.5l-127 36v61h1106v-358h-70l-81 213q-6 15 -14.5 25t-26.5 10h-456v-495h290q20 0 29 9t14 23l67 164h63v-503h-63l-67 162q-6 15 -14.5 25t-28.5 10h-290v-552h542q18 0 27 9.5t14 25.5l77 241
h70v-387h-1188v61zM282 1545q10 60 32.5 110.5t54.5 87.5t73 57.5t88 20.5q32 0 70 -11.5t84 -36.5q48 -26 79.5 -36t48.5 -10q55 0 81 28.5t39 79.5h74q-9 -59 -30.5 -109.5t-53 -87.5t-72 -57.5t-87.5 -20.5q-17 0 -32 2t-32.5 7.5t-38.5 15t-49 25.5q-45 25 -78.5 36
t-51.5 11q-56 0 -84 -30t-41 -82h-74z" />
    <glyph glyph-name="Edieresis" unicode="&#xcb;" horiz-adv-x="1270" 
d="M37 61l127 37q20 6 33.5 21.5t13.5 37.5v1064q0 23 -13.5 38.5t-33.5 21.5l-127 36v61h1106v-358h-70l-81 213q-6 15 -14.5 25t-26.5 10h-456v-495h290q20 0 29 9t14 23l67 164h63v-503h-63l-67 162q-6 15 -14.5 25t-28.5 10h-290v-552h542q18 0 27 9.5t14 25.5l77 241
h70v-387h-1188v61zM866 1534q-28 0 -52 10.5t-42 28.5t-28.5 42.5t-10.5 52.5t10.5 52.5t28.5 42.5t42 28.5t52 10.5t53 -10.5t44 -28.5t29.5 -42.5t10.5 -52.5t-10.5 -52.5t-29.5 -42.5t-44 -28.5t-53 -10.5zM418 1534q-28 0 -52 10.5t-42 28.5t-28.5 42.5t-10.5 52.5
t10.5 52.5t28.5 42.5t42 28.5t52 10.5t53 -10.5t44 -28.5t29.5 -42.5t10.5 -52.5t-10.5 -52.5t-29.5 -42.5t-44 -28.5t-53 -10.5z" />
    <glyph glyph-name="Emacron" unicode="&#x112;" horiz-adv-x="1270" 
d="M37 61l127 37q20 6 33.5 21.5t13.5 37.5v1064q0 23 -13.5 38.5t-33.5 21.5l-127 36v61h1106v-358h-70l-81 213q-6 15 -14.5 25t-26.5 10h-456v-495h290q20 0 29 9t14 23l67 164h63v-503h-63l-67 162q-6 15 -14.5 25t-28.5 10h-290v-552h542q18 0 27 9.5t14 25.5l77 241
h70v-387h-1188v61zM323 1728h644v-148h-644v148z" />
    <glyph glyph-name="Ebreve" unicode="&#x114;" horiz-adv-x="1270" 
d="M37 61l127 37q20 6 33.5 21.5t13.5 37.5v1064q0 23 -13.5 38.5t-33.5 21.5l-127 36v61h1106v-358h-70l-81 213q-6 15 -14.5 25t-26.5 10h-456v-495h290q20 0 29 9t14 23l67 164h63v-503h-63l-67 162q-6 15 -14.5 25t-28.5 10h-290v-552h542q18 0 27 9.5t14 25.5l77 241
h70v-387h-1188v61zM644 1512q-55 0 -106.5 16.5t-94.5 56t-73.5 104.5t-43.5 163l86 17q16 -55 34 -91.5t44.5 -59t63.5 -32t90 -9.5q51 0 87.5 9t63.5 31t46 59t36 93l86 -17q-15 -98 -45 -163.5t-72 -104.5t-93.5 -55.5t-108.5 -16.5z" />
    <glyph glyph-name="Edotaccent" unicode="&#x116;" horiz-adv-x="1270" 
d="M37 61l127 37q20 6 33.5 21.5t13.5 37.5v1064q0 23 -13.5 38.5t-33.5 21.5l-127 36v61h1106v-358h-70l-81 213q-6 15 -14.5 25t-26.5 10h-456v-495h290q20 0 29 9t14 23l67 164h63v-503h-63l-67 162q-6 15 -14.5 25t-28.5 10h-290v-552h542q18 0 27 9.5t14 25.5l77 241
h70v-387h-1188v61zM642 1513q-35 0 -65 12.5t-52 34t-35 51t-13 63.5q0 33 13 62t35 50.5t52 34t65 12.5t65.5 -12.5t53.5 -34t36 -50.5t13 -62q0 -34 -13 -63.5t-36 -51t-53.5 -34t-65.5 -12.5z" />
    <glyph glyph-name="uni1EBA" unicode="&#x1eba;" horiz-adv-x="1270" 
d="M37 61l127 37q20 6 33.5 21.5t13.5 37.5v1064q0 23 -13.5 38.5t-33.5 21.5l-127 36v61h1106v-358h-70l-81 213q-6 15 -14.5 25t-26.5 10h-456v-495h290q20 0 29 9t14 23l67 164h63v-503h-63l-67 162q-6 15 -14.5 25t-28.5 10h-290v-552h542q18 0 27 9.5t14 25.5l77 241
h70v-387h-1188v61zM639 1970q49 0 92 -9.5t74.5 -29.5t49.5 -50t18 -71q0 -34 -11.5 -59t-28.5 -46t-36.5 -40t-36.5 -39.5t-28.5 -46t-11.5 -58.5v-31h-151v39q0 37 10 63.5t25 47t32 38t32 35.5t25 40t10 52q0 31 -21 51.5t-66 20.5q-23 0 -41.5 -6t-33.5 -15t-27.5 -21
t-24.5 -24h-47v109q12 6 30.5 14.5t43 16.5t55.5 13.5t68 5.5z" />
    <glyph glyph-name="uni1EB8" unicode="&#x1eb8;" horiz-adv-x="1270" 
d="M37 61l127 37q20 6 33.5 21.5t13.5 37.5v1064q0 23 -13.5 38.5t-33.5 21.5l-127 36v61h1106v-358h-70l-81 213q-6 15 -14.5 25t-26.5 10h-456v-495h290q20 0 29 9t14 23l67 164h63v-503h-63l-67 162q-6 15 -14.5 25t-28.5 10h-290v-552h542q18 0 27 9.5t14 25.5l77 241
h70v-387h-1188v61zM665 -449q-35 0 -65 12.5t-52 34t-35 51t-13 63.5q0 33 13 62t35 50.5t52 34t65 12.5t65.5 -12.5t53.5 -34t36 -50.5t13 -62q0 -34 -13 -63.5t-36 -51t-53.5 -34t-65.5 -12.5z" />
    <glyph glyph-name="uni1EC6" unicode="&#x1ec6;" horiz-adv-x="1270" 
d="M37 61l127 37q20 6 33.5 21.5t13.5 37.5v1064q0 23 -13.5 38.5t-33.5 21.5l-127 36v61h1106v-358h-70l-81 213q-6 15 -14.5 25t-26.5 10h-456v-495h290q20 0 29 9t14 23l67 164h63v-503h-63l-67 162q-6 15 -14.5 25t-28.5 10h-290v-552h542q18 0 27 9.5t14 25.5l77 241
h70v-387h-1188v61zM308 1518l194 289q26 40 61 60t80 20t80.5 -20t61.5 -60l195 -288l-52 -35l-284 232l-285 -234zM665 -449q-35 0 -65 12.5t-52 34t-35 51t-13 63.5q0 33 13 62t35 50.5t52 34t65 12.5t65.5 -12.5t53.5 -34t36 -50.5t13 -62q0 -34 -13 -63.5t-36 -51
t-53.5 -34t-65.5 -12.5z" />
    <glyph glyph-name="Eogonek" unicode="&#x118;" horiz-adv-x="1270" 
d="M1024 -439q-55 0 -99.5 14.5t-76 40t-49 59t-17.5 71.5q0 41 14.5 77t39 67.5t56.5 58.5t67 51h-922v61l127 37q20 6 33.5 21.5t13.5 37.5v1064q0 23 -13.5 38.5t-33.5 21.5l-127 36v61h1106v-358h-70l-81 213q-6 15 -14.5 25t-26.5 10h-456v-495h290q20 0 29 9t14 23
l67 164h63v-503h-63l-67 162q-6 15 -14.5 25t-28.5 10h-290v-552h542q18 0 27 9.5t14 25.5l77 241h70v-387h-168q-43 -42 -69 -94.5t-26 -121.5q0 -27 7 -48.5t21 -36.5t35 -23t49 -8q18 0 43 5.5t46 16.5h21v-89q-40 -17 -83.5 -28.5t-76.5 -11.5z" />
    <glyph glyph-name="Gcircumflex" unicode="&#x11c;" horiz-adv-x="1431" 
d="M713 -31q-137 0 -259 48.5t-213.5 141t-144.5 225.5t-53 302q0 160 53 293t146 228t220.5 147.5t277.5 52.5q88 0 161.5 -6.5t134.5 -17.5t111.5 -24.5t92.5 -27.5v-339h-69l-71 179q-6 15 -17.5 24t-25.5 17q-32 18 -73.5 31.5t-86 22.5t-90 13.5t-85.5 4.5
q-71 0 -137.5 -35.5t-119 -107t-84 -178t-31.5 -248.5q0 -135 24.5 -250t72 -198t118 -130t162.5 -47q40 0 77.5 7.5t69 18t56 22.5t38.5 21v302q0 23 -12 37.5t-35 21.5l-139 37v61h642v-61l-127 -37q-22 -6 -34.5 -21.5t-12.5 -37.5v-154v-139t2 -96q-51 -21 -114.5 -39.5
t-134 -33t-144.5 -22.5t-146 -8zM388 1518l194 289q26 40 61 60t80 20t80.5 -20t61.5 -60l195 -288l-52 -35l-284 232l-285 -234z" />
    <glyph glyph-name="Gbreve" unicode="&#x11e;" horiz-adv-x="1431" 
d="M713 -31q-137 0 -259 48.5t-213.5 141t-144.5 225.5t-53 302q0 160 53 293t146 228t220.5 147.5t277.5 52.5q88 0 161.5 -6.5t134.5 -17.5t111.5 -24.5t92.5 -27.5v-339h-69l-71 179q-6 15 -17.5 24t-25.5 17q-32 18 -73.5 31.5t-86 22.5t-90 13.5t-85.5 4.5
q-71 0 -137.5 -35.5t-119 -107t-84 -178t-31.5 -248.5q0 -135 24.5 -250t72 -198t118 -130t162.5 -47q40 0 77.5 7.5t69 18t56 22.5t38.5 21v302q0 23 -12 37.5t-35 21.5l-139 37v61h642v-61l-127 -37q-22 -6 -34.5 -21.5t-12.5 -37.5v-154v-139t2 -96q-51 -21 -114.5 -39.5
t-134 -33t-144.5 -22.5t-146 -8zM722 1512q-55 0 -106.5 16.5t-94.5 56t-73.5 104.5t-43.5 163l86 17q16 -55 34 -91.5t44.5 -59t63.5 -32t90 -9.5q51 0 87.5 9t63.5 31t46 59t36 93l86 -17q-15 -98 -45 -163.5t-72 -104.5t-93.5 -55.5t-108.5 -16.5z" />
    <glyph glyph-name="Gdotaccent" unicode="&#x120;" horiz-adv-x="1431" 
d="M713 -31q-137 0 -259 48.5t-213.5 141t-144.5 225.5t-53 302q0 160 53 293t146 228t220.5 147.5t277.5 52.5q88 0 161.5 -6.5t134.5 -17.5t111.5 -24.5t92.5 -27.5v-339h-69l-71 179q-6 15 -17.5 24t-25.5 17q-32 18 -73.5 31.5t-86 22.5t-90 13.5t-85.5 4.5
q-71 0 -137.5 -35.5t-119 -107t-84 -178t-31.5 -248.5q0 -135 24.5 -250t72 -198t118 -130t162.5 -47q40 0 77.5 7.5t69 18t56 22.5t38.5 21v302q0 23 -12 37.5t-35 21.5l-139 37v61h642v-61l-127 -37q-22 -6 -34.5 -21.5t-12.5 -37.5v-154v-139t2 -96q-51 -21 -114.5 -39.5
t-134 -33t-144.5 -22.5t-146 -8zM720 1513q-35 0 -65 12.5t-52 34t-35 51t-13 63.5q0 33 13 62t35 50.5t52 34t65 12.5t65.5 -12.5t53.5 -34t36 -50.5t13 -62q0 -34 -13 -63.5t-36 -51t-53.5 -34t-65.5 -12.5z" />
    <glyph glyph-name="uni0122" unicode="&#x122;" horiz-adv-x="1431" 
d="M713 -31q-137 0 -259 48.5t-213.5 141t-144.5 225.5t-53 302q0 160 53 293t146 228t220.5 147.5t277.5 52.5q88 0 161.5 -6.5t134.5 -17.5t111.5 -24.5t92.5 -27.5v-339h-69l-71 179q-6 15 -17.5 24t-25.5 17q-32 18 -73.5 31.5t-86 22.5t-90 13.5t-85.5 4.5
q-71 0 -137.5 -35.5t-119 -107t-84 -178t-31.5 -248.5q0 -135 24.5 -250t72 -198t118 -130t162.5 -47q40 0 77.5 7.5t69 18t56 22.5t38.5 21v302q0 23 -12 37.5t-35 21.5l-139 37v61h642v-61l-127 -37q-22 -6 -34.5 -21.5t-12.5 -37.5v-154v-139t2 -96q-51 -21 -114.5 -39.5
t-134 -33t-144.5 -22.5t-146 -8zM611 -440q24 21 40.5 39t27 34.5t17 32t11.5 33.5q-28 16 -48 28t-32.5 25t-18 28t-5.5 36q0 16 7.5 32.5t22 29t35.5 20.5t48 8q36 0 62.5 -11t43.5 -31t25.5 -47.5t8.5 -60.5q0 -48 -19 -85t-48 -66.5t-64 -52.5t-66 -41z" />
    <glyph glyph-name="Hcircumflex" unicode="&#x124;" horiz-adv-x="1557" 
d="M37 61l127 37q20 6 33.5 21.5t13.5 37.5v1064q0 23 -13.5 38.5t-33.5 21.5l-127 36v61h632v-61l-126 -36q-20 -6 -34 -22t-14 -38v-448h566v448q0 23 -13.5 38.5t-33.5 21.5l-127 36v61h632v-61l-127 -36q-20 -5 -33.5 -21.5t-13.5 -38.5v-1064q0 -23 13.5 -38t33.5 -21
l127 -37v-61h-632v61l127 37q20 6 33.5 21.5t13.5 37.5v504h-566v-504q0 -23 14 -38t34 -21l126 -37v-61h-632v61zM449 1518l194 289q26 40 61 60t80 20t80.5 -20t61.5 -60l195 -288l-52 -35l-284 232l-285 -234z" />
    <glyph glyph-name="Hbar" unicode="&#x126;" horiz-adv-x="1557" 
d="M37 61l127 37q20 6 33.5 21.5t13.5 37.5v821h-174v112h174v131q0 23 -13.5 38.5t-33.5 21.5l-127 36v61h632v-61l-126 -36q-20 -6 -34 -22t-14 -38v-131h566v131q0 23 -13.5 38.5t-33.5 21.5l-127 36v61h632v-61l-127 -36q-20 -5 -33.5 -21.5t-13.5 -38.5v-131h174v-112
h-174v-821q0 -23 13.5 -38t33.5 -21l127 -37v-61h-632v61l127 37q20 6 33.5 21.5t13.5 37.5v494h-566v-494q0 -23 14 -38t34 -21l126 -37v-61h-632v61zM1061 763v215h-566v-215h566z" />
    <glyph glyph-name="Igrave" unicode="&#xcc;" horiz-adv-x="707" 
d="M37 61l127 37q22 6 34.5 21.5t12.5 37.5v1064q0 23 -14 39t-33 21l-127 36v61h632v-61l-126 -36q-19 -5 -33.5 -21.5t-14.5 -38.5v-1064q0 -23 13.5 -38t34.5 -21l126 -37v-61h-632v61zM517 1486q-74 46 -125.5 77t-88.5 53.5t-64 39t-51 33.5q-44 31 -63 58t-19 65
q0 17 7.5 32.5t21.5 27.5t33.5 19t43.5 7q22 0 41.5 -3t38.5 -12t37.5 -25.5t38.5 -43.5q18 -24 35 -48t39.5 -56.5t53 -77t74.5 -108.5z" />
    <glyph glyph-name="Iacute" unicode="&#xcd;" horiz-adv-x="707" 
d="M37 61l127 37q22 6 34.5 21.5t12.5 37.5v1064q0 23 -14 39t-33 21l-127 36v61h632v-61l-126 -36q-19 -5 -33.5 -21.5t-14.5 -38.5v-1064q0 -23 13.5 -38t34.5 -21l126 -37v-61h-632v61zM141 1524q44 64 74.5 108.5t53 77t39.5 56.5t35 48q20 27 38.5 43.5t37 25.5t38 12
t42.5 3q24 0 43.5 -7t33.5 -19t21.5 -27.5t7.5 -32.5q0 -19 -5 -35t-15 -30.5t-25.5 -28.5t-36.5 -29q-24 -17 -51 -33.5t-64 -39t-88.5 -53.5t-125.5 -77z" />
    <glyph glyph-name="Icircumflex" unicode="&#xce;" horiz-adv-x="707" 
d="M37 61l127 37q22 6 34.5 21.5t12.5 37.5v1064q0 23 -14 39t-33 21l-127 36v61h632v-61l-126 -36q-19 -5 -33.5 -21.5t-14.5 -38.5v-1064q0 -23 13.5 -38t34.5 -21l126 -37v-61h-632v61zM17 1518l194 289q26 40 61 60t80 20t80.5 -20t61.5 -60l195 -288l-52 -35l-284 232
l-285 -234z" />
    <glyph glyph-name="Itilde" unicode="&#x128;" horiz-adv-x="707" 
d="M37 61l127 37q22 6 34.5 21.5t12.5 37.5v1064q0 23 -14 39t-33 21l-127 36v61h632v-61l-126 -36q-19 -5 -33.5 -21.5t-14.5 -38.5v-1064q0 -23 13.5 -38t34.5 -21l126 -37v-61h-632v61zM-4 1545q10 60 32.5 110.5t54.5 87.5t73 57.5t88 20.5q32 0 70 -11.5t84 -36.5
q48 -26 79.5 -36t48.5 -10q55 0 81 28.5t39 79.5h74q-9 -59 -30.5 -109.5t-53 -87.5t-72 -57.5t-87.5 -20.5q-17 0 -32 2t-32.5 7.5t-38.5 15t-49 25.5q-45 25 -78.5 36t-51.5 11q-56 0 -84 -30t-41 -82h-74z" />
    <glyph glyph-name="Idieresis" unicode="&#xcf;" horiz-adv-x="707" 
d="M37 61l127 37q22 6 34.5 21.5t12.5 37.5v1064q0 23 -14 39t-33 21l-127 36v61h632v-61l-126 -36q-19 -5 -33.5 -21.5t-14.5 -38.5v-1064q0 -23 13.5 -38t34.5 -21l126 -37v-61h-632v61zM575 1534q-28 0 -52 10.5t-42 28.5t-28.5 42.5t-10.5 52.5t10.5 52.5t28.5 42.5
t42 28.5t52 10.5t53 -10.5t44 -28.5t29.5 -42.5t10.5 -52.5t-10.5 -52.5t-29.5 -42.5t-44 -28.5t-53 -10.5zM127 1534q-28 0 -52 10.5t-42 28.5t-28.5 42.5t-10.5 52.5t10.5 52.5t28.5 42.5t42 28.5t52 10.5t53 -10.5t44 -28.5t29.5 -42.5t10.5 -52.5t-10.5 -52.5
t-29.5 -42.5t-44 -28.5t-53 -10.5z" />
    <glyph glyph-name="Imacron" unicode="&#x12a;" horiz-adv-x="707" 
d="M37 61l127 37q22 6 34.5 21.5t12.5 37.5v1064q0 23 -14 39t-33 21l-127 36v61h632v-61l-126 -36q-19 -5 -33.5 -21.5t-14.5 -38.5v-1064q0 -23 13.5 -38t34.5 -21l126 -37v-61h-632v61zM37 1728h644v-148h-644v148z" />
    <glyph glyph-name="Ibreve" unicode="&#x12c;" horiz-adv-x="707" 
d="M37 61l127 37q22 6 34.5 21.5t12.5 37.5v1064q0 23 -14 39t-33 21l-127 36v61h632v-61l-126 -36q-19 -5 -33.5 -21.5t-14.5 -38.5v-1064q0 -23 13.5 -38t34.5 -21l126 -37v-61h-632v61zM358 1512q-55 0 -106.5 16.5t-94.5 56t-73.5 104.5t-43.5 163l86 17
q16 -55 34 -91.5t44.5 -59t63.5 -32t90 -9.5q51 0 87.5 9t63.5 31t46 59t36 93l86 -17q-15 -98 -45 -163.5t-72 -104.5t-93.5 -55.5t-108.5 -16.5z" />
    <glyph glyph-name="Idotaccent" unicode="&#x130;" horiz-adv-x="707" 
d="M37 61l127 37q22 6 34.5 21.5t12.5 37.5v1064q0 23 -14 39t-33 21l-127 36v61h632v-61l-126 -36q-19 -5 -33.5 -21.5t-14.5 -38.5v-1064q0 -23 13.5 -38t34.5 -21l126 -37v-61h-632v61zM356 1513q-35 0 -65 12.5t-52 34t-35 51t-13 63.5q0 33 13 62t35 50.5t52 34
t65 12.5t65.5 -12.5t53.5 -34t36 -50.5t13 -62q0 -34 -13 -63.5t-36 -51t-53.5 -34t-65.5 -12.5z" />
    <glyph glyph-name="uni1EC8" unicode="&#x1ec8;" horiz-adv-x="707" 
d="M37 61l127 37q22 6 34.5 21.5t12.5 37.5v1064q0 23 -14 39t-33 21l-127 36v61h632v-61l-126 -36q-19 -5 -33.5 -21.5t-14.5 -38.5v-1064q0 -23 13.5 -38t34.5 -21l126 -37v-61h-632v61zM351 1970q49 0 92 -9.5t74.5 -29.5t49.5 -50t18 -71q0 -34 -11.5 -59t-28.5 -46
t-36.5 -40t-36.5 -39.5t-28.5 -46t-11.5 -58.5v-31h-151v39q0 37 10 63.5t25 47t32 38t32 35.5t25 40t10 52q0 31 -21 51.5t-66 20.5q-23 0 -41.5 -6t-33.5 -15t-27.5 -21t-24.5 -24h-47v109q12 6 30.5 14.5t43 16.5t55.5 13.5t68 5.5z" />
    <glyph glyph-name="Iogonek" unicode="&#x12e;" horiz-adv-x="707" 
d="M37 61l127 37q22 6 34.5 21.5t12.5 37.5v1064q0 23 -14 39t-33 21l-127 36v61h632v-61l-126 -36q-19 -5 -33.5 -21.5t-14.5 -38.5v-1064q0 -23 13.5 -38t34.5 -21l126 -37v-61h-632v61zM397 -439q-55 0 -99.5 14.5t-76 40t-49 59t-17.5 71.5q0 54 24 98t61.5 81.5
t84.5 69t92 59.5h81q-35 -23 -65 -51t-52 -61.5t-34 -72.5t-12 -85q0 -27 7 -48.5t21 -36.5t35 -23t49 -8q18 0 43 5.5t46 16.5h21v-89q-40 -17 -83.5 -28.5t-76.5 -11.5z" />
    <glyph glyph-name="uni1ECA" unicode="&#x1eca;" horiz-adv-x="707" 
d="M37 61l127 37q22 6 34.5 21.5t12.5 37.5v1064q0 23 -14 39t-33 21l-127 36v61h632v-61l-126 -36q-19 -5 -33.5 -21.5t-14.5 -38.5v-1064q0 -23 13.5 -38t34.5 -21l126 -37v-61h-632v61zM353 -449q-35 0 -65 12.5t-52 34t-35 51t-13 63.5q0 33 13 62t35 50.5t52 34
t65 12.5t65.5 -12.5t53.5 -34t36 -50.5t13 -62q0 -34 -13 -63.5t-36 -51t-53.5 -34t-65.5 -12.5z" />
    <glyph glyph-name="IJ" unicode="&#x132;" horiz-adv-x="1405" 
d="M37 61l127 37q22 6 34.5 21.5t12.5 37.5v1064q0 23 -14 39t-33 21l-127 36v61h632v-61l-126 -36q-19 -5 -33.5 -21.5t-14.5 -38.5v-1064q0 -23 13.5 -38t34.5 -21l126 -37v-61h-632v61zM714 -399q-18 0 -44.5 3t-55.5 8.5t-56.5 13.5t-48.5 19l47 223h35q27 -17 60 -35.5
t67.5 -33.5t68.5 -25t63 -10q23 0 38 11t21 37q6 25 9.5 60.5t6 81.5t3 102t0.5 122v1043q0 23 -13.5 39t-33.5 21l-139 36v61h645v-61l-127 -36q-20 -6 -33.5 -22t-13.5 -38v-1049q0 -135 -40 -241t-108.5 -179.5t-159 -112t-191.5 -38.5z" />
    <glyph glyph-name="Jcircumflex" unicode="&#x134;" horiz-adv-x="698" 
d="M7 -399q-18 0 -44.5 3t-55.5 8.5t-56.5 13.5t-48.5 19l47 223h35q27 -17 60 -35.5t67.5 -33.5t68.5 -25t63 -10q23 0 38 11t21 37q6 25 9.5 60.5t6 81.5t3 102t0.5 122v1043q0 23 -13.5 39t-33.5 21l-139 36v61h645v-61l-127 -36q-20 -6 -33.5 -22t-13.5 -38v-1049
q0 -135 -40 -241t-108.5 -179.5t-159 -112t-191.5 -38.5zM27 1518l194 289q26 40 61 60t80 20t80.5 -20t61.5 -60l195 -288l-52 -35l-284 232l-285 -234z" />
    <glyph glyph-name="uni0136" unicode="&#x136;" horiz-adv-x="1408" 
d="M37 61l127 37q21 6 34 21.5t13 37.5v1064q0 23 -13.5 38.5t-33.5 21.5l-127 36v61h632v-61l-126 -36q-19 -5 -33.5 -21.5t-14.5 -38.5v-544l535 584l-130 56v61h469v-61l-137 -56q-26 -11 -49 -27.5t-48 -42.5l-368 -375l475 -640q10 -14 21.5 -27.5t23.5 -24.5t25 -19.5
t27 -12.5l104 -31v-61h-626v61l149 39l-390 532l-81 -87v-388q0 -23 14.5 -38.5t33.5 -20.5l124 -37v-61h-630v61zM628 -440q24 21 40.5 39t27 34.5t17 32t11.5 33.5q-28 16 -48 28t-32.5 25t-18 28t-5.5 36q0 16 7.5 32.5t22 29t35.5 20.5t48 8q36 0 62.5 -11t43.5 -31
t25.5 -47.5t8.5 -60.5q0 -48 -19 -85t-48 -66.5t-64 -52.5t-66 -41z" />
    <glyph glyph-name="Lacute" unicode="&#x139;" horiz-adv-x="1169" 
d="M37 61l127 37q22 6 34.5 21.5t12.5 37.5v1064q0 23 -13.5 39t-33.5 21l-127 36v61h639v-61l-133 -36q-21 -6 -34.5 -22t-13.5 -38v-1110h480q10 0 17 5.5t12.5 13.5t8.5 17t5 17l86 264h67v-428h-1134v61zM106 1524q44 64 74.5 108.5t53 77t39.5 56.5t35 48
q20 27 38.5 43.5t37 25.5t38 12t42.5 3q24 0 43.5 -7t33.5 -19t21.5 -27.5t7.5 -32.5q0 -19 -5 -35t-15 -30.5t-25.5 -28.5t-36.5 -29q-24 -17 -51 -33.5t-64 -39t-88.5 -53.5t-125.5 -77z" />
    <glyph glyph-name="Lcaron" unicode="&#x13d;" horiz-adv-x="1169" 
d="M37 61l127 37q22 6 34.5 21.5t12.5 37.5v1064q0 23 -13.5 39t-33.5 21l-127 36v61h639v-61l-133 -36q-21 -6 -34.5 -22t-13.5 -38v-1110h480q10 0 17 5.5t12.5 13.5t8.5 17t5 17l86 264h67v-428h-1134v61zM853 985q23 19 44 38.5t38.5 40.5t30 44.5t18.5 51.5
q-39 24 -64 39.5t-39.5 30.5t-20.5 32.5t-6 44.5q0 16 8 32.5t23 29t36 20.5t47 8q40 0 67.5 -12.5t44.5 -33.5t24 -49.5t7 -59.5q0 -63 -23.5 -111.5t-57 -85.5t-71 -62.5t-64.5 -42.5z" />
    <glyph glyph-name="uni013B" unicode="&#x13b;" horiz-adv-x="1169" 
d="M37 61l127 37q22 6 34.5 21.5t12.5 37.5v1064q0 23 -13.5 39t-33.5 21l-127 36v61h639v-61l-133 -36q-21 -6 -34.5 -22t-13.5 -38v-1110h480q10 0 17 5.5t12.5 13.5t8.5 17t5 17l86 264h67v-428h-1134v61zM548 -440q24 21 40.5 39t27 34.5t17 32t11.5 33.5q-28 16 -48 28
t-32.5 25t-18 28t-5.5 36q0 16 7.5 32.5t22 29t35.5 20.5t48 8q36 0 62.5 -11t43.5 -31t25.5 -47.5t8.5 -60.5q0 -48 -19 -85t-48 -66.5t-64 -52.5t-66 -41z" />
    <glyph glyph-name="Lslash" unicode="&#x141;" horiz-adv-x="1169" 
d="M37 61l127 37q22 6 34.5 21.5t12.5 37.5v436l-174 -63v126l174 63v502q0 23 -13.5 39t-33.5 21l-127 36v61h639v-61l-133 -36q-21 -6 -34.5 -22t-13.5 -38v-399l406 148v-127l-406 -147v-585h480q10 0 17 5.5t12.5 13.5t8.5 17t5 17l86 264h67v-428h-1134v61z" />
    <glyph glyph-name="Ldot" unicode="&#x13f;" horiz-adv-x="1169" 
d="M37 61l127 37q22 6 34.5 21.5t12.5 37.5v1064q0 23 -13.5 39t-33.5 21l-127 36v61h639v-61l-133 -36q-21 -6 -34.5 -22t-13.5 -38v-1110h480q10 0 17 5.5t12.5 13.5t8.5 17t5 17l86 264h67v-428h-1134v61zM973 618q-35 0 -65 12.5t-52 34t-35 51t-13 63.5q0 33 13 62
t35 50.5t52 34t65 12.5t65.5 -12.5t53.5 -34t36 -50.5t13 -62q0 -34 -13 -63.5t-36 -51t-53.5 -34t-65.5 -12.5z" />
    <glyph glyph-name="Nacute" unicode="&#x143;" horiz-adv-x="1487" 
d="M453 931l-106 154v0v-922q0 -22 12 -36.5t35 -22.5l127 -43v-61h-484v61l127 43q20 7 33.5 22.5t13.5 36.5v1054q0 23 -14 38.5t-33 20.5l-137 41v61h438l601 -864l94 -137v0v838q0 23 -12 37t-35 22l-127 43v61h485v-61l-127 -43q-21 -8 -34.5 -22.5t-13.5 -36.5v-986
l-30 -239h-158zM509 1524q44 64 74.5 108.5t53 77t39.5 56.5t35 48q20 27 38.5 43.5t37 25.5t38 12t42.5 3q24 0 43.5 -7t33.5 -19t21.5 -27.5t7.5 -32.5q0 -19 -5 -35t-15 -30.5t-25.5 -28.5t-36.5 -29q-24 -17 -51 -33.5t-64 -39t-88.5 -53.5t-125.5 -77z" />
    <glyph glyph-name="Ncaron" unicode="&#x147;" horiz-adv-x="1487" 
d="M453 931l-106 154v0v-922q0 -22 12 -36.5t35 -22.5l127 -43v-61h-484v61l127 43q20 7 33.5 22.5t13.5 36.5v1054q0 23 -14 38.5t-33 20.5l-137 41v61h438l601 -864l94 -137v0v838q0 23 -12 37t-35 22l-127 43v61h485v-61l-127 -43q-21 -8 -34.5 -22.5t-13.5 -36.5v-986
l-30 -239h-158zM760 1501q-45 0 -79 20t-62 60l-194 279l51 36l285 -224l284 222l52 -35l-195 -278q-28 -40 -62.5 -60t-79.5 -20z" />
    <glyph glyph-name="Ntilde" unicode="&#xd1;" horiz-adv-x="1487" 
d="M453 931l-106 154v0v-922q0 -22 12 -36.5t35 -22.5l127 -43v-61h-484v61l127 43q20 7 33.5 22.5t13.5 36.5v1054q0 23 -14 38.5t-33 20.5l-137 41v61h438l601 -864l94 -137v0v838q0 23 -12 37t-35 22l-127 43v61h485v-61l-127 -43q-21 -8 -34.5 -22.5t-13.5 -36.5v-986
l-30 -239h-158zM419 1545q10 60 32.5 110.5t54.5 87.5t73 57.5t88 20.5q32 0 70 -11.5t84 -36.5q48 -26 79.5 -36t48.5 -10q55 0 81 28.5t39 79.5h74q-9 -59 -30.5 -109.5t-53 -87.5t-72 -57.5t-87.5 -20.5q-17 0 -32 2t-32.5 7.5t-38.5 15t-49 25.5q-45 25 -78.5 36
t-51.5 11q-56 0 -84 -30t-41 -82h-74z" />
    <glyph glyph-name="uni0145" unicode="&#x145;" horiz-adv-x="1487" 
d="M453 931l-106 154v0v-922q0 -22 12 -36.5t35 -22.5l127 -43v-61h-484v61l127 43q20 7 33.5 22.5t13.5 36.5v1054q0 23 -14 38.5t-33 20.5l-137 41v61h438l601 -864l94 -137v0v838q0 23 -12 37t-35 22l-127 43v61h485v-61l-127 -43q-21 -8 -34.5 -22.5t-13.5 -36.5v-986
l-30 -239h-158zM665 -440q24 21 40.5 39t27 34.5t17 32t11.5 33.5q-28 16 -48 28t-32.5 25t-18 28t-5.5 36q0 16 7.5 32.5t22 29t35.5 20.5t48 8q36 0 62.5 -11t43.5 -31t25.5 -47.5t8.5 -60.5q0 -48 -19 -85t-48 -66.5t-64 -52.5t-66 -41z" />
    <glyph glyph-name="Ograve" unicode="&#xd2;" horiz-adv-x="1429" 
d="M713 -31q-161 0 -286 53.5t-210.5 149t-129.5 228t-44 290.5q0 150 45.5 281t132 228.5t211.5 153.5t283 56q172 0 298 -57.5t208.5 -155.5t123 -228.5t40.5 -277.5q0 -87 -17 -174t-52 -167t-89 -149.5t-129 -120.5t-171 -80.5t-214 -29.5zM729 76q88 0 154 45
t109.5 123.5t65 185t21.5 229.5q0 142 -22.5 260t-69.5 203t-118.5 132.5t-170.5 47.5q-94 0 -160 -48t-108 -128.5t-61 -185t-19 -217.5q0 -139 22 -257.5t68 -205t118 -135.5t171 -49zM856 1486q-74 46 -125.5 77t-88.5 53.5t-64 39t-51 33.5q-44 31 -63 58t-19 65
q0 17 7.5 32.5t21.5 27.5t33.5 19t43.5 7q22 0 41.5 -3t38.5 -12t37.5 -25.5t38.5 -43.5q18 -24 35 -48t39.5 -56.5t53 -77t74.5 -108.5z" />
    <glyph glyph-name="Oacute" unicode="&#xd3;" horiz-adv-x="1429" 
d="M713 -31q-161 0 -286 53.5t-210.5 149t-129.5 228t-44 290.5q0 150 45.5 281t132 228.5t211.5 153.5t283 56q172 0 298 -57.5t208.5 -155.5t123 -228.5t40.5 -277.5q0 -87 -17 -174t-52 -167t-89 -149.5t-129 -120.5t-171 -80.5t-214 -29.5zM729 76q88 0 154 45
t109.5 123.5t65 185t21.5 229.5q0 142 -22.5 260t-69.5 203t-118.5 132.5t-170.5 47.5q-94 0 -160 -48t-108 -128.5t-61 -185t-19 -217.5q0 -139 22 -257.5t68 -205t118 -135.5t171 -49zM515 1524q44 64 74.5 108.5t53 77t39.5 56.5t35 48q20 27 38.5 43.5t37 25.5t38 12
t42.5 3q24 0 43.5 -7t33.5 -19t21.5 -27.5t7.5 -32.5q0 -19 -5 -35t-15 -30.5t-25.5 -28.5t-36.5 -29q-24 -17 -51 -33.5t-64 -39t-88.5 -53.5t-125.5 -77z" />
    <glyph glyph-name="Ocircumflex" unicode="&#xd4;" horiz-adv-x="1429" 
d="M713 -31q-161 0 -286 53.5t-210.5 149t-129.5 228t-44 290.5q0 150 45.5 281t132 228.5t211.5 153.5t283 56q172 0 298 -57.5t208.5 -155.5t123 -228.5t40.5 -277.5q0 -87 -17 -174t-52 -167t-89 -149.5t-129 -120.5t-171 -80.5t-214 -29.5zM729 76q88 0 154 45
t109.5 123.5t65 185t21.5 229.5q0 142 -22.5 260t-69.5 203t-118.5 132.5t-170.5 47.5q-94 0 -160 -48t-108 -128.5t-61 -185t-19 -217.5q0 -139 22 -257.5t68 -205t118 -135.5t171 -49zM376 1518l194 289q26 40 61 60t80 20t80.5 -20t61.5 -60l195 -288l-52 -35l-284 232
l-285 -234z" />
    <glyph glyph-name="uni1ED0" unicode="&#x1ed0;" horiz-adv-x="1429" 
d="M713 -31q-161 0 -286 53.5t-210.5 149t-129.5 228t-44 290.5q0 150 45.5 281t132 228.5t211.5 153.5t283 56q172 0 298 -57.5t208.5 -155.5t123 -228.5t40.5 -277.5q0 -87 -17 -174t-52 -167t-89 -149.5t-129 -120.5t-171 -80.5t-214 -29.5zM729 76q88 0 154 45
t109.5 123.5t65 185t21.5 229.5q0 142 -22.5 260t-69.5 203t-118.5 132.5t-170.5 47.5q-94 0 -160 -48t-108 -128.5t-61 -185t-19 -217.5q0 -139 22 -257.5t68 -205t118 -135.5t171 -49zM963 1770l88 231q11 29 24 48.5t29.5 31t36.5 16.5t45 5q21 0 39 -6t31.5 -18
t21.5 -29.5t8 -40.5t-14.5 -49t-50.5 -55l-206 -168zM376 1519l194 289q26 40 61 60t80 20t80.5 -20t61.5 -60l195 -288l-52 -35l-284 232l-285 -234z" />
    <glyph glyph-name="uni1ED2" unicode="&#x1ed2;" horiz-adv-x="1429" 
d="M713 -31q-161 0 -286 53.5t-210.5 149t-129.5 228t-44 290.5q0 150 45.5 281t132 228.5t211.5 153.5t283 56q172 0 298 -57.5t208.5 -155.5t123 -228.5t40.5 -277.5q0 -87 -17 -174t-52 -167t-89 -149.5t-129 -120.5t-171 -80.5t-214 -29.5zM729 76q88 0 154 45
t109.5 123.5t65 185t21.5 229.5q0 142 -22.5 260t-69.5 203t-118.5 132.5t-170.5 47.5q-94 0 -160 -48t-108 -128.5t-61 -185t-19 -217.5q0 -139 22 -257.5t68 -205t118 -135.5t171 -49zM408 1736l-206 168q-36 29 -50.5 55t-14.5 49t8 40.5t21.5 29.5t31.5 18t39 6
q25 0 45 -5t36.5 -16.5t29.5 -31t24 -48.5l88 -231zM376 1519l194 289q26 40 61 60t80 20t80.5 -20t61.5 -60l195 -288l-52 -35l-284 232l-285 -234z" />
    <glyph glyph-name="uni1ED4" unicode="&#x1ed4;" horiz-adv-x="1429" 
d="M713 -31q-161 0 -286 53.5t-210.5 149t-129.5 228t-44 290.5q0 150 45.5 281t132 228.5t211.5 153.5t283 56q172 0 298 -57.5t208.5 -155.5t123 -228.5t40.5 -277.5q0 -87 -17 -174t-52 -167t-89 -149.5t-129 -120.5t-171 -80.5t-214 -29.5zM729 76q88 0 154 45
t109.5 123.5t65 185t21.5 229.5q0 142 -22.5 260t-69.5 203t-118.5 132.5t-170.5 47.5q-94 0 -160 -48t-108 -128.5t-61 -185t-19 -217.5q0 -139 22 -257.5t68 -205t118 -135.5t171 -49zM375 1519l194 289q26 40 61 60t80 20t80.5 -20t61.5 -60l195 -288l-52 -35l-284 232
l-285 -234zM1067 2036q36 0 67.5 -6.5t55 -20.5t37 -35t13.5 -49q0 -35 -17 -57.5t-37.5 -42.5t-37.5 -42.5t-17 -57.5v-22h-122v27q0 26 6.5 43t16.5 29t21 21.5t21 20t16.5 24t6.5 34.5t-13.5 35.5t-40.5 14.5q-29 0 -46.5 -15t-31.5 -31h-43v96q8 4 21.5 10t32 11t41.5 9
t50 4z" />
    <glyph glyph-name="uni1ED6" unicode="&#x1ed6;" horiz-adv-x="1429" 
d="M713 -31q-161 0 -286 53.5t-210.5 149t-129.5 228t-44 290.5q0 150 45.5 281t132 228.5t211.5 153.5t283 56q172 0 298 -57.5t208.5 -155.5t123 -228.5t40.5 -277.5q0 -87 -17 -174t-52 -167t-89 -149.5t-129 -120.5t-171 -80.5t-214 -29.5zM729 76q88 0 154 45
t109.5 123.5t65 185t21.5 229.5q0 142 -22.5 260t-69.5 203t-118.5 132.5t-170.5 47.5q-94 0 -160 -48t-108 -128.5t-61 -185t-19 -217.5q0 -139 22 -257.5t68 -205t118 -135.5t171 -49zM376 1519l194 277q26 38 61 57.5t80 19.5t80.5 -19.5t61.5 -57.5l195 -276l-52 -35
l-284 217l-285 -219zM350 1888q10 60 32.5 110.5t54.5 87.5t73 57.5t88 20.5q32 0 70 -11.5t84 -36.5q48 -26 79.5 -36t48.5 -10q55 0 81 28.5t39 79.5h74q-9 -59 -30.5 -109.5t-53 -87.5t-72 -57.5t-87.5 -20.5q-17 0 -32 2t-32.5 7.5t-38.5 15t-49 25.5q-45 25 -78.5 36
t-51.5 11q-56 0 -84 -30t-41 -82h-74z" />
    <glyph glyph-name="Otilde" unicode="&#xd5;" horiz-adv-x="1429" 
d="M713 -31q-161 0 -286 53.5t-210.5 149t-129.5 228t-44 290.5q0 150 45.5 281t132 228.5t211.5 153.5t283 56q172 0 298 -57.5t208.5 -155.5t123 -228.5t40.5 -277.5q0 -87 -17 -174t-52 -167t-89 -149.5t-129 -120.5t-171 -80.5t-214 -29.5zM729 76q88 0 154 45
t109.5 123.5t65 185t21.5 229.5q0 142 -22.5 260t-69.5 203t-118.5 132.5t-170.5 47.5q-94 0 -160 -48t-108 -128.5t-61 -185t-19 -217.5q0 -139 22 -257.5t68 -205t118 -135.5t171 -49zM351 1545q10 60 32.5 110.5t54.5 87.5t73 57.5t88 20.5q32 0 70 -11.5t84 -36.5
q48 -26 79.5 -36t48.5 -10q55 0 81 28.5t39 79.5h74q-9 -59 -30.5 -109.5t-53 -87.5t-72 -57.5t-87.5 -20.5q-17 0 -32 2t-32.5 7.5t-38.5 15t-49 25.5q-45 25 -78.5 36t-51.5 11q-56 0 -84 -30t-41 -82h-74z" />
    <glyph glyph-name="Odieresis" unicode="&#xd6;" horiz-adv-x="1429" 
d="M713 -31q-161 0 -286 53.5t-210.5 149t-129.5 228t-44 290.5q0 150 45.5 281t132 228.5t211.5 153.5t283 56q172 0 298 -57.5t208.5 -155.5t123 -228.5t40.5 -277.5q0 -87 -17 -174t-52 -167t-89 -149.5t-129 -120.5t-171 -80.5t-214 -29.5zM729 76q88 0 154 45
t109.5 123.5t65 185t21.5 229.5q0 142 -22.5 260t-69.5 203t-118.5 132.5t-170.5 47.5q-94 0 -160 -48t-108 -128.5t-61 -185t-19 -217.5q0 -139 22 -257.5t68 -205t118 -135.5t171 -49zM933 1534q-28 0 -52 10.5t-42 28.5t-28.5 42.5t-10.5 52.5t10.5 52.5t28.5 42.5
t42 28.5t52 10.5t53 -10.5t44 -28.5t29.5 -42.5t10.5 -52.5t-10.5 -52.5t-29.5 -42.5t-44 -28.5t-53 -10.5zM485 1534q-28 0 -52 10.5t-42 28.5t-28.5 42.5t-10.5 52.5t10.5 52.5t28.5 42.5t42 28.5t52 10.5t53 -10.5t44 -28.5t29.5 -42.5t10.5 -52.5t-10.5 -52.5
t-29.5 -42.5t-44 -28.5t-53 -10.5z" />
    <glyph glyph-name="Omacron" unicode="&#x14c;" horiz-adv-x="1429" 
d="M713 -31q-161 0 -286 53.5t-210.5 149t-129.5 228t-44 290.5q0 150 45.5 281t132 228.5t211.5 153.5t283 56q172 0 298 -57.5t208.5 -155.5t123 -228.5t40.5 -277.5q0 -87 -17 -174t-52 -167t-89 -149.5t-129 -120.5t-171 -80.5t-214 -29.5zM729 76q88 0 154 45
t109.5 123.5t65 185t21.5 229.5q0 142 -22.5 260t-69.5 203t-118.5 132.5t-170.5 47.5q-94 0 -160 -48t-108 -128.5t-61 -185t-19 -217.5q0 -139 22 -257.5t68 -205t118 -135.5t171 -49zM390 1728h644v-148h-644v148z" />
    <glyph glyph-name="Obreve" unicode="&#x14e;" horiz-adv-x="1429" 
d="M713 -31q-161 0 -286 53.5t-210.5 149t-129.5 228t-44 290.5q0 150 45.5 281t132 228.5t211.5 153.5t283 56q172 0 298 -57.5t208.5 -155.5t123 -228.5t40.5 -277.5q0 -87 -17 -174t-52 -167t-89 -149.5t-129 -120.5t-171 -80.5t-214 -29.5zM729 76q88 0 154 45
t109.5 123.5t65 185t21.5 229.5q0 142 -22.5 260t-69.5 203t-118.5 132.5t-170.5 47.5q-94 0 -160 -48t-108 -128.5t-61 -185t-19 -217.5q0 -139 22 -257.5t68 -205t118 -135.5t171 -49zM711 1512q-55 0 -106.5 16.5t-94.5 56t-73.5 104.5t-43.5 163l86 17q16 -55 34 -91.5
t44.5 -59t63.5 -32t90 -9.5q51 0 87.5 9t63.5 31t46 59t36 93l86 -17q-15 -98 -45 -163.5t-72 -104.5t-93.5 -55.5t-108.5 -16.5z" />
    <glyph glyph-name="Ohungarumlaut" unicode="&#x150;" horiz-adv-x="1429" 
d="M713 -31q-161 0 -286 53.5t-210.5 149t-129.5 228t-44 290.5q0 150 45.5 281t132 228.5t211.5 153.5t283 56q172 0 298 -57.5t208.5 -155.5t123 -228.5t40.5 -277.5q0 -87 -17 -174t-52 -167t-89 -149.5t-129 -120.5t-171 -80.5t-214 -29.5zM729 76q88 0 154 45
t109.5 123.5t65 185t21.5 229.5q0 142 -22.5 260t-69.5 203t-118.5 132.5t-170.5 47.5q-94 0 -160 -48t-108 -128.5t-61 -185t-19 -217.5q0 -139 22 -257.5t68 -205t118 -135.5t171 -49zM486 1524l155 298q17 29 32.5 47t31.5 28t33 13.5t37 3.5q21 0 38 -7.5t29.5 -20
t19 -29t6.5 -34.5q0 -21 -4 -36.5t-12.5 -29t-22.5 -27.5t-34 -31l-256 -213zM849 1524l155 298q17 29 32.5 47t31.5 28t33 13.5t37 3.5q42 0 67.5 -27t25.5 -64q0 -21 -4 -36.5t-12.5 -29t-22.5 -27.5t-34 -31l-256 -213z" />
    <glyph glyph-name="uni1ECE" unicode="&#x1ece;" horiz-adv-x="1429" 
d="M713 -31q-161 0 -286 53.5t-210.5 149t-129.5 228t-44 290.5q0 150 45.5 281t132 228.5t211.5 153.5t283 56q172 0 298 -57.5t208.5 -155.5t123 -228.5t40.5 -277.5q0 -87 -17 -174t-52 -167t-89 -149.5t-129 -120.5t-171 -80.5t-214 -29.5zM729 76q88 0 154 45
t109.5 123.5t65 185t21.5 229.5q0 142 -22.5 260t-69.5 203t-118.5 132.5t-170.5 47.5q-94 0 -160 -48t-108 -128.5t-61 -185t-19 -217.5q0 -139 22 -257.5t68 -205t118 -135.5t171 -49zM706 1970q49 0 92 -9.5t74.5 -29.5t49.5 -50t18 -71q0 -34 -11.5 -59t-28.5 -46
t-36.5 -40t-36.5 -39.5t-28.5 -46t-11.5 -58.5v-31h-151v39q0 37 10 63.5t25 47t32 38t32 35.5t25 40t10 52q0 31 -21 51.5t-66 20.5q-23 0 -41.5 -6t-33.5 -15t-27.5 -21t-24.5 -24h-47v109q12 6 30.5 14.5t43 16.5t55.5 13.5t68 5.5z" />
    <glyph glyph-name="uni1ECC" unicode="&#x1ecc;" horiz-adv-x="1429" 
d="M713 -31q-161 0 -286 53.5t-210.5 149t-129.5 228t-44 290.5q0 150 45.5 281t132 228.5t211.5 153.5t283 56q172 0 298 -57.5t208.5 -155.5t123 -228.5t40.5 -277.5q0 -87 -17 -174t-52 -167t-89 -149.5t-129 -120.5t-171 -80.5t-214 -29.5zM729 76q88 0 154 45
t109.5 123.5t65 185t21.5 229.5q0 142 -22.5 260t-69.5 203t-118.5 132.5t-170.5 47.5q-94 0 -160 -48t-108 -128.5t-61 -185t-19 -217.5q0 -139 22 -257.5t68 -205t118 -135.5t171 -49zM711 -449q-35 0 -65 12.5t-52 34t-35 51t-13 63.5q0 33 13 62t35 50.5t52 34t65 12.5
t65.5 -12.5t53.5 -34t36 -50.5t13 -62q0 -34 -13 -63.5t-36 -51t-53.5 -34t-65.5 -12.5z" />
    <glyph glyph-name="uni1ED8" unicode="&#x1ed8;" horiz-adv-x="1429" 
d="M713 -31q-161 0 -286 53.5t-210.5 149t-129.5 228t-44 290.5q0 150 45.5 281t132 228.5t211.5 153.5t283 56q172 0 298 -57.5t208.5 -155.5t123 -228.5t40.5 -277.5q0 -87 -17 -174t-52 -167t-89 -149.5t-129 -120.5t-171 -80.5t-214 -29.5zM729 76q88 0 154 45
t109.5 123.5t65 185t21.5 229.5q0 142 -22.5 260t-69.5 203t-118.5 132.5t-170.5 47.5q-94 0 -160 -48t-108 -128.5t-61 -185t-19 -217.5q0 -139 22 -257.5t68 -205t118 -135.5t171 -49zM376 1518l194 289q26 40 61 60t80 20t80.5 -20t61.5 -60l195 -288l-52 -35l-284 232
l-285 -234zM711 -449q-35 0 -65 12.5t-52 34t-35 51t-13 63.5q0 33 13 62t35 50.5t52 34t65 12.5t65.5 -12.5t53.5 -34t36 -50.5t13 -62q0 -34 -13 -63.5t-36 -51t-53.5 -34t-65.5 -12.5z" />
    <glyph glyph-name="Ohorn" unicode="&#x1a0;" horiz-adv-x="1748" 
d="M1461 1378h222q19 -34 27 -67.5t8 -61.5q0 -49 -16.5 -87t-45 -66t-66.5 -48t-80 -33.5t-86 -21t-85 -11.5q23 -68 34.5 -141t11.5 -151q0 -87 -17 -174t-52 -167t-89 -149.5t-129 -120.5t-171 -80.5t-214 -29.5q-161 0 -286 53.5t-210.5 149t-129.5 228t-44 290.5
q0 150 45.5 281t132 228.5t211.5 153.5t283 56q111 0 202.5 -24.5t164.5 -69t128 -107t93 -138.5q34 5 67 15.5t59 30.5t42 52.5t16 81.5q0 24 -7 47t-19 47v34zM729 76q88 0 154 45t109.5 123.5t65 185t21.5 229.5q0 142 -22.5 260t-69.5 203t-118.5 132.5t-170.5 47.5
q-94 0 -160 -48t-108 -128.5t-61 -185t-19 -217.5q0 -139 22 -257.5t68 -205t118 -135.5t171 -49z" />
    <glyph glyph-name="uni1EDA" unicode="&#x1eda;" horiz-adv-x="1736" 
d="M1461 1378h222q19 -34 27 -67.5t8 -61.5q0 -49 -16.5 -87t-45 -66t-66.5 -48t-80 -33.5t-86 -21t-85 -11.5q23 -68 34.5 -141t11.5 -151q0 -87 -17 -174t-52 -167t-89 -149.5t-129 -120.5t-171 -80.5t-214 -29.5q-161 0 -286 53.5t-210.5 149t-129.5 228t-44 290.5
q0 150 45.5 281t132 228.5t211.5 153.5t283 56q111 0 202.5 -24.5t164.5 -69t128 -107t93 -138.5q34 5 67 15.5t59 30.5t42 52.5t16 81.5q0 24 -7 47t-19 47v34zM729 76q88 0 154 45t109.5 123.5t65 185t21.5 229.5q0 142 -22.5 260t-69.5 203t-118.5 132.5t-170.5 47.5
q-94 0 -160 -48t-108 -128.5t-61 -185t-19 -217.5q0 -139 22 -257.5t68 -205t118 -135.5t171 -49zM458 1524q44 64 74.5 108.5t53 77t39.5 56.5t35 48q20 27 38.5 43.5t37 25.5t38 12t42.5 3q24 0 43.5 -7t33.5 -19t21.5 -27.5t7.5 -32.5q0 -19 -5 -35t-15 -30.5
t-25.5 -28.5t-36.5 -29q-24 -17 -51 -33.5t-64 -39t-88.5 -53.5t-125.5 -77z" />
    <glyph glyph-name="uni1EDC" unicode="&#x1edc;" horiz-adv-x="1736" 
d="M1461 1378h222q19 -34 27 -67.5t8 -61.5q0 -49 -16.5 -87t-45 -66t-66.5 -48t-80 -33.5t-86 -21t-85 -11.5q23 -68 34.5 -141t11.5 -151q0 -87 -17 -174t-52 -167t-89 -149.5t-129 -120.5t-171 -80.5t-214 -29.5q-161 0 -286 53.5t-210.5 149t-129.5 228t-44 290.5
q0 150 45.5 281t132 228.5t211.5 153.5t283 56q111 0 202.5 -24.5t164.5 -69t128 -107t93 -138.5q34 5 67 15.5t59 30.5t42 52.5t16 81.5q0 24 -7 47t-19 47v34zM729 76q88 0 154 45t109.5 123.5t65 185t21.5 229.5q0 142 -22.5 260t-69.5 203t-118.5 132.5t-170.5 47.5
q-94 0 -160 -48t-108 -128.5t-61 -185t-19 -217.5q0 -139 22 -257.5t68 -205t118 -135.5t171 -49zM905 1486q-74 46 -125.5 77t-88.5 53.5t-64 39t-51 33.5q-44 31 -63 58t-19 65q0 17 7.5 32.5t21.5 27.5t33.5 19t43.5 7q22 0 41.5 -3t38.5 -12t37.5 -25.5t38.5 -43.5
q18 -24 35 -48t39.5 -56.5t53 -77t74.5 -108.5z" />
    <glyph glyph-name="uni1EDE" unicode="&#x1ede;" horiz-adv-x="1736" 
d="M1461 1378h222q19 -34 27 -67.5t8 -61.5q0 -49 -16.5 -87t-45 -66t-66.5 -48t-80 -33.5t-86 -21t-85 -11.5q23 -68 34.5 -141t11.5 -151q0 -87 -17 -174t-52 -167t-89 -149.5t-129 -120.5t-171 -80.5t-214 -29.5q-161 0 -286 53.5t-210.5 149t-129.5 228t-44 290.5
q0 150 45.5 281t132 228.5t211.5 153.5t283 56q111 0 202.5 -24.5t164.5 -69t128 -107t93 -138.5q34 5 67 15.5t59 30.5t42 52.5t16 81.5q0 24 -7 47t-19 47v34zM729 76q88 0 154 45t109.5 123.5t65 185t21.5 229.5q0 142 -22.5 260t-69.5 203t-118.5 132.5t-170.5 47.5
q-94 0 -160 -48t-108 -128.5t-61 -185t-19 -217.5q0 -139 22 -257.5t68 -205t118 -135.5t171 -49zM702 1970q49 0 92 -9.5t74.5 -29.5t49.5 -50t18 -71q0 -34 -11.5 -59t-28.5 -46t-36.5 -40t-36.5 -39.5t-28.5 -46t-11.5 -58.5v-31h-151v39q0 37 10 63.5t25 47t32 38
t32 35.5t25 40t10 52q0 31 -21 51.5t-66 20.5q-23 0 -41.5 -6t-33.5 -15t-27.5 -21t-24.5 -24h-47v109q12 6 30.5 14.5t43 16.5t55.5 13.5t68 5.5z" />
    <glyph glyph-name="uni1EE0" unicode="&#x1ee0;" horiz-adv-x="1736" 
d="M1461 1378h222q19 -34 27 -67.5t8 -61.5q0 -49 -16.5 -87t-45 -66t-66.5 -48t-80 -33.5t-86 -21t-85 -11.5q23 -68 34.5 -141t11.5 -151q0 -87 -17 -174t-52 -167t-89 -149.5t-129 -120.5t-171 -80.5t-214 -29.5q-161 0 -286 53.5t-210.5 149t-129.5 228t-44 290.5
q0 150 45.5 281t132 228.5t211.5 153.5t283 56q111 0 202.5 -24.5t164.5 -69t128 -107t93 -138.5q34 5 67 15.5t59 30.5t42 52.5t16 81.5q0 24 -7 47t-19 47v34zM729 76q88 0 154 45t109.5 123.5t65 185t21.5 229.5q0 142 -22.5 260t-69.5 203t-118.5 132.5t-170.5 47.5
q-94 0 -160 -48t-108 -128.5t-61 -185t-19 -217.5q0 -139 22 -257.5t68 -205t118 -135.5t171 -49zM345 1545q10 60 32.5 110.5t54.5 87.5t73 57.5t88 20.5q32 0 70 -11.5t84 -36.5q48 -26 79.5 -36t48.5 -10q55 0 81 28.5t39 79.5h74q-9 -59 -30.5 -109.5t-53 -87.5
t-72 -57.5t-87.5 -20.5q-17 0 -32 2t-32.5 7.5t-38.5 15t-49 25.5q-45 25 -78.5 36t-51.5 11q-56 0 -84 -30t-41 -82h-74z" />
    <glyph glyph-name="uni1EE2" unicode="&#x1ee2;" horiz-adv-x="1736" 
d="M1461 1378h222q19 -34 27 -67.5t8 -61.5q0 -49 -16.5 -87t-45 -66t-66.5 -48t-80 -33.5t-86 -21t-85 -11.5q23 -68 34.5 -141t11.5 -151q0 -87 -17 -174t-52 -167t-89 -149.5t-129 -120.5t-171 -80.5t-214 -29.5q-161 0 -286 53.5t-210.5 149t-129.5 228t-44 290.5
q0 150 45.5 281t132 228.5t211.5 153.5t283 56q111 0 202.5 -24.5t164.5 -69t128 -107t93 -138.5q34 5 67 15.5t59 30.5t42 52.5t16 81.5q0 24 -7 47t-19 47v34zM729 76q88 0 154 45t109.5 123.5t65 185t21.5 229.5q0 142 -22.5 260t-69.5 203t-118.5 132.5t-170.5 47.5
q-94 0 -160 -48t-108 -128.5t-61 -185t-19 -217.5q0 -139 22 -257.5t68 -205t118 -135.5t171 -49zM711 -449q-35 0 -65 12.5t-52 34t-35 51t-13 63.5q0 33 13 62t35 50.5t52 34t65 12.5t65.5 -12.5t53.5 -34t36 -50.5t13 -62q0 -34 -13 -63.5t-36 -51t-53.5 -34t-65.5 -12.5
z" />
    <glyph glyph-name="Oslash" unicode="&#xd8;" horiz-adv-x="1429" 
d="M295 104q-123 97 -187.5 247.5t-64.5 338.5q0 150 45.5 281t132 228.5t211.5 153.5t283 56q102 0 186 -21t154 -60l80 128h110l-112 -180q63 -50 110 -114.5t78.5 -140t47.5 -159.5t16 -172q0 -87 -17 -174t-52 -167t-89 -149.5t-129 -120.5t-171 -80.5t-214 -29.5
q-100 0 -184.5 21t-156.5 63l-99 -160h-110zM959 1173q-48 63 -112 96t-149 33q-95 0 -162 -48t-110 -128.5t-63 -185t-20 -217.5q0 -126 17.5 -235t54.5 -194zM729 76q88 0 155 45t111.5 123.5t67 185t22.5 229.5q0 128 -17 236t-55 192l-545 -880q48 -63 112 -97t149 -34z
" />
    <glyph glyph-name="Oslashacute" unicode="&#x1fe;" horiz-adv-x="1429" 
d="M295 104q-123 97 -187.5 247.5t-64.5 338.5q0 150 45.5 281t132 228.5t211.5 153.5t283 56q102 0 186 -21t154 -60l80 128h110l-112 -180q63 -50 110 -114.5t78.5 -140t47.5 -159.5t16 -172q0 -87 -17 -174t-52 -167t-89 -149.5t-129 -120.5t-171 -80.5t-214 -29.5
q-100 0 -184.5 21t-156.5 63l-99 -160h-110zM959 1173q-48 63 -112 96t-149 33q-95 0 -162 -48t-110 -128.5t-63 -185t-20 -217.5q0 -126 17.5 -235t54.5 -194zM729 76q88 0 155 45t111.5 123.5t67 185t22.5 229.5q0 128 -17 236t-55 192l-545 -880q48 -63 112 -97t149 -34z
M459 1524q44 64 74.5 108.5t53 77t39.5 56.5t35 48q20 27 38.5 43.5t37 25.5t38 12t42.5 3q24 0 43.5 -7t33.5 -19t21.5 -27.5t7.5 -32.5q0 -19 -5 -35t-15 -30.5t-25.5 -28.5t-36.5 -29q-24 -17 -51 -33.5t-64 -39t-88.5 -53.5t-125.5 -77z" />
    <glyph glyph-name="OE" unicode="&#x152;" horiz-adv-x="2004" 
d="M745 0q-70 0 -149 13t-157 43.5t-149.5 81.5t-126.5 128t-87.5 182t-32.5 243q0 176 55.5 305.5t151.5 214t224.5 126t274.5 41.5h1118v-358h-70l-81 213q-6 15 -14.5 25t-26.5 10h-458v-495h292q20 0 29 9t14 23l67 164h63v-503h-63l-67 162q-6 15 -14.5 25t-28.5 10
h-292v-552h544q18 0 27 9.5t14 25.5l77 241h70v-387h-1204zM933 108v1161h-191q-100 0 -173.5 -36.5t-122 -106.5t-72.5 -171.5t-24 -231.5q0 -142 32 -256t90 -193.5t139.5 -122.5t180.5 -43h141z" />
    <glyph glyph-name="Racute" unicode="&#x154;" horiz-adv-x="1354" 
d="M37 61l127 37q20 6 33.5 21.5t13.5 37.5v1064q0 23 -14 39t-33 21l-127 36v61h602q108 0 190 -14t141.5 -38.5t98.5 -57t62 -70.5t32.5 -79.5t9.5 -82.5q0 -85 -30 -147t-74.5 -105.5t-96.5 -70.5t-95 -41l334 -494q8 -12 20.5 -25t27 -24.5t29.5 -20.5t28 -12l129 -35
v-61h-320q-45 0 -75 6.5t-52.5 21t-41 38.5t-40.5 59l-289 455l-132 36v-459q0 -23 11.5 -38.5t31.5 -20.5l148 -37v-61h-649v61zM628 703q61 0 106 24.5t75 65t44.5 92.5t14.5 106q0 146 -67 212.5t-189 66.5h-117v-557q9 -2 26.5 -3.5t37.5 -3t39 -2.5t30 -1zM355 1524
q44 64 74.5 108.5t53 77t39.5 56.5t35 48q20 27 38.5 43.5t37 25.5t38 12t42.5 3q24 0 43.5 -7t33.5 -19t21.5 -27.5t7.5 -32.5q0 -19 -5 -35t-15 -30.5t-25.5 -28.5t-36.5 -29q-24 -17 -51 -33.5t-64 -39t-88.5 -53.5t-125.5 -77z" />
    <glyph glyph-name="Rcaron" unicode="&#x158;" horiz-adv-x="1354" 
d="M37 61l127 37q20 6 33.5 21.5t13.5 37.5v1064q0 23 -14 39t-33 21l-127 36v61h602q108 0 190 -14t141.5 -38.5t98.5 -57t62 -70.5t32.5 -79.5t9.5 -82.5q0 -85 -30 -147t-74.5 -105.5t-96.5 -70.5t-95 -41l334 -494q8 -12 20.5 -25t27 -24.5t29.5 -20.5t28 -12l129 -35
v-61h-320q-45 0 -75 6.5t-52.5 21t-41 38.5t-40.5 59l-289 455l-132 36v-459q0 -23 11.5 -38.5t31.5 -20.5l148 -37v-61h-649v61zM628 703q61 0 106 24.5t75 65t44.5 92.5t14.5 106q0 146 -67 212.5t-189 66.5h-117v-557q9 -2 26.5 -3.5t37.5 -3t39 -2.5t30 -1zM606 1501
q-45 0 -79 20t-62 60l-194 279l51 36l285 -224l284 222l52 -35l-195 -278q-28 -40 -62.5 -60t-79.5 -20z" />
    <glyph glyph-name="uni0156" unicode="&#x156;" horiz-adv-x="1354" 
d="M37 61l127 37q20 6 33.5 21.5t13.5 37.5v1064q0 23 -14 39t-33 21l-127 36v61h602q108 0 190 -14t141.5 -38.5t98.5 -57t62 -70.5t32.5 -79.5t9.5 -82.5q0 -85 -30 -147t-74.5 -105.5t-96.5 -70.5t-95 -41l334 -494q8 -12 20.5 -25t27 -24.5t29.5 -20.5t28 -12l129 -35
v-61h-320q-45 0 -75 6.5t-52.5 21t-41 38.5t-40.5 59l-289 455l-132 36v-459q0 -23 11.5 -38.5t31.5 -20.5l148 -37v-61h-649v61zM628 703q61 0 106 24.5t75 65t44.5 92.5t14.5 106q0 146 -67 212.5t-189 66.5h-117v-557q9 -2 26.5 -3.5t37.5 -3t39 -2.5t30 -1zM678 -440
q24 21 40.5 39t27 34.5t17 32t11.5 33.5q-28 16 -48 28t-32.5 25t-18 28t-5.5 36q0 16 7.5 32.5t22 29t35.5 20.5t48 8q36 0 62.5 -11t43.5 -31t25.5 -47.5t8.5 -60.5q0 -48 -19 -85t-48 -66.5t-64 -52.5t-66 -41z" />
    <glyph glyph-name="Sacute" unicode="&#x15a;" horiz-adv-x="1159" 
d="M537 -31q-60 0 -119 7t-115.5 19t-111.5 27.5t-108 32.5l-24 390h67l89 -199q3 -6 8.5 -13.5t12 -15t13 -13.5t11.5 -9q36 -24 80.5 -42.5t89.5 -31.5t85.5 -20t69.5 -7q57 0 102 18.5t76.5 50t48.5 73.5t17 89q0 39 -10.5 70.5t-32.5 57.5t-54.5 47t-77.5 39
q-38 15 -75.5 26t-75 21.5t-74.5 22t-74 26.5q-61 25 -108 63t-78.5 85.5t-48 102.5t-16.5 115q0 57 17.5 109.5t49.5 97.5t76.5 82.5t99.5 63.5t118.5 40.5t132.5 14.5q61 0 120.5 -5t114.5 -14t104.5 -21t91.5 -26v-360h-67l-79 185q-6 14 -19 26.5t-24 20.5
q-24 18 -58.5 31t-71 21.5t-71 12.5t-57.5 4q-50 0 -90.5 -16t-68.5 -43t-43 -61.5t-15 -70.5q0 -39 9 -73t30 -62.5t54.5 -51t83.5 -40.5q36 -13 71.5 -23.5t71.5 -21t73.5 -23t78.5 -29.5q49 -20 96.5 -52.5t84.5 -78t60 -105t23 -132.5q0 -79 -32 -156.5t-100.5 -138.5
t-175.5 -99t-256 -38zM327 1524q44 64 74.5 108.5t53 77t39.5 56.5t35 48q20 27 38.5 43.5t37 25.5t38 12t42.5 3q24 0 43.5 -7t33.5 -19t21.5 -27.5t7.5 -32.5q0 -19 -5 -35t-15 -30.5t-25.5 -28.5t-36.5 -29q-24 -17 -51 -33.5t-64 -39t-88.5 -53.5t-125.5 -77z" />
    <glyph glyph-name="Scircumflex" unicode="&#x15c;" horiz-adv-x="1159" 
d="M537 -31q-60 0 -119 7t-115.5 19t-111.5 27.5t-108 32.5l-24 390h67l89 -199q3 -6 8.5 -13.5t12 -15t13 -13.5t11.5 -9q36 -24 80.5 -42.5t89.5 -31.5t85.5 -20t69.5 -7q57 0 102 18.5t76.5 50t48.5 73.5t17 89q0 39 -10.5 70.5t-32.5 57.5t-54.5 47t-77.5 39
q-38 15 -75.5 26t-75 21.5t-74.5 22t-74 26.5q-61 25 -108 63t-78.5 85.5t-48 102.5t-16.5 115q0 57 17.5 109.5t49.5 97.5t76.5 82.5t99.5 63.5t118.5 40.5t132.5 14.5q61 0 120.5 -5t114.5 -14t104.5 -21t91.5 -26v-360h-67l-79 185q-6 14 -19 26.5t-24 20.5
q-24 18 -58.5 31t-71 21.5t-71 12.5t-57.5 4q-50 0 -90.5 -16t-68.5 -43t-43 -61.5t-15 -70.5q0 -39 9 -73t30 -62.5t54.5 -51t83.5 -40.5q36 -13 71.5 -23.5t71.5 -21t73.5 -23t78.5 -29.5q49 -20 96.5 -52.5t84.5 -78t60 -105t23 -132.5q0 -79 -32 -156.5t-100.5 -138.5
t-175.5 -99t-256 -38zM242 1518l194 289q26 40 61 60t80 20t80.5 -20t61.5 -60l195 -288l-52 -35l-284 232l-285 -234z" />
    <glyph glyph-name="Scaron" unicode="&#x160;" horiz-adv-x="1159" 
d="M537 -31q-60 0 -119 7t-115.5 19t-111.5 27.5t-108 32.5l-24 390h67l89 -199q3 -6 8.5 -13.5t12 -15t13 -13.5t11.5 -9q36 -24 80.5 -42.5t89.5 -31.5t85.5 -20t69.5 -7q57 0 102 18.5t76.5 50t48.5 73.5t17 89q0 39 -10.5 70.5t-32.5 57.5t-54.5 47t-77.5 39
q-38 15 -75.5 26t-75 21.5t-74.5 22t-74 26.5q-61 25 -108 63t-78.5 85.5t-48 102.5t-16.5 115q0 57 17.5 109.5t49.5 97.5t76.5 82.5t99.5 63.5t118.5 40.5t132.5 14.5q61 0 120.5 -5t114.5 -14t104.5 -21t91.5 -26v-360h-67l-79 185q-6 14 -19 26.5t-24 20.5
q-24 18 -58.5 31t-71 21.5t-71 12.5t-57.5 4q-50 0 -90.5 -16t-68.5 -43t-43 -61.5t-15 -70.5q0 -39 9 -73t30 -62.5t54.5 -51t83.5 -40.5q36 -13 71.5 -23.5t71.5 -21t73.5 -23t78.5 -29.5q49 -20 96.5 -52.5t84.5 -78t60 -105t23 -132.5q0 -79 -32 -156.5t-100.5 -138.5
t-175.5 -99t-256 -38zM602 1501q-45 0 -79 20t-62 60l-194 279l51 36l285 -224l284 222l52 -35l-195 -278q-28 -40 -62.5 -60t-79.5 -20z" />
    <glyph glyph-name="Scedilla" unicode="&#x15e;" horiz-adv-x="1159" 
d="M552 -446q-51 0 -98.5 16t-89.5 39v91h23q12 -8 29 -17.5t37.5 -17.5t43 -13.5t46.5 -5.5q45 0 69.5 24t24.5 60q0 44 -33.5 58.5t-108.5 14.5v167q-110 5 -212.5 29.5t-199.5 55.5l-24 390h67l89 -199q6 -12 20.5 -28.5t24.5 -22.5q36 -24 80.5 -42.5t89.5 -31.5
t85.5 -20t69.5 -7q57 0 102 18.5t76.5 50t48.5 73.5t17 89q0 78 -42.5 128t-132.5 86q-38 15 -75.5 26t-75 21.5t-74.5 22t-74 26.5q-61 25 -108 63t-78.5 85.5t-48 102.5t-16.5 115q0 85 38.5 159.5t105 130t156.5 87t194 31.5q123 0 234.5 -19t196.5 -47v-360h-67l-79 185
q-6 14 -19 26.5t-24 20.5q-24 18 -58.5 31t-71 21.5t-71 12.5t-57.5 4q-50 0 -90.5 -16t-68.5 -43t-43 -61.5t-15 -70.5q0 -40 9 -73.5t30 -61.5t54.5 -51t83.5 -41q36 -13 71.5 -23.5t71.5 -21t73.5 -23t78.5 -29.5q49 -20 96.5 -52.5t84.5 -78t60 -105t23 -132.5
q0 -76 -29.5 -150t-92 -134.5t-159.5 -100t-233 -46.5v-62q40 0 77.5 -7.5t66.5 -25.5t46.5 -47.5t17.5 -72.5q0 -48 -17.5 -85.5t-50 -63t-77 -39t-98.5 -13.5z" />
    <glyph glyph-name="uni0218" unicode="&#x218;" horiz-adv-x="1159" 
d="M537 -31q-60 0 -119 7t-115.5 19t-111.5 27.5t-108 32.5l-24 390h67l89 -199q3 -6 8.5 -13.5t12 -15t13 -13.5t11.5 -9q36 -24 80.5 -42.5t89.5 -31.5t85.5 -20t69.5 -7q57 0 102 18.5t76.5 50t48.5 73.5t17 89q0 39 -10.5 70.5t-32.5 57.5t-54.5 47t-77.5 39
q-38 15 -75.5 26t-75 21.5t-74.5 22t-74 26.5q-61 25 -108 63t-78.5 85.5t-48 102.5t-16.5 115q0 57 17.5 109.5t49.5 97.5t76.5 82.5t99.5 63.5t118.5 40.5t132.5 14.5q61 0 120.5 -5t114.5 -14t104.5 -21t91.5 -26v-360h-67l-79 185q-6 14 -19 26.5t-24 20.5
q-24 18 -58.5 31t-71 21.5t-71 12.5t-57.5 4q-50 0 -90.5 -16t-68.5 -43t-43 -61.5t-15 -70.5q0 -39 9 -73t30 -62.5t54.5 -51t83.5 -40.5q36 -13 71.5 -23.5t71.5 -21t73.5 -23t78.5 -29.5q49 -20 96.5 -52.5t84.5 -78t60 -105t23 -132.5q0 -79 -32 -156.5t-100.5 -138.5
t-175.5 -99t-256 -38zM461 -440q24 21 40.5 39t27 34.5t17 32t11.5 33.5q-28 16 -48 28t-32.5 25t-18 28t-5.5 36q0 16 7.5 32.5t22 29t35.5 20.5t48 8q36 0 62.5 -11t43.5 -31t25.5 -47.5t8.5 -60.5q0 -48 -19 -85t-48 -66.5t-64 -52.5t-66 -41z" />
    <glyph glyph-name="Tcaron" unicode="&#x164;" horiz-adv-x="1307" 
d="M316 60l147 37q22 5 34.5 21t12.5 38v1112h-293q-20 0 -29 -10t-14 -25l-82 -221h-67v366h1257v-366h-67l-82 221q-5 15 -13.5 25t-27.5 10h-298v-1112q0 -23 14.5 -38.5t33.5 -20.5l147 -37v-60h-673v60zM655 1501q-45 0 -79 20t-62 60l-194 279l51 36l285 -224l284 222
l52 -35l-195 -278q-28 -40 -62.5 -60t-79.5 -20z" />
    <glyph glyph-name="uni0162" unicode="&#x162;" horiz-adv-x="1307" 
d="M626 -446q-51 0 -98.5 16t-89.5 39v91h23q12 -8 29 -17.5t37.5 -17.5t43 -13.5t46.5 -5.5q45 0 69.5 24t24.5 60q0 44 -33.5 58.5t-108.5 14.5v197h-253v60l147 37q22 5 34.5 21t12.5 38v1112h-293q-20 0 -29 -10t-14 -25l-82 -221h-67v366h1257v-366h-67l-82 221
q-5 15 -13.5 25t-27.5 10h-298v-1112q0 -23 14.5 -38.5t33.5 -20.5l147 -37v-60h-328v-92q40 0 77.5 -7.5t66.5 -25.5t46.5 -47.5t17.5 -72.5q0 -48 -17.5 -85.5t-50 -63t-77 -39t-98.5 -13.5z" />
    <glyph glyph-name="uni021A" unicode="&#x21a;" horiz-adv-x="1307" 
d="M316 60l147 37q22 5 34.5 21t12.5 38v1112h-293q-20 0 -29 -10t-14 -25l-82 -221h-67v366h1257v-366h-67l-82 221q-5 15 -13.5 25t-27.5 10h-298v-1112q0 -23 14.5 -38.5t33.5 -20.5l147 -37v-60h-673v60zM550 -440q24 21 40.5 39t27 34.5t17 32t11.5 33.5q-28 16 -48 28
t-32.5 25t-18 28t-5.5 36q0 16 7.5 32.5t22 29t35.5 20.5t48 8q36 0 62.5 -11t43.5 -31t25.5 -47.5t8.5 -60.5q0 -48 -19 -85t-48 -66.5t-64 -52.5t-66 -41z" />
    <glyph glyph-name="Tbar" unicode="&#x166;" horiz-adv-x="1307" 
d="M238 773h272v495h-293q-20 0 -29 -10t-14 -25l-82 -221h-67v366h1257v-366h-67l-82 221q-5 15 -13.5 25t-27.5 10h-298v-495h278v-112h-278v-505q0 -23 14.5 -38.5t33.5 -20.5l147 -37v-60h-673v60l147 37q22 5 34.5 21t12.5 38v505h-272v112z" />
    <glyph glyph-name="Ugrave" unicode="&#xd9;" horiz-adv-x="1448" 
d="M728 -31q-134 0 -236 33.5t-170.5 90t-103.5 129.5t-35 151v848q0 23 -14 39t-34 21l-127 36v61h633v-61l-127 -36q-20 -6 -33.5 -22t-13.5 -38v-756q0 -34 5 -73t18 -78t36 -74.5t59 -62.5t87 -43.5t120 -16.5t122 16.5t91.5 44t64.5 63.5t41.5 74.5t22 77t6.5 71.5v751
q0 23 -14.5 38t-32.5 21l-127 43v61h474v-61l-127 -43q-19 -6 -33 -21.5t-14 -37.5v-801q0 -81 -25 -145.5t-67 -114t-97 -84.5t-115 -57.5t-120.5 -33t-113.5 -10.5zM897 1486q-74 46 -125.5 77t-88.5 53.5t-64 39t-51 33.5q-44 31 -63 58t-19 65q0 17 7.5 32.5t21.5 27.5
t33.5 19t43.5 7q22 0 41.5 -3t38.5 -12t37.5 -25.5t38.5 -43.5q18 -24 35 -48t39.5 -56.5t53 -77t74.5 -108.5z" />
    <glyph glyph-name="Uacute" unicode="&#xda;" horiz-adv-x="1448" 
d="M728 -31q-134 0 -236 33.5t-170.5 90t-103.5 129.5t-35 151v848q0 23 -14 39t-34 21l-127 36v61h633v-61l-127 -36q-20 -6 -33.5 -22t-13.5 -38v-756q0 -34 5 -73t18 -78t36 -74.5t59 -62.5t87 -43.5t120 -16.5t122 16.5t91.5 44t64.5 63.5t41.5 74.5t22 77t6.5 71.5v751
q0 23 -14.5 38t-32.5 21l-127 43v61h474v-61l-127 -43q-19 -6 -33 -21.5t-14 -37.5v-801q0 -81 -25 -145.5t-67 -114t-97 -84.5t-115 -57.5t-120.5 -33t-113.5 -10.5zM546 1524q44 64 74.5 108.5t53 77t39.5 56.5t35 48q20 27 38.5 43.5t37 25.5t38 12t42.5 3q24 0 43.5 -7
t33.5 -19t21.5 -27.5t7.5 -32.5q0 -19 -5 -35t-15 -30.5t-25.5 -28.5t-36.5 -29q-24 -17 -51 -33.5t-64 -39t-88.5 -53.5t-125.5 -77z" />
    <glyph glyph-name="Ucircumflex" unicode="&#xdb;" horiz-adv-x="1448" 
d="M728 -31q-134 0 -236 33.5t-170.5 90t-103.5 129.5t-35 151v848q0 23 -14 39t-34 21l-127 36v61h633v-61l-127 -36q-20 -6 -33.5 -22t-13.5 -38v-756q0 -34 5 -73t18 -78t36 -74.5t59 -62.5t87 -43.5t120 -16.5t122 16.5t91.5 44t64.5 63.5t41.5 74.5t22 77t6.5 71.5v751
q0 23 -14.5 38t-32.5 21l-127 43v61h474v-61l-127 -43q-19 -6 -33 -21.5t-14 -37.5v-801q0 -81 -25 -145.5t-67 -114t-97 -84.5t-115 -57.5t-120.5 -33t-113.5 -10.5zM417 1518l194 289q26 40 61 60t80 20t80.5 -20t61.5 -60l195 -288l-52 -35l-284 232l-285 -234z" />
    <glyph glyph-name="Utilde" unicode="&#x168;" horiz-adv-x="1448" 
d="M728 -31q-134 0 -236 33.5t-170.5 90t-103.5 129.5t-35 151v848q0 23 -14 39t-34 21l-127 36v61h633v-61l-127 -36q-20 -6 -33.5 -22t-13.5 -38v-756q0 -34 5 -73t18 -78t36 -74.5t59 -62.5t87 -43.5t120 -16.5t122 16.5t91.5 44t64.5 63.5t41.5 74.5t22 77t6.5 71.5v751
q0 23 -14.5 38t-32.5 21l-127 43v61h474v-61l-127 -43q-19 -6 -33 -21.5t-14 -37.5v-801q0 -81 -25 -145.5t-67 -114t-97 -84.5t-115 -57.5t-120.5 -33t-113.5 -10.5zM391 1545q10 60 32.5 110.5t54.5 87.5t73 57.5t88 20.5q32 0 70 -11.5t84 -36.5q48 -26 79.5 -36
t48.5 -10q55 0 81 28.5t39 79.5h74q-9 -59 -30.5 -109.5t-53 -87.5t-72 -57.5t-87.5 -20.5q-17 0 -32 2t-32.5 7.5t-38.5 15t-49 25.5q-45 25 -78.5 36t-51.5 11q-56 0 -84 -30t-41 -82h-74z" />
    <glyph glyph-name="Udieresis" unicode="&#xdc;" horiz-adv-x="1448" 
d="M728 -31q-134 0 -236 33.5t-170.5 90t-103.5 129.5t-35 151v848q0 23 -14 39t-34 21l-127 36v61h633v-61l-127 -36q-20 -6 -33.5 -22t-13.5 -38v-756q0 -34 5 -73t18 -78t36 -74.5t59 -62.5t87 -43.5t120 -16.5t122 16.5t91.5 44t64.5 63.5t41.5 74.5t22 77t6.5 71.5v751
q0 23 -14.5 38t-32.5 21l-127 43v61h474v-61l-127 -43q-19 -6 -33 -21.5t-14 -37.5v-801q0 -81 -25 -145.5t-67 -114t-97 -84.5t-115 -57.5t-120.5 -33t-113.5 -10.5zM975 1534q-28 0 -52 10.5t-42 28.5t-28.5 42.5t-10.5 52.5t10.5 52.5t28.5 42.5t42 28.5t52 10.5
t53 -10.5t44 -28.5t29.5 -42.5t10.5 -52.5t-10.5 -52.5t-29.5 -42.5t-44 -28.5t-53 -10.5zM527 1534q-28 0 -52 10.5t-42 28.5t-28.5 42.5t-10.5 52.5t10.5 52.5t28.5 42.5t42 28.5t52 10.5t53 -10.5t44 -28.5t29.5 -42.5t10.5 -52.5t-10.5 -52.5t-29.5 -42.5t-44 -28.5
t-53 -10.5z" />
    <glyph glyph-name="Umacron" unicode="&#x16a;" horiz-adv-x="1448" 
d="M728 -31q-134 0 -236 33.5t-170.5 90t-103.5 129.5t-35 151v848q0 23 -14 39t-34 21l-127 36v61h633v-61l-127 -36q-20 -6 -33.5 -22t-13.5 -38v-756q0 -34 5 -73t18 -78t36 -74.5t59 -62.5t87 -43.5t120 -16.5t122 16.5t91.5 44t64.5 63.5t41.5 74.5t22 77t6.5 71.5v751
q0 23 -14.5 38t-32.5 21l-127 43v61h474v-61l-127 -43q-19 -6 -33 -21.5t-14 -37.5v-801q0 -81 -25 -145.5t-67 -114t-97 -84.5t-115 -57.5t-120.5 -33t-113.5 -10.5zM432 1728h644v-148h-644v148z" />
    <glyph glyph-name="Ubreve" unicode="&#x16c;" horiz-adv-x="1448" 
d="M728 -31q-134 0 -236 33.5t-170.5 90t-103.5 129.5t-35 151v848q0 23 -14 39t-34 21l-127 36v61h633v-61l-127 -36q-20 -6 -33.5 -22t-13.5 -38v-756q0 -34 5 -73t18 -78t36 -74.5t59 -62.5t87 -43.5t120 -16.5t122 16.5t91.5 44t64.5 63.5t41.5 74.5t22 77t6.5 71.5v751
q0 23 -14.5 38t-32.5 21l-127 43v61h474v-61l-127 -43q-19 -6 -33 -21.5t-14 -37.5v-801q0 -81 -25 -145.5t-67 -114t-97 -84.5t-115 -57.5t-120.5 -33t-113.5 -10.5zM753 1512q-55 0 -106.5 16.5t-94.5 56t-73.5 104.5t-43.5 163l86 17q16 -55 34 -91.5t44.5 -59t63.5 -32
t90 -9.5q51 0 87.5 9t63.5 31t46 59t36 93l86 -17q-15 -98 -45 -163.5t-72 -104.5t-93.5 -55.5t-108.5 -16.5z" />
    <glyph glyph-name="Uring" unicode="&#x16e;" horiz-adv-x="1448" 
d="M728 -31q-134 0 -236 33.5t-170.5 90t-103.5 129.5t-35 151v848q0 23 -14 39t-34 21l-127 36v61h633v-61l-127 -36q-20 -6 -33.5 -22t-13.5 -38v-756q0 -34 5 -73t18 -78t36 -74.5t59 -62.5t87 -43.5t120 -16.5t122 16.5t91.5 44t64.5 63.5t41.5 74.5t22 77t6.5 71.5v751
q0 23 -14.5 38t-32.5 21l-127 43v61h474v-61l-127 -43q-19 -6 -33 -21.5t-14 -37.5v-801q0 -81 -25 -145.5t-67 -114t-97 -84.5t-115 -57.5t-120.5 -33t-113.5 -10.5zM750 1481q-48 0 -89 13t-71 39t-47 64.5t-17 88.5t18.5 89t51 65.5t75.5 40.5t92 14q47 0 87 -13.5
t69.5 -39t46 -64t16.5 -87.5q0 -51 -19 -90t-50.5 -65.5t-74 -40.5t-88.5 -14zM763 1542q48 0 70 37t22 97q0 33 -7.5 62t-21 50.5t-33 33.5t-43.5 12q-48 0 -71.5 -36t-23.5 -100q0 -35 7.5 -63.5t22 -49t34.5 -32t44 -11.5z" />
    <glyph glyph-name="Uhungarumlaut" unicode="&#x170;" horiz-adv-x="1448" 
d="M728 -31q-134 0 -236 33.5t-170.5 90t-103.5 129.5t-35 151v848q0 23 -14 39t-34 21l-127 36v61h633v-61l-127 -36q-20 -6 -33.5 -22t-13.5 -38v-756q0 -34 5 -73t18 -78t36 -74.5t59 -62.5t87 -43.5t120 -16.5t122 16.5t91.5 44t64.5 63.5t41.5 74.5t22 77t6.5 71.5v751
q0 23 -14.5 38t-32.5 21l-127 43v61h474v-61l-127 -43q-19 -6 -33 -21.5t-14 -37.5v-801q0 -81 -25 -145.5t-67 -114t-97 -84.5t-115 -57.5t-120.5 -33t-113.5 -10.5zM528 1524l155 298q17 29 32.5 47t31.5 28t33 13.5t37 3.5q21 0 38 -7.5t29.5 -20t19 -29t6.5 -34.5
q0 -21 -4 -36.5t-12.5 -29t-22.5 -27.5t-34 -31l-256 -213zM891 1524l155 298q17 29 32.5 47t31.5 28t33 13.5t37 3.5q42 0 67.5 -27t25.5 -64q0 -21 -4 -36.5t-12.5 -29t-22.5 -27.5t-34 -31l-256 -213z" />
    <glyph glyph-name="uni1EE6" unicode="&#x1ee6;" horiz-adv-x="1448" 
d="M728 -31q-134 0 -236 33.5t-170.5 90t-103.5 129.5t-35 151v848q0 23 -14 39t-34 21l-127 36v61h633v-61l-127 -36q-20 -6 -33.5 -22t-13.5 -38v-756q0 -34 5 -73t18 -78t36 -74.5t59 -62.5t87 -43.5t120 -16.5t122 16.5t91.5 44t64.5 63.5t41.5 74.5t22 77t6.5 71.5v751
q0 23 -14.5 38t-32.5 21l-127 43v61h474v-61l-127 -43q-19 -6 -33 -21.5t-14 -37.5v-801q0 -81 -25 -145.5t-67 -114t-97 -84.5t-115 -57.5t-120.5 -33t-113.5 -10.5zM748 1970q49 0 92 -9.5t74.5 -29.5t49.5 -50t18 -71q0 -34 -11.5 -59t-28.5 -46t-36.5 -40t-36.5 -39.5
t-28.5 -46t-11.5 -58.5v-31h-151v39q0 37 10 63.5t25 47t32 38t32 35.5t25 40t10 52q0 31 -21 51.5t-66 20.5q-23 0 -41.5 -6t-33.5 -15t-27.5 -21t-24.5 -24h-47v109q12 6 30.5 14.5t43 16.5t55.5 13.5t68 5.5z" />
    <glyph glyph-name="Uogonek" unicode="&#x172;" horiz-adv-x="1448" 
d="M962 -439q-55 0 -99.5 14.5t-76 40t-49 59t-17.5 71.5t12.5 71.5t33.5 63.5t49 56t60 49q-36 -8 -75.5 -12.5t-71.5 -4.5q-134 0 -236 33.5t-170.5 90t-103.5 129.5t-35 151v848q0 23 -14 39t-34 21l-127 36v61h633v-61l-127 -36q-20 -6 -33.5 -22t-13.5 -38v-755
q0 -34 5 -73t18 -78t36 -74.5t59 -62.5t87 -43.5t120 -16.5t122 16.5t91.5 44t64.5 63.5t41.5 74.5t22 77t6.5 71.5v750q0 23 -14.5 38t-32.5 21l-127 43v61h474v-61l-127 -43q-19 -6 -33 -21.5t-14 -37.5v-801q0 -66 -16 -119t-43.5 -95.5t-64 -76.5t-77.5 -61
q-35 -23 -65.5 -52t-52.5 -64t-34.5 -75.5t-12.5 -86.5q0 -27 7 -48.5t21 -36.5t35 -23t49 -8q18 0 43 5.5t46 16.5h21v-89q-40 -17 -83.5 -28.5t-76.5 -11.5z" />
    <glyph glyph-name="uni1EE4" unicode="&#x1ee4;" horiz-adv-x="1448" 
d="M728 -31q-134 0 -236 33.5t-170.5 90t-103.5 129.5t-35 151v848q0 23 -14 39t-34 21l-127 36v61h633v-61l-127 -36q-20 -6 -33.5 -22t-13.5 -38v-756q0 -34 5 -73t18 -78t36 -74.5t59 -62.5t87 -43.5t120 -16.5t122 16.5t91.5 44t64.5 63.5t41.5 74.5t22 77t6.5 71.5v751
q0 23 -14.5 38t-32.5 21l-127 43v61h474v-61l-127 -43q-19 -6 -33 -21.5t-14 -37.5v-801q0 -81 -25 -145.5t-67 -114t-97 -84.5t-115 -57.5t-120.5 -33t-113.5 -10.5zM736 -449q-35 0 -65 12.5t-52 34t-35 51t-13 63.5q0 33 13 62t35 50.5t52 34t65 12.5t65.5 -12.5
t53.5 -34t36 -50.5t13 -62q0 -34 -13 -63.5t-36 -51t-53.5 -34t-65.5 -12.5z" />
    <glyph glyph-name="Uhorn" unicode="&#x1af;" horiz-adv-x="1814" 
d="M1514 1378h222q19 -34 27 -67.5t8 -61.5q0 -62 -27 -106.5t-71 -75t-99 -48.5t-111 -27.5t-108 -12t-89 -2.5v-563q0 -81 -25 -145.5t-67 -114t-97 -84.5t-115 -57.5t-120.5 -33t-113.5 -10.5q-134 0 -236 33.5t-170.5 90t-103.5 129.5t-35 151v848q0 23 -14 39t-34 21
l-127 36v61h633v-61l-127 -36q-20 -6 -33.5 -22t-13.5 -38v-756q0 -34 5 -73t18 -78t36 -74.5t59 -62.5t87 -43.5t120 -16.5t122 16.5t91.5 44t64.5 63.5t41.5 74.5t22 77t6.5 71.5v751q0 23 -14.5 38t-32.5 21l-127 43v61h450v-61l-105 -38q-25 -10 -35 -26t-10 -38v-152
q39 3 86.5 8.5t89.5 24t70 54.5t28 100q0 24 -7 47t-19 47v34z" />
    <glyph glyph-name="uni1EE8" unicode="&#x1ee8;" horiz-adv-x="1789" 
d="M1514 1378h222q19 -34 27 -67.5t8 -61.5q0 -62 -27 -106.5t-71 -75t-99 -48.5t-111 -27.5t-108 -12t-89 -2.5v-563q0 -81 -25 -145.5t-67 -114t-97 -84.5t-115 -57.5t-120.5 -33t-113.5 -10.5q-134 0 -236 33.5t-170.5 90t-103.5 129.5t-35 151v848q0 23 -14 39t-34 21
l-127 36v61h633v-61l-127 -36q-20 -6 -33.5 -22t-13.5 -38v-756q0 -34 5 -73t18 -78t36 -74.5t59 -62.5t87 -43.5t120 -16.5t122 16.5t91.5 44t64.5 63.5t41.5 74.5t22 77t6.5 71.5v751q0 23 -14.5 38t-32.5 21l-127 43v61h450v-61l-105 -38q-25 -10 -35 -26t-10 -38v-152
q39 3 86.5 8.5t89.5 24t70 54.5t28 100q0 24 -7 47t-19 47v34zM508 1524q44 64 74.5 108.5t53 77t39.5 56.5t35 48q20 27 38.5 43.5t37 25.5t38 12t42.5 3q24 0 43.5 -7t33.5 -19t21.5 -27.5t7.5 -32.5q0 -19 -5 -35t-15 -30.5t-25.5 -28.5t-36.5 -29q-24 -17 -51 -33.5
t-64 -39t-88.5 -53.5t-125.5 -77z" />
    <glyph glyph-name="uni1EEA" unicode="&#x1eea;" horiz-adv-x="1789" 
d="M1514 1378h222q19 -34 27 -67.5t8 -61.5q0 -62 -27 -106.5t-71 -75t-99 -48.5t-111 -27.5t-108 -12t-89 -2.5v-563q0 -81 -25 -145.5t-67 -114t-97 -84.5t-115 -57.5t-120.5 -33t-113.5 -10.5q-134 0 -236 33.5t-170.5 90t-103.5 129.5t-35 151v848q0 23 -14 39t-34 21
l-127 36v61h633v-61l-127 -36q-20 -6 -33.5 -22t-13.5 -38v-756q0 -34 5 -73t18 -78t36 -74.5t59 -62.5t87 -43.5t120 -16.5t122 16.5t91.5 44t64.5 63.5t41.5 74.5t22 77t6.5 71.5v751q0 23 -14.5 38t-32.5 21l-127 43v61h450v-61l-105 -38q-25 -10 -35 -26t-10 -38v-152
q39 3 86.5 8.5t89.5 24t70 54.5t28 100q0 24 -7 47t-19 47v34zM955 1486q-74 46 -125.5 77t-88.5 53.5t-64 39t-51 33.5q-44 31 -63 58t-19 65q0 17 7.5 32.5t21.5 27.5t33.5 19t43.5 7q22 0 41.5 -3t38.5 -12t37.5 -25.5t38.5 -43.5q18 -24 35 -48t39.5 -56.5t53 -77
t74.5 -108.5z" />
    <glyph glyph-name="uni1EEC" unicode="&#x1eec;" horiz-adv-x="1789" 
d="M1514 1378h222q19 -34 27 -67.5t8 -61.5q0 -62 -27 -106.5t-71 -75t-99 -48.5t-111 -27.5t-108 -12t-89 -2.5v-563q0 -81 -25 -145.5t-67 -114t-97 -84.5t-115 -57.5t-120.5 -33t-113.5 -10.5q-134 0 -236 33.5t-170.5 90t-103.5 129.5t-35 151v848q0 23 -14 39t-34 21
l-127 36v61h633v-61l-127 -36q-20 -6 -33.5 -22t-13.5 -38v-756q0 -34 5 -73t18 -78t36 -74.5t59 -62.5t87 -43.5t120 -16.5t122 16.5t91.5 44t64.5 63.5t41.5 74.5t22 77t6.5 71.5v751q0 23 -14.5 38t-32.5 21l-127 43v61h450v-61l-105 -38q-25 -10 -35 -26t-10 -38v-152
q39 3 86.5 8.5t89.5 24t70 54.5t28 100q0 24 -7 47t-19 47v34zM752 1970q49 0 92 -9.5t74.5 -29.5t49.5 -50t18 -71q0 -34 -11.5 -59t-28.5 -46t-36.5 -40t-36.5 -39.5t-28.5 -46t-11.5 -58.5v-31h-151v39q0 37 10 63.5t25 47t32 38t32 35.5t25 40t10 52q0 31 -21 51.5
t-66 20.5q-23 0 -41.5 -6t-33.5 -15t-27.5 -21t-24.5 -24h-47v109q12 6 30.5 14.5t43 16.5t55.5 13.5t68 5.5z" />
    <glyph glyph-name="uni1EEE" unicode="&#x1eee;" horiz-adv-x="1789" 
d="M1514 1378h222q19 -34 27 -67.5t8 -61.5q0 -62 -27 -106.5t-71 -75t-99 -48.5t-111 -27.5t-108 -12t-89 -2.5v-563q0 -81 -25 -145.5t-67 -114t-97 -84.5t-115 -57.5t-120.5 -33t-113.5 -10.5q-134 0 -236 33.5t-170.5 90t-103.5 129.5t-35 151v848q0 23 -14 39t-34 21
l-127 36v61h633v-61l-127 -36q-20 -6 -33.5 -22t-13.5 -38v-756q0 -34 5 -73t18 -78t36 -74.5t59 -62.5t87 -43.5t120 -16.5t122 16.5t91.5 44t64.5 63.5t41.5 74.5t22 77t6.5 71.5v751q0 23 -14.5 38t-32.5 21l-127 43v61h450v-61l-105 -38q-25 -10 -35 -26t-10 -38v-152
q39 3 86.5 8.5t89.5 24t70 54.5t28 100q0 24 -7 47t-19 47v34zM395 1545q10 60 32.5 110.5t54.5 87.5t73 57.5t88 20.5q32 0 70 -11.5t84 -36.5q48 -26 79.5 -36t48.5 -10q55 0 81 28.5t39 79.5h74q-9 -59 -30.5 -109.5t-53 -87.5t-72 -57.5t-87.5 -20.5q-17 0 -32 2
t-32.5 7.5t-38.5 15t-49 25.5q-45 25 -78.5 36t-51.5 11q-56 0 -84 -30t-41 -82h-74z" />
    <glyph glyph-name="uni1EF0" unicode="&#x1ef0;" horiz-adv-x="1789" 
d="M1514 1378h222q19 -34 27 -67.5t8 -61.5q0 -62 -27 -106.5t-71 -75t-99 -48.5t-111 -27.5t-108 -12t-89 -2.5v-563q0 -81 -25 -145.5t-67 -114t-97 -84.5t-115 -57.5t-120.5 -33t-113.5 -10.5q-134 0 -236 33.5t-170.5 90t-103.5 129.5t-35 151v848q0 23 -14 39t-34 21
l-127 36v61h633v-61l-127 -36q-20 -6 -33.5 -22t-13.5 -38v-756q0 -34 5 -73t18 -78t36 -74.5t59 -62.5t87 -43.5t120 -16.5t122 16.5t91.5 44t64.5 63.5t41.5 74.5t22 77t6.5 71.5v751q0 23 -14.5 38t-32.5 21l-127 43v61h450v-61l-105 -38q-25 -10 -35 -26t-10 -38v-152
q39 3 86.5 8.5t89.5 24t70 54.5t28 100q0 24 -7 47t-19 47v34zM736 -449q-35 0 -65 12.5t-52 34t-35 51t-13 63.5q0 33 13 62t35 50.5t52 34t65 12.5t65.5 -12.5t53.5 -34t36 -50.5t13 -62q0 -34 -13 -63.5t-36 -51t-53.5 -34t-65.5 -12.5z" />
    <glyph glyph-name="Wgrave" unicode="&#x1e80;" horiz-adv-x="1940" 
d="M90 1225q-6 20 -22 35t-37 23l-86 34v61h597v-61l-172 -43l258 -836l23 -76v0l239 769l104 247h129l286 -936l27 -89v0l290 907l-165 57v61h434v-61l-91 -44q-17 -8 -35 -25t-25 -37l-324 -978l-103 -247h-153l-254 833l-39 133v0l-226 -719l-104 -247h-170zM1251 1486
q-74 46 -125.5 77t-88.5 53.5t-64 39t-51 33.5q-44 31 -63 58t-19 65q0 17 7.5 32.5t21.5 27.5t33.5 19t43.5 7q22 0 41.5 -3t38.5 -12t37.5 -25.5t38.5 -43.5q18 -24 35 -48t39.5 -56.5t53 -77t74.5 -108.5z" />
    <glyph glyph-name="Wacute" unicode="&#x1e82;" horiz-adv-x="1940" 
d="M90 1225q-6 20 -22 35t-37 23l-86 34v61h597v-61l-172 -43l258 -836l23 -76v0l239 769l104 247h129l286 -936l27 -89v0l290 907l-165 57v61h434v-61l-91 -44q-17 -8 -35 -25t-25 -37l-324 -978l-103 -247h-153l-254 833l-39 133v0l-226 -719l-104 -247h-170zM804 1524
q44 64 74.5 108.5t53 77t39.5 56.5t35 48q20 27 38.5 43.5t37 25.5t38 12t42.5 3q24 0 43.5 -7t33.5 -19t21.5 -27.5t7.5 -32.5q0 -19 -5 -35t-15 -30.5t-25.5 -28.5t-36.5 -29q-24 -17 -51 -33.5t-64 -39t-88.5 -53.5t-125.5 -77z" />
    <glyph glyph-name="Wcircumflex" unicode="&#x174;" horiz-adv-x="1940" 
d="M90 1225q-6 20 -22 35t-37 23l-86 34v61h597v-61l-172 -43l258 -836l23 -76v0l239 769l104 247h129l286 -936l27 -89v0l290 907l-165 57v61h434v-61l-91 -44q-17 -8 -35 -25t-25 -37l-324 -978l-103 -247h-153l-254 833l-39 133v0l-226 -719l-104 -247h-170zM719 1518
l194 289q26 40 61 60t80 20t80.5 -20t61.5 -60l195 -288l-52 -35l-284 232l-285 -234z" />
    <glyph glyph-name="Wdieresis" unicode="&#x1e84;" horiz-adv-x="1940" 
d="M90 1225q-6 20 -22 35t-37 23l-86 34v61h597v-61l-172 -43l258 -836l23 -76v0l239 769l104 247h129l286 -936l27 -89v0l290 907l-165 57v61h434v-61l-91 -44q-17 -8 -35 -25t-25 -37l-324 -978l-103 -247h-153l-254 833l-39 133v0l-226 -719l-104 -247h-170zM1275 1534
q-28 0 -52 10.5t-42 28.5t-28.5 42.5t-10.5 52.5t10.5 52.5t28.5 42.5t42 28.5t52 10.5t53 -10.5t44 -28.5t29.5 -42.5t10.5 -52.5t-10.5 -52.5t-29.5 -42.5t-44 -28.5t-53 -10.5zM827 1534q-28 0 -52 10.5t-42 28.5t-28.5 42.5t-10.5 52.5t10.5 52.5t28.5 42.5t42 28.5
t52 10.5t53 -10.5t44 -28.5t29.5 -42.5t10.5 -52.5t-10.5 -52.5t-29.5 -42.5t-44 -28.5t-53 -10.5z" />
    <glyph glyph-name="Ygrave" unicode="&#x1ef2;" horiz-adv-x="1272" 
d="M301 61l147 37q20 5 33.5 21t13.5 38v408l-372 658q-11 19 -25 35.5t-36 24.5l-98 34v61h609v-61l-170 -43l254 -451l69 -122v0l327 559l-159 57v61h427v-61l-97 -44q-18 -8 -34.5 -24.5t-27.5 -35.5l-383 -639v-417q0 -23 13 -38.5t34 -20.5l148 -37v-61h-673v61z
M873 1486q-74 46 -125.5 77t-88.5 53.5t-64 39t-51 33.5q-44 31 -63 58t-19 65q0 17 7.5 32.5t21.5 27.5t33.5 19t43.5 7q22 0 41.5 -3t38.5 -12t37.5 -25.5t38.5 -43.5q18 -24 35 -48t39.5 -56.5t53 -77t74.5 -108.5z" />
    <glyph glyph-name="Yacute" unicode="&#xdd;" horiz-adv-x="1272" 
d="M301 61l147 37q20 5 33.5 21t13.5 38v408l-372 658q-11 19 -25 35.5t-36 24.5l-98 34v61h609v-61l-170 -43l254 -451l69 -122v0l327 559l-159 57v61h427v-61l-97 -44q-18 -8 -34.5 -24.5t-27.5 -35.5l-383 -639v-417q0 -23 13 -38.5t34 -20.5l148 -37v-61h-673v61z
M488 1524q44 64 74.5 108.5t53 77t39.5 56.5t35 48q20 27 38.5 43.5t37 25.5t38 12t42.5 3q24 0 43.5 -7t33.5 -19t21.5 -27.5t7.5 -32.5q0 -19 -5 -35t-15 -30.5t-25.5 -28.5t-36.5 -29q-24 -17 -51 -33.5t-64 -39t-88.5 -53.5t-125.5 -77z" />
    <glyph glyph-name="Ycircumflex" unicode="&#x176;" horiz-adv-x="1272" 
d="M301 61l147 37q20 5 33.5 21t13.5 38v408l-372 658q-11 19 -25 35.5t-36 24.5l-98 34v61h609v-61l-170 -43l254 -451l69 -122v0l327 559l-159 57v61h427v-61l-97 -44q-18 -8 -34.5 -24.5t-27.5 -35.5l-383 -639v-417q0 -23 13 -38.5t34 -20.5l148 -37v-61h-673v61z
M341 1518l194 289q26 40 61 60t80 20t80.5 -20t61.5 -60l195 -288l-52 -35l-284 232l-285 -234z" />
    <glyph glyph-name="uni1EF8" unicode="&#x1ef8;" horiz-adv-x="1272" 
d="M301 61l147 37q20 5 33.5 21t13.5 38v408l-372 658q-11 19 -25 35.5t-36 24.5l-98 34v61h609v-61l-170 -43l254 -451l69 -122v0l327 559l-159 57v61h427v-61l-97 -44q-18 -8 -34.5 -24.5t-27.5 -35.5l-383 -639v-417q0 -23 13 -38.5t34 -20.5l148 -37v-61h-673v61z
M313 1545q10 60 32.5 110.5t54.5 87.5t73 57.5t88 20.5q32 0 70 -11.5t84 -36.5q48 -26 79.5 -36t48.5 -10q55 0 81 28.5t39 79.5h74q-9 -59 -30.5 -109.5t-53 -87.5t-72 -57.5t-87.5 -20.5q-17 0 -32 2t-32.5 7.5t-38.5 15t-49 25.5q-45 25 -78.5 36t-51.5 11
q-56 0 -84 -30t-41 -82h-74z" />
    <glyph glyph-name="Ydieresis" unicode="&#x178;" horiz-adv-x="1272" 
d="M301 61l147 37q20 5 33.5 21t13.5 38v408l-372 658q-11 19 -25 35.5t-36 24.5l-98 34v61h609v-61l-170 -43l254 -451l69 -122v0l327 559l-159 57v61h427v-61l-97 -44q-18 -8 -34.5 -24.5t-27.5 -35.5l-383 -639v-417q0 -23 13 -38.5t34 -20.5l148 -37v-61h-673v61z
M897 1534q-28 0 -52 10.5t-42 28.5t-28.5 42.5t-10.5 52.5t10.5 52.5t28.5 42.5t42 28.5t52 10.5t53 -10.5t44 -28.5t29.5 -42.5t10.5 -52.5t-10.5 -52.5t-29.5 -42.5t-44 -28.5t-53 -10.5zM449 1534q-28 0 -52 10.5t-42 28.5t-28.5 42.5t-10.5 52.5t10.5 52.5t28.5 42.5
t42 28.5t52 10.5t53 -10.5t44 -28.5t29.5 -42.5t10.5 -52.5t-10.5 -52.5t-29.5 -42.5t-44 -28.5t-53 -10.5z" />
    <glyph glyph-name="uni1EF6" unicode="&#x1ef6;" horiz-adv-x="1272" 
d="M301 61l147 37q20 5 33.5 21t13.5 38v408l-372 658q-11 19 -25 35.5t-36 24.5l-98 34v61h609v-61l-170 -43l254 -451l69 -122v0l327 559l-159 57v61h427v-61l-97 -44q-18 -8 -34.5 -24.5t-27.5 -35.5l-383 -639v-417q0 -23 13 -38.5t34 -20.5l148 -37v-61h-673v61z
M670 1970q49 0 92 -9.5t74.5 -29.5t49.5 -50t18 -71q0 -34 -11.5 -59t-28.5 -46t-36.5 -40t-36.5 -39.5t-28.5 -46t-11.5 -58.5v-31h-151v39q0 37 10 63.5t25 47t32 38t32 35.5t25 40t10 52q0 31 -21 51.5t-66 20.5q-23 0 -41.5 -6t-33.5 -15t-27.5 -21t-24.5 -24h-47v109
q12 6 30.5 14.5t43 16.5t55.5 13.5t68 5.5z" />
    <glyph glyph-name="uni1EF4" unicode="&#x1ef4;" horiz-adv-x="1272" 
d="M301 61l147 37q20 5 33.5 21t13.5 38v408l-372 658q-11 19 -25 35.5t-36 24.5l-98 34v61h609v-61l-170 -43l254 -451l69 -122v0l327 559l-159 57v61h427v-61l-97 -44q-18 -8 -34.5 -24.5t-27.5 -35.5l-383 -639v-417q0 -23 13 -38.5t34 -20.5l148 -37v-61h-673v61z
M642 -449q-35 0 -65 12.5t-52 34t-35 51t-13 63.5q0 33 13 62t35 50.5t52 34t65 12.5t65.5 -12.5t53.5 -34t36 -50.5t13 -62q0 -34 -13 -63.5t-36 -51t-53.5 -34t-65.5 -12.5z" />
    <glyph glyph-name="Zacute" unicode="&#x179;" horiz-adv-x="1198" 
d="M-2 82l747 1091l70 95v0h-549q-20 0 -29 -10t-14 -25l-82 -221h-67v366h1085v-76l-751 -1097l-69 -94v0h640q19 0 27.5 9.5t13.5 25.5l82 241h69v-387h-1173v82zM402 1524q44 64 74.5 108.5t53 77t39.5 56.5t35 48q20 27 38.5 43.5t37 25.5t38 12t42.5 3q24 0 43.5 -7
t33.5 -19t21.5 -27.5t7.5 -32.5q0 -19 -5 -35t-15 -30.5t-25.5 -28.5t-36.5 -29q-24 -17 -51 -33.5t-64 -39t-88.5 -53.5t-125.5 -77z" />
    <glyph glyph-name="Zcaron" unicode="&#x17d;" horiz-adv-x="1198" 
d="M-2 82l747 1091l70 95v0h-549q-20 0 -29 -10t-14 -25l-82 -221h-67v366h1085v-76l-751 -1097l-69 -94v0h640q19 0 27.5 9.5t13.5 25.5l82 241h69v-387h-1173v82zM604 1501q-45 0 -79 20t-62 60l-194 279l51 36l285 -224l284 222l52 -35l-195 -278q-28 -40 -62.5 -60
t-79.5 -20z" />
    <glyph glyph-name="Zdotaccent" unicode="&#x17b;" horiz-adv-x="1198" 
d="M-2 82l747 1091l70 95v0h-549q-20 0 -29 -10t-14 -25l-82 -221h-67v366h1085v-76l-751 -1097l-69 -94v0h640q19 0 27.5 9.5t13.5 25.5l82 241h69v-387h-1173v82zM649 1513q-35 0 -65 12.5t-52 34t-35 51t-13 63.5q0 33 13 62t35 50.5t52 34t65 12.5t65.5 -12.5t53.5 -34
t36 -50.5t13 -62q0 -34 -13 -63.5t-36 -51t-53.5 -34t-65.5 -12.5z" />
    <glyph glyph-name="Eng" unicode="&#x14a;" horiz-adv-x="1487" 
d="M872 -453q-18 0 -44 2.5t-54 8t-55 13t-45 17.5l45 193h29q25 -14 57 -29t65 -27t64.5 -20t55.5 -8q13 0 31 2t37.5 10.5t38 24.5t32.5 43q6 11 10 33t7 50t4.5 59t2.5 60l-700 952l-106 154v0v-922q0 -22 12 -36.5t35 -22.5l127 -43v-61h-484v61l127 43q20 7 33.5 22.5
t13.5 36.5v1054q0 23 -14 38.5t-33 20.5l-137 41v61h438l601 -831l94 -137v0v805q0 23 -12 37t-35 22l-127 43v61h485v-61l-127 -43q-21 -8 -34.5 -22.5t-13.5 -36.5v-513v-197v-180v-140.5v-79.5q0 -131 -29 -234.5t-83.5 -175.5t-133 -110t-178.5 -38z" />
    <glyph glyph-name="Eth" unicode="&#xd0;" horiz-adv-x="1426" 
d="M683 109q100 0 173.5 36.5t122.5 106.5t73 171.5t24 231.5q0 142 -32 256t-90 193.5t-140 122.5t-181 43h-138v-497h326v-112h-326v-552h188zM37 61l127 37q22 6 34.5 21.5t12.5 37.5v504h-164v112h164v448q0 23 -12.5 38.5t-34.5 21.5l-127 36v61h644q70 0 149 -13
t157 -43.5t149.5 -81.5t126.5 -128t87.5 -182t32.5 -243q0 -176 -55.5 -305.5t-151.5 -214t-224.5 -126t-274.5 -41.5h-640v61z" />
    <glyph glyph-name="Thorn" unicode="&#xde;" horiz-adv-x="1188" 
d="M37 61l127 37q22 6 34.5 21.5t12.5 37.5v1064q0 23 -12.5 38.5t-34.5 21.5l-127 36v61h632v-61l-127 -37q-22 -6 -34.5 -21.5t-12.5 -37.5v-98h135q108 0 204 -21t168 -66t114 -115.5t42 -169.5q0 -105 -35.5 -189t-97.5 -143t-145.5 -90.5t-180.5 -31.5q-22 0 -49 6
t-54.5 15.5t-53.5 22t-47 25.5v-209q0 -23 14 -38.5t34 -20.5l143 -37v-61h-649v61zM636 415q47 0 81.5 16t58.5 42t39.5 58t24.5 64t12 61t3 48q0 61 -12.5 117.5t-42.5 99.5t-80.5 68.5t-126.5 25.5h-98v-584q12 -4 29 -7t36 -5t38.5 -3t37.5 -1z" />
    <glyph glyph-name="a" unicode="a" horiz-adv-x="1038" 
d="M306 -20q-59 0 -107 22t-82.5 58.5t-53 84.5t-18.5 100q0 61 21 109.5t56.5 85.5t82 63.5t97 43t101 24.5t95.5 8q9 0 25.5 -1t34.5 -2.5t34.5 -2.5t26.5 -1l1 145q0 48 -5.5 79t-19.5 48t-37 23.5t-58 6.5q-40 0 -84 -17.5t-87 -42.5t-81.5 -52.5t-66.5 -46.5h-32
l-41 195q34 16 75.5 31.5t89.5 28t102 20t112 7.5q70 0 142 -15.5t129.5 -52.5t93.5 -98t35 -151l-6 -496q0 -15 5 -26.5t15.5 -20t26 -13t36.5 -4.5q10 0 34.5 4t46.5 9h20v-70q-14 -11 -41 -25t-61 -27t-71.5 -22t-71.5 -9q-44 0 -81 8t-64.5 26.5t-43 50t-15.5 78.5v0
q-37 -56 -78 -88.5t-82.5 -49t-80 -21t-69.5 -4.5zM459 131q21 0 42.5 3.5t42.5 13t39.5 25t33.5 39.5l2 285q-68 0 -123 -11.5t-93.5 -36.5t-59.5 -63.5t-21 -92.5q0 -47 12.5 -78t32 -50t44 -26.5t48.5 -7.5z" />
    <glyph glyph-name="b" unicode="b" horiz-adv-x="1136" 
d="M559 -27q-47 0 -96.5 3.5t-102 13t-108 27t-112.5 45.5v1210q0 26 -13 44t-49 30l-92 30v48l422 87v-609v-73q40 58 83.5 91.5t84 50.5t76.5 21.5t61 4.5q88 0 157.5 -35t118 -98t74 -150.5t25.5 -191.5q0 -115 -36 -215t-104.5 -174.5t-166.5 -117t-222 -42.5zM565 75
q64 0 110 31t75 83.5t43 120.5t14 142q0 86 -13 156.5t-40.5 120.5t-71.5 77t-105 27q-19 0 -42 -1.5t-46 -8.5t-44.5 -22.5t-36.5 -42.5v-606q10 -13 28 -26.5t39.5 -25t45 -18.5t44.5 -7z" />
    <glyph glyph-name="c" unicode="c" horiz-adv-x="892" 
d="M482 -22q-106 0 -187 38.5t-136 104t-83 151.5t-28 182q0 71 14.5 138.5t44.5 127t74.5 110t105 86.5t136.5 56.5t168 20.5q53 0 96 -8t77 -19.5t60 -24.5t44 -23l-41 -198h-34q-36 27 -77 53t-82.5 47t-81.5 33.5t-74 12.5q-23 0 -42.5 -14.5t-44.5 -47.5
q-12 -15 -23 -41.5t-20 -62.5t-14.5 -81t-5.5 -98q0 -93 16 -165t51.5 -121.5t91 -75.5t134.5 -26q40 0 75.5 9.5t65.5 24t54.5 30t43.5 27.5h23v-77q-32 -29 -74.5 -59t-93.5 -54.5t-110 -40t-123 -15.5z" />
    <glyph glyph-name="d" unicode="d" horiz-adv-x="1160" 
d="M423 -20q-88 0 -157.5 35.5t-118 98.5t-74 149t-25.5 188q0 113 30.5 212.5t88 173.5t141 117t190.5 43q43 0 77.5 -8t62 -21.5t50 -31t40.5 -35.5v43v328q0 26 -12 44.5t-49 29.5l-104 30v48l433 87v-1297q0 -26 12 -44t50 -29l92 -26v-48l-395 -87h-20v165v0
q-43 -59 -88 -92t-86 -49t-77 -20t-61 -4zM559 146q19 0 42 1.5t46 8.5t44.5 21t36.5 39v612q-15 11 -36 19.5t-43.5 14t-45 8.5t-41.5 3q-60 0 -103.5 -27.5t-72.5 -75t-43 -111.5t-14 -136q0 -86 13 -155.5t40.5 -119t71 -76t105.5 -26.5z" />
    <glyph glyph-name="e" unicode="e" horiz-adv-x="1001" 
d="M535 -22q-108 0 -197.5 32.5t-154 96.5t-100 157.5t-35.5 216.5q0 102 34 195.5t98 164.5t156.5 113.5t209.5 42.5q99 0 175.5 -33t128 -86t78.5 -121.5t27 -138.5q0 -9 -0.5 -24t-1.5 -30t-2 -28.5t-2 -20.5h-621q1 -188 77.5 -286t238.5 -98q53 0 96.5 10t78.5 24
t62.5 30.5t48.5 28.5h23v-77q-33 -29 -78 -58.5t-98.5 -54.5t-114.5 -40.5t-127 -15.5zM681 599q0 63 -6.5 117.5t-24 94.5t-47.5 63t-76 23t-81 -20.5t-59 -59t-37.5 -94t-16.5 -124.5h348z" />
    <glyph glyph-name="f" unicode="f" horiz-adv-x="703" 
d="M41 59l101 32q20 6 32.5 20.5t12.5 36.5v707h-181l27 108h155q0 136 35.5 241t98 177t147.5 109t185 37q18 0 44 -2.5t54 -8t55 -13t45 -17.5l-45 -193h-29q-26 14 -57.5 29t-64.5 27t-64 20t-56 8q-26 0 -42 -11.5t-23 -40.5q-12 -51 -15 -139t-4 -223h271l-32 -108
h-236v-707q0 -23 12.5 -37.5t32.5 -19.5l119 -32v-59h-578v59z" />
    <glyph glyph-name="g" unicode="g" horiz-adv-x="1099" 
d="M491 -471q-102 0 -186.5 16t-145.5 47.5t-95 77.5t-34 107q0 47 13.5 81t43.5 58.5t78.5 42.5t118.5 33v0q-29 7 -64 22.5t-65.5 40t-51 58t-20.5 76.5q0 42 19.5 71.5t51 51t71 36t79.5 25.5v0q-42 22 -80 49t-66 62t-44.5 80.5t-16.5 104.5q0 64 33 123.5t91.5 105
t139.5 72.5t177 27q45 0 99.5 -7.5t102.5 -20.5h369l-25 -135l-262 54v0q35 -24 57 -54.5t34.5 -61t17 -59t4.5 -48.5q0 -72 -27.5 -132.5t-81 -105t-132 -69.5t-179.5 -25q-42 0 -83 5.5t-71 13.5q-9 -6 -16.5 -13.5t-13 -17.5t-9 -23t-3.5 -29q0 -24 8 -40t21.5 -25.5
t30.5 -13.5t36 -4h280q103 0 172 -26.5t111 -67.5t60 -90t18 -93q0 -85 -44 -155t-120.5 -120t-179.5 -77.5t-221 -27.5zM524 419q41 0 67.5 21t42 56t21.5 80.5t6 95.5q0 51 -8 95t-25.5 75.5t-44 49.5t-63.5 18q-42 0 -69.5 -19.5t-43.5 -52.5t-22.5 -76.5t-6.5 -91.5
q0 -53 7.5 -98.5t25 -79.5t45 -53.5t68.5 -19.5zM541 -369q49 0 98 13t88 38.5t63 63t24 87.5q0 28 -9 53t-28.5 43.5t-50.5 29t-75 10.5h-315q-12 -17 -25 -53t-13 -93q0 -53 25 -90t62 -59.5t79 -32.5t77 -10z" />
    <glyph glyph-name="h" unicode="h" horiz-adv-x="1202" 
d="M23 59l98 32q20 7 32.5 20.5t12.5 35.5v1125q0 26 -14 44.5t-47 29.5l-92 30v48l421 87v-632v-52q42 56 81 89.5t76.5 51.5t74 23.5t74.5 5.5q64 0 120.5 -19.5t98.5 -61t66 -107t24 -156.5v-501q0 -25 13.5 -39.5t31.5 -21.5l86 -32v-59h-533v59l91 32q17 6 30 21t13 40
v410q0 67 -6 117.5t-23.5 84.5t-50.5 51.5t-87 17.5q-23 0 -47.5 -2t-48.5 -10.5t-45.5 -24.5t-38.5 -44v-604q0 -23 12.5 -36t32.5 -21l76 -32v-59h-532v59z" />
    <glyph glyph-name="i" unicode="i" horiz-adv-x="617" 
d="M310 1186q-35 0 -65 12.5t-52 34t-35 51t-13 63.5q0 33 13 62t35 50.5t52 34t65 12.5t65.5 -12.5t53.5 -34t36 -50.5t13 -62q0 -34 -13 -63.5t-36 -51t-53.5 -34t-65.5 -12.5zM39 59l103 32q20 6 32.5 20.5t12.5 36.5v610q0 26 -13.5 43.5t-48.5 30.5l-82 30v48l412 79
v-841q0 -23 12.5 -36.5t32.5 -20.5l94 -32v-59h-555v59z" />
    <glyph glyph-name="j" unicode="j" horiz-adv-x="600" 
d="M305 1186q-35 0 -65 12.5t-52 34t-35 51t-13 63.5q0 33 13 62t35 50.5t52 34t65 12.5t65.5 -12.5t53.5 -34t36 -50.5t13 -62q0 -34 -13 -63.5t-36 -51t-53.5 -34t-65.5 -12.5zM-9 -453q-18 0 -44 2.5t-54 8t-55 13t-45 17.5l45 193h29q25 -14 57 -29t65 -27t64.5 -20
t55.5 -8q26 0 42 11.5t23 40.5q6 25 9.5 61t6 81.5t3 100.5t0.5 119v647q0 29 -14 46t-48 28l-96 30v48l426 79v-884q0 -131 -36 -234.5t-99 -175.5t-149 -110t-186 -38z" />
    <glyph glyph-name="k" unicode="k" horiz-adv-x="1120" 
d="M23 59l98 32q23 8 34 22.5t11 34.5v1132q0 26 -13.5 38t-47.5 25l-92 33v48l421 87v-1024l362 379l-116 44v59h410v-59l-108 -34q-21 -7 -42.5 -22.5t-35.5 -28.5l-203 -190l323 -503q12 -18 31 -30.5t44 -20.5l68 -22v-59h-498v59l84 32l-231 382l-88 -64v-261
q0 -23 12 -35.5t33 -21.5l76 -32v-59h-532v59z" />
    <glyph glyph-name="l" unicode="l" horiz-adv-x="600" 
d="M25 59l98 32q23 8 34 22t11 35v1124q0 26 -13 44.5t-48 29.5l-92 30v48l421 87v-1363q0 -23 12.5 -36t32.5 -21l86 -32v-59h-542v59z" />
    <glyph glyph-name="m" unicode="m" horiz-adv-x="1809" 
d="M45 57l99 32q20 6 31.5 21.5t11.5 37.5v610q0 26 -13.5 43t-46.5 29l-82 30v48l405 81v-162v0q39 54 77.5 87.5t77 52t76 24.5t73.5 6q48 0 92 -10.5t80 -33.5t63.5 -58.5t42.5 -85.5q47 67 90 104.5t83.5 56t78 23t72.5 4.5q63 0 117.5 -19.5t95 -61t63.5 -107
t23 -156.5v-507q0 -22 12 -34.5t33 -20.5l86 -32v-59h-531v57l89 32q20 7 31.5 22t11.5 37v414q0 67 -5.5 117.5t-22 84.5t-47 51.5t-81.5 17.5q-21 0 -45 -2t-47.5 -10.5t-45.5 -25t-38 -45.5v-604q0 -23 13 -35t32 -20l76 -32v-59h-521v57l89 32q20 7 31.5 21t11.5 36v416
q0 67 -5.5 117.5t-22 84.5t-48 51.5t-82.5 17.5q-23 0 -46.5 -2t-46.5 -10t-44 -24.5t-37 -44.5v-604q0 -23 12.5 -36t32.5 -21l76 -32v-59h-531v57z" />
    <glyph glyph-name="n" unicode="n" horiz-adv-x="1224" 
d="M43 59l99 32q19 6 32 20.5t13 36.5v610q0 26 -14.5 44t-47.5 30l-82 30v48l407 79v-162v0q39 55 78.5 88.5t78.5 51.5t77.5 24t76.5 6q65 0 121.5 -19.5t98 -61t65 -107t23.5 -156.5v-501q0 -25 13.5 -39.5t31.5 -21.5l86 -32v-59h-532v59l90 32q17 6 30 21t13 40v410
q0 67 -5.5 117.5t-23 84.5t-50 51.5t-86.5 17.5q-23 0 -48 -2t-48.5 -10t-45.5 -24.5t-39 -44.5v-604q0 -23 13 -36t32 -21l76 -32v-59h-533v59z" />
    <glyph glyph-name="o" unicode="o" horiz-adv-x="1092" 
d="M540 -27q-115 0 -206 36t-154.5 103t-97.5 161t-34 210q0 107 33.5 200.5t98 163.5t158 110t214.5 40q129 0 222 -42.5t153 -113t88.5 -163t28.5 -191.5q0 -106 -33 -199.5t-97.5 -163.5t-158.5 -110.5t-215 -40.5zM553 74q64 0 104 38t62 96t29.5 127.5t7.5 132.5
q0 78 -10.5 154.5t-35.5 137.5t-66.5 99t-104.5 38t-102.5 -37.5t-61.5 -95.5t-30 -127t-8 -132q0 -70 8.5 -146t32.5 -139.5t66 -104.5t109 -41z" />
    <glyph glyph-name="p" unicode="p" horiz-adv-x="1171" 
d="M29 -412l100 32q23 8 34 22t11 35v1081q0 26 -12.5 43.5t-48.5 30.5l-82 30v48l405 79v-160v0q45 62 90 96t86 50t76 19t60 3q89 0 158.5 -35.5t117.5 -98.5t73 -149t25 -188q0 -113 -30.5 -212t-88 -173t-141 -116.5t-189.5 -42.5q-42 0 -76.5 8t-62.5 21.5t-51 31
t-41 35.5v-39v-362q0 -23 12 -37.5t33 -19.5l128 -32v-59h-586v59zM609 105q61 0 105 28t72 76t41.5 111.5t13.5 135.5q0 84 -12.5 153.5t-40 119t-71 77t-105.5 27.5q-18 0 -41 -1.5t-47 -9t-45.5 -22.5t-36.5 -43v-607q12 -11 33.5 -19.5t45.5 -14t47.5 -8.5t40.5 -3z" />
    <glyph glyph-name="q" unicode="q" horiz-adv-x="1136" 
d="M552 -412l131 32q23 5 34 19.5t11 37.5v417v49q-41 -59 -84.5 -91.5t-84 -48t-76 -18.5t-60.5 -3q-88 0 -157.5 34.5t-118 97t-74 148.5t-25.5 189q0 112 36.5 211.5t105.5 173.5t167.5 117.5t222.5 43.5q46 0 95.5 -3.5t101.5 -13t107 -26t112 -43.5v-1234
q0 -22 12.5 -36.5t32.5 -20.5l101 -32v-59h-590v59zM559 146q18 0 41 1t46.5 7.5t45 20t36.5 38.5v607q-13 14 -32.5 25t-41.5 19t-44 12t-40 4q-61 0 -106 -29t-75 -78t-45 -114.5t-15 -137.5q0 -86 12.5 -155.5t40.5 -118.5t71.5 -75t105.5 -26z" />
    <glyph glyph-name="r" unicode="r" horiz-adv-x="915" 
d="M41 59l101 32q19 6 32 20.5t13 36.5v608q0 13 -3 24.5t-10.5 21t-19 17t-29.5 13.5l-92 30v48l411 79v-219v0q23 37 49.5 77.5t60.5 73.5t77.5 54.5t100.5 21.5q29 0 50.5 -2.5t39.5 -6.5t34 -9.5t33 -11.5v-298h-81l-42 75q-5 9 -16.5 16.5t-26 13.5t-31 9.5t-31.5 3.5
q-29 0 -56 -3.5t-52.5 -13.5t-49.5 -28t-48 -48v-546q0 -23 12.5 -37.5t32.5 -19.5l119 -32v-59h-578v59z" />
    <glyph glyph-name="s" unicode="s" horiz-adv-x="915" 
d="M418 -29q-60 0 -109.5 6.5t-91.5 16.5t-78 21.5t-70 21.5v285h81l38 -111q4 -12 12.5 -22.5t19 -19t21.5 -15.5t21 -12q17 -9 43 -19.5t56 -19t60.5 -14.5t57.5 -6q31 0 57.5 7t46 24t30.5 44.5t11 68.5q0 34 -16 56.5t-42 38.5t-58.5 26.5t-64.5 19.5q-50 14 -86 25
t-74 23q-47 15 -84 39.5t-63 59t-39.5 79.5t-13.5 99q0 67 32.5 123.5t89.5 97t133.5 63t164.5 22.5q54 0 94.5 -3t75 -8.5t65.5 -12.5t66 -15l16 -285h-85l-44 108q-8 21 -26 37.5t-39 27.5q-17 9 -37.5 16.5t-43.5 13.5t-46.5 9.5t-46.5 3.5q-18 0 -40 -7t-41 -22
t-32 -39.5t-13 -59.5q0 -36 12.5 -60.5t33 -41t46 -26.5t51.5 -18q43 -14 81.5 -26.5t64.5 -20.5q54 -17 100 -39.5t79.5 -53.5t52 -73t18.5 -99q0 -87 -37.5 -150t-100 -104t-143 -60.5t-166.5 -19.5z" />
    <glyph glyph-name="t" unicode="t" horiz-adv-x="736" 
d="M448 -19q-63 0 -117 13.5t-93.5 40t-61.5 64t-22 85.5v671h-156v63q39 9 70.5 20t54.5 29t36.5 46.5t16.5 72.5l7 123l239 37v-283h340l-32 -108h-308v-620q0 -30 20 -52.5t48.5 -37.5t60 -22.5t55.5 -7.5q16 0 32.5 2t32 4.5t29 6t24.5 6.5h23v-67q-16 -9 -45.5 -23.5
t-68.5 -28.5t-86 -24t-99 -10z" />
    <glyph glyph-name="u" unicode="u" horiz-adv-x="1194" 
d="M458 -20q-65 0 -121 19.5t-96.5 61t-63.5 106.5t-23 157v434q0 26 -15.5 44.5t-46.5 29.5l-82 30v48l412 79v-574q0 -66 5 -116.5t21.5 -84.5t48.5 -51t86 -17q25 0 50 2.5t48.5 10.5t44.5 24t38 42v533q0 26 -15.5 41t-45.5 25l-94 30v48l423 87v-775q0 -26 13.5 -44.5
t48.5 -28.5l92 -26v-48l-397 -87h-21v170v0q-38 -56 -77 -89.5t-78.5 -51.5t-78.5 -23.5t-76 -5.5z" />
    <glyph glyph-name="v" unicode="v" horiz-adv-x="1047" 
d="M112 819q-5 11 -10.5 19.5t-13.5 15t-20.5 13.5t-31.5 15l-68 28v59h547v-59l-144 -38l189 -468l51 -125v0l219 587l-141 44v59h388v-59l-68 -34q-29 -14 -46 -26.5t-27 -36.5l-253 -609l-109 -211h-109z" />
    <glyph glyph-name="w" unicode="w" horiz-adv-x="1612" 
d="M119 821q-8 23 -27.5 36.5t-47.5 24.5l-67 28v59h544v-59l-143 -38l153 -462l41 -131v0l157 458l97 232h129l192 -560l41 -130v1l198 586l-141 44v59h388v-59l-67 -34q-28 -14 -47 -27t-28 -38l-227 -607l-102 -211h-131l-181 530l-40 154v0l-159 -473l-105 -211h-131z
" />
    <glyph glyph-name="x" unicode="x" horiz-adv-x="1059" 
d="M-8 59l78 32q29 12 48.5 25.5t31.5 27.5l257 316l-255 369q-11 16 -29 29t-47 24l-74 28v59h543v-59l-121 -38l114 -192l56 -85v0l198 273l-117 42v59h382v-59l-78 -32q-29 -12 -49 -27t-31 -26l-249 -299l270 -386q12 -17 30 -29.5t46 -23.5l71 -28v-59h-542v59l123 38
l-128 209l-54 84v0l-209 -289l117 -42v-59h-382v59z" />
    <glyph glyph-name="y" unicode="y" horiz-adv-x="1039" 
d="M234 -471q-38 0 -69.5 4t-57 10t-45.5 13.5t-34 15.5l48 207h26q10 -7 24.5 -13.5t31 -12.5t34.5 -11.5t34.5 -9t30.5 -6t23 -2.5q10 0 22.5 1t25 3t23.5 5.5t19 9.5q28 19 44 37t29.5 44t28 65.5t38.5 101.5l-102 139l-300 696q-8 20 -26.5 32.5t-45.5 23.5l-68 28v59
h537v-59l-134 -38l207 -511l41 -97v0l211 602l-132 44v59h379v-59l-70 -34q-26 -13 -44.5 -24.5t-26.5 -31.5l-376 -1004q-35 -94 -73 -150.5t-79 -87t-84.5 -40t-89.5 -9.5z" />
    <glyph glyph-name="z" unicode="z" horiz-adv-x="938" 
d="M35 69l473 703l71 92v0h-284q-35 0 -53.5 -14.5t-25.5 -32.5l-60 -157h-80v309h825v-55l-482 -717l-70 -92v0h336q26 0 48.5 13t29.5 34l59 177h81v-329h-868v69z" />
    <glyph glyph-name="agrave" unicode="&#xe0;" horiz-adv-x="1038" 
d="M306 -20q-59 0 -107 22t-82.5 58.5t-53 84.5t-18.5 100q0 61 21 109.5t56.5 85.5t82 63.5t97 43t101 24.5t95.5 8q9 0 25.5 -1t34.5 -2.5t34.5 -2.5t26.5 -1l1 145q0 48 -5.5 79t-19.5 48t-37 23.5t-58 6.5q-40 0 -84 -17.5t-87 -42.5t-81.5 -52.5t-66.5 -46.5h-32
l-41 195q34 16 75.5 31.5t89.5 28t102 20t112 7.5q70 0 142 -15.5t129.5 -52.5t93.5 -98t35 -151l-6 -496q0 -15 5 -26.5t15.5 -20t26 -13t36.5 -4.5q10 0 34.5 4t46.5 9h20v-70q-14 -11 -41 -25t-61 -27t-71.5 -22t-71.5 -9q-44 0 -81 8t-64.5 26.5t-43 50t-15.5 78.5v0
q-37 -56 -78 -88.5t-82.5 -49t-80 -21t-69.5 -4.5zM459 131q21 0 42.5 3.5t42.5 13t39.5 25t33.5 39.5l2 285q-68 0 -123 -11.5t-93.5 -36.5t-59.5 -63.5t-21 -92.5q0 -47 12.5 -78t32 -50t44 -26.5t48.5 -7.5zM673 1074q-74 46 -125.5 77t-88.5 53.5t-64 39t-51 33.5
q-44 31 -63 58t-19 65q0 17 7.5 32.5t21.5 27.5t33.5 19t43.5 7q22 0 41.5 -3t38.5 -12t37.5 -25.5t38.5 -43.5q18 -24 35 -48t39.5 -56.5t53 -77t74.5 -108.5z" />
    <glyph glyph-name="aacute" unicode="&#xe1;" horiz-adv-x="1038" 
d="M306 -20q-59 0 -107 22t-82.5 58.5t-53 84.5t-18.5 100q0 61 21 109.5t56.5 85.5t82 63.5t97 43t101 24.5t95.5 8q9 0 25.5 -1t34.5 -2.5t34.5 -2.5t26.5 -1l1 145q0 48 -5.5 79t-19.5 48t-37 23.5t-58 6.5q-40 0 -84 -17.5t-87 -42.5t-81.5 -52.5t-66.5 -46.5h-32
l-41 195q34 16 75.5 31.5t89.5 28t102 20t112 7.5q70 0 142 -15.5t129.5 -52.5t93.5 -98t35 -151l-6 -496q0 -15 5 -26.5t15.5 -20t26 -13t36.5 -4.5q10 0 34.5 4t46.5 9h20v-70q-14 -11 -41 -25t-61 -27t-71.5 -22t-71.5 -9q-44 0 -81 8t-64.5 26.5t-43 50t-15.5 78.5v0
q-37 -56 -78 -88.5t-82.5 -49t-80 -21t-69.5 -4.5zM459 131q21 0 42.5 3.5t42.5 13t39.5 25t33.5 39.5l2 285q-68 0 -123 -11.5t-93.5 -36.5t-59.5 -63.5t-21 -92.5q0 -47 12.5 -78t32 -50t44 -26.5t48.5 -7.5zM304 1112q44 64 74.5 108.5t53 77t39.5 56.5t35 48
q20 27 38.5 43.5t37 25.5t38 12t42.5 3q24 0 43.5 -7t33.5 -19t21.5 -27.5t7.5 -32.5q0 -19 -5 -35t-15 -30.5t-25.5 -28.5t-36.5 -29q-24 -17 -51 -33.5t-64 -39t-88.5 -53.5t-125.5 -77z" />
    <glyph glyph-name="acircumflex" unicode="&#xe2;" horiz-adv-x="1038" 
d="M306 -20q-59 0 -107 22t-82.5 58.5t-53 84.5t-18.5 100q0 61 21 109.5t56.5 85.5t82 63.5t97 43t101 24.5t95.5 8q9 0 25.5 -1t34.5 -2.5t34.5 -2.5t26.5 -1l1 145q0 48 -5.5 79t-19.5 48t-37 23.5t-58 6.5q-40 0 -84 -17.5t-87 -42.5t-81.5 -52.5t-66.5 -46.5h-32
l-41 195q34 16 75.5 31.5t89.5 28t102 20t112 7.5q70 0 142 -15.5t129.5 -52.5t93.5 -98t35 -151l-6 -496q0 -15 5 -26.5t15.5 -20t26 -13t36.5 -4.5q10 0 34.5 4t46.5 9h20v-70q-14 -11 -41 -25t-61 -27t-71.5 -22t-71.5 -9q-44 0 -81 8t-64.5 26.5t-43 50t-15.5 78.5v0
q-37 -56 -78 -88.5t-82.5 -49t-80 -21t-69.5 -4.5zM459 131q21 0 42.5 3.5t42.5 13t39.5 25t33.5 39.5l2 285q-68 0 -123 -11.5t-93.5 -36.5t-59.5 -63.5t-21 -92.5q0 -47 12.5 -78t32 -50t44 -26.5t48.5 -7.5zM165 1106l194 289q26 40 61 60t80 20t80.5 -20t61.5 -60
l195 -288l-52 -35l-284 232l-285 -234z" />
    <glyph glyph-name="uni1EA5" unicode="&#x1ea5;" horiz-adv-x="1038" 
d="M306 -20q-59 0 -107 22t-82.5 58.5t-53 84.5t-18.5 100q0 61 21 109.5t56.5 85.5t82 63.5t97 43t101 24.5t95.5 8q9 0 25.5 -1t34.5 -2.5t34.5 -2.5t26.5 -1l1 145q0 48 -5.5 79t-19.5 48t-37 23.5t-58 6.5q-40 0 -84 -17.5t-87 -42.5t-81.5 -52.5t-66.5 -46.5h-32
l-41 195q34 16 75.5 31.5t89.5 28t102 20t112 7.5q70 0 142 -15.5t129.5 -52.5t93.5 -98t35 -151l-6 -496q0 -15 5 -26.5t15.5 -20t26 -13t36.5 -4.5q10 0 34.5 4t46.5 9h20v-70q-14 -11 -41 -25t-61 -27t-71.5 -22t-71.5 -9q-44 0 -81 8t-64.5 26.5t-43 50t-15.5 78.5v0
q-37 -56 -78 -88.5t-82.5 -49t-80 -21t-69.5 -4.5zM459 131q21 0 42.5 3.5t42.5 13t39.5 25t33.5 39.5l2 285q-68 0 -123 -11.5t-93.5 -36.5t-59.5 -63.5t-21 -92.5q0 -47 12.5 -78t32 -50t44 -26.5t48.5 -7.5zM750 1357l88 231q11 29 24 48.5t29.5 31t36.5 16.5t45 5
q21 0 39 -6t31.5 -18t21.5 -29.5t8 -40.5t-14.5 -49t-50.5 -55l-206 -168zM163 1106l194 289q26 40 61 60t80 20t80.5 -20t61.5 -60l195 -288l-52 -35l-284 232l-285 -234z" />
    <glyph glyph-name="uni1EA7" unicode="&#x1ea7;" horiz-adv-x="1038" 
d="M306 -20q-59 0 -107 22t-82.5 58.5t-53 84.5t-18.5 100q0 61 21 109.5t56.5 85.5t82 63.5t97 43t101 24.5t95.5 8q9 0 25.5 -1t34.5 -2.5t34.5 -2.5t26.5 -1l1 145q0 48 -5.5 79t-19.5 48t-37 23.5t-58 6.5q-40 0 -84 -17.5t-87 -42.5t-81.5 -52.5t-66.5 -46.5h-32
l-41 195q34 16 75.5 31.5t89.5 28t102 20t112 7.5q70 0 142 -15.5t129.5 -52.5t93.5 -98t35 -151l-6 -496q0 -15 5 -26.5t15.5 -20t26 -13t36.5 -4.5q10 0 34.5 4t46.5 9h20v-70q-14 -11 -41 -25t-61 -27t-71.5 -22t-71.5 -9q-44 0 -81 8t-64.5 26.5t-43 50t-15.5 78.5v0
q-37 -56 -78 -88.5t-82.5 -49t-80 -21t-69.5 -4.5zM459 131q21 0 42.5 3.5t42.5 13t39.5 25t33.5 39.5l2 285q-68 0 -123 -11.5t-93.5 -36.5t-59.5 -63.5t-21 -92.5q0 -47 12.5 -78t32 -50t44 -26.5t48.5 -7.5zM195 1323l-206 168q-36 29 -50.5 55t-14.5 49t8 40.5
t21.5 29.5t31.5 18t39 6q25 0 45 -5t36.5 -16.5t29.5 -31t24 -48.5l88 -231zM163 1106l194 289q26 40 61 60t80 20t80.5 -20t61.5 -60l195 -288l-52 -35l-284 232l-285 -234z" />
    <glyph glyph-name="uni1EA9" unicode="&#x1ea9;" horiz-adv-x="1038" 
d="M306 -20q-59 0 -107 22t-82.5 58.5t-53 84.5t-18.5 100q0 61 21 109.5t56.5 85.5t82 63.5t97 43t101 24.5t95.5 8q9 0 25.5 -1t34.5 -2.5t34.5 -2.5t26.5 -1l1 145q0 48 -5.5 79t-19.5 48t-37 23.5t-58 6.5q-40 0 -84 -17.5t-87 -42.5t-81.5 -52.5t-66.5 -46.5h-32
l-41 195q34 16 75.5 31.5t89.5 28t102 20t112 7.5q70 0 142 -15.5t129.5 -52.5t93.5 -98t35 -151l-6 -496q0 -15 5 -26.5t15.5 -20t26 -13t36.5 -4.5q10 0 34.5 4t46.5 9h20v-70q-14 -11 -41 -25t-61 -27t-71.5 -22t-71.5 -9q-44 0 -81 8t-64.5 26.5t-43 50t-15.5 78.5v0
q-37 -56 -78 -88.5t-82.5 -49t-80 -21t-69.5 -4.5zM459 131q21 0 42.5 3.5t42.5 13t39.5 25t33.5 39.5l2 285q-68 0 -123 -11.5t-93.5 -36.5t-59.5 -63.5t-21 -92.5q0 -47 12.5 -78t32 -50t44 -26.5t48.5 -7.5zM163 1106l194 289q26 40 61 60t80 20t80.5 -20t61.5 -60
l195 -288l-52 -35l-284 232l-285 -234zM855 1623q36 0 67.5 -6.5t55 -20.5t37 -35t13.5 -49q0 -35 -17 -57.5t-37.5 -42.5t-37.5 -42.5t-17 -57.5v-22h-122v27q0 26 6.5 43t16.5 29t21 21.5t21 20t16.5 24t6.5 34.5t-13.5 35.5t-40.5 14.5q-29 0 -46.5 -15t-31.5 -31h-43v96
q8 4 21.5 10t32 11t41.5 9t50 4z" />
    <glyph glyph-name="uni1EAB" unicode="&#x1eab;" horiz-adv-x="1038" 
d="M306 -20q-59 0 -107 22t-82.5 58.5t-53 84.5t-18.5 100q0 61 21 109.5t56.5 85.5t82 63.5t97 43t101 24.5t95.5 8q9 0 25.5 -1t34.5 -2.5t34.5 -2.5t26.5 -1l1 145q0 48 -5.5 79t-19.5 48t-37 23.5t-58 6.5q-40 0 -84 -17.5t-87 -42.5t-81.5 -52.5t-66.5 -46.5h-32
l-41 195q34 16 75.5 31.5t89.5 28t102 20t112 7.5q70 0 142 -15.5t129.5 -52.5t93.5 -98t35 -151l-6 -496q0 -15 5 -26.5t15.5 -20t26 -13t36.5 -4.5q10 0 34.5 4t46.5 9h20v-70q-14 -11 -41 -25t-61 -27t-71.5 -22t-71.5 -9q-44 0 -81 8t-64.5 26.5t-43 50t-15.5 78.5v0
q-37 -56 -78 -88.5t-82.5 -49t-80 -21t-69.5 -4.5zM459 131q21 0 42.5 3.5t42.5 13t39.5 25t33.5 39.5l2 285q-68 0 -123 -11.5t-93.5 -36.5t-59.5 -63.5t-21 -92.5q0 -47 12.5 -78t32 -50t44 -26.5t48.5 -7.5zM163 1106l194 277q26 38 61 57.5t80 19.5t80.5 -19.5
t61.5 -57.5l195 -276l-52 -35l-284 217l-285 -219zM137 1475q10 60 32.5 110.5t54.5 87.5t73 57.5t88 20.5q32 0 70 -11.5t84 -36.5q48 -26 79.5 -36t48.5 -10q55 0 81 28.5t39 79.5h74q-9 -59 -30.5 -109.5t-53 -87.5t-72 -57.5t-87.5 -20.5q-17 0 -32 2t-32.5 7.5
t-38.5 15t-49 25.5q-45 25 -78.5 36t-51.5 11q-56 0 -84 -30t-41 -82h-74z" />
    <glyph glyph-name="atilde" unicode="&#xe3;" horiz-adv-x="1038" 
d="M306 -20q-59 0 -107 22t-82.5 58.5t-53 84.5t-18.5 100q0 61 21 109.5t56.5 85.5t82 63.5t97 43t101 24.5t95.5 8q9 0 25.5 -1t34.5 -2.5t34.5 -2.5t26.5 -1l1 145q0 48 -5.5 79t-19.5 48t-37 23.5t-58 6.5q-40 0 -84 -17.5t-87 -42.5t-81.5 -52.5t-66.5 -46.5h-32
l-41 195q34 16 75.5 31.5t89.5 28t102 20t112 7.5q70 0 142 -15.5t129.5 -52.5t93.5 -98t35 -151l-6 -496q0 -15 5 -26.5t15.5 -20t26 -13t36.5 -4.5q10 0 34.5 4t46.5 9h20v-70q-14 -11 -41 -25t-61 -27t-71.5 -22t-71.5 -9q-44 0 -81 8t-64.5 26.5t-43 50t-15.5 78.5v0
q-37 -56 -78 -88.5t-82.5 -49t-80 -21t-69.5 -4.5zM459 131q21 0 42.5 3.5t42.5 13t39.5 25t33.5 39.5l2 285q-68 0 -123 -11.5t-93.5 -36.5t-59.5 -63.5t-21 -92.5q0 -47 12.5 -78t32 -50t44 -26.5t48.5 -7.5zM149 1127q10 60 32.5 110.5t54.5 87.5t73 57.5t88 20.5
q32 0 70 -11.5t84 -36.5q48 -26 79.5 -36t48.5 -10q55 0 81 28.5t39 79.5h74q-9 -59 -30.5 -109.5t-53 -87.5t-72 -57.5t-87.5 -20.5q-17 0 -32 2t-32.5 7.5t-38.5 15t-49 25.5q-45 25 -78.5 36t-51.5 11q-56 0 -84 -30t-41 -82h-74z" />
    <glyph glyph-name="adieresis" unicode="&#xe4;" horiz-adv-x="1038" 
d="M306 -20q-59 0 -107 22t-82.5 58.5t-53 84.5t-18.5 100q0 61 21 109.5t56.5 85.5t82 63.5t97 43t101 24.5t95.5 8q9 0 25.5 -1t34.5 -2.5t34.5 -2.5t26.5 -1l1 145q0 48 -5.5 79t-19.5 48t-37 23.5t-58 6.5q-40 0 -84 -17.5t-87 -42.5t-81.5 -52.5t-66.5 -46.5h-32
l-41 195q34 16 75.5 31.5t89.5 28t102 20t112 7.5q70 0 142 -15.5t129.5 -52.5t93.5 -98t35 -151l-6 -496q0 -15 5 -26.5t15.5 -20t26 -13t36.5 -4.5q10 0 34.5 4t46.5 9h20v-70q-14 -11 -41 -25t-61 -27t-71.5 -22t-71.5 -9q-44 0 -81 8t-64.5 26.5t-43 50t-15.5 78.5v0
q-37 -56 -78 -88.5t-82.5 -49t-80 -21t-69.5 -4.5zM459 131q21 0 42.5 3.5t42.5 13t39.5 25t33.5 39.5l2 285q-68 0 -123 -11.5t-93.5 -36.5t-59.5 -63.5t-21 -92.5q0 -47 12.5 -78t32 -50t44 -26.5t48.5 -7.5zM728 1122q-28 0 -52 10.5t-42 28.5t-28.5 42.5t-10.5 52.5
t10.5 52.5t28.5 42.5t42 28.5t52 10.5t53 -10.5t44 -28.5t29.5 -42.5t10.5 -52.5t-10.5 -52.5t-29.5 -42.5t-44 -28.5t-53 -10.5zM280 1122q-28 0 -52 10.5t-42 28.5t-28.5 42.5t-10.5 52.5t10.5 52.5t28.5 42.5t42 28.5t52 10.5t53 -10.5t44 -28.5t29.5 -42.5t10.5 -52.5
t-10.5 -52.5t-29.5 -42.5t-44 -28.5t-53 -10.5z" />
    <glyph glyph-name="amacron" unicode="&#x101;" horiz-adv-x="1038" 
d="M306 -20q-59 0 -107 22t-82.5 58.5t-53 84.5t-18.5 100q0 61 21 109.5t56.5 85.5t82 63.5t97 43t101 24.5t95.5 8q9 0 25.5 -1t34.5 -2.5t34.5 -2.5t26.5 -1l1 145q0 48 -5.5 79t-19.5 48t-37 23.5t-58 6.5q-40 0 -84 -17.5t-87 -42.5t-81.5 -52.5t-66.5 -46.5h-32
l-41 195q34 16 75.5 31.5t89.5 28t102 20t112 7.5q70 0 142 -15.5t129.5 -52.5t93.5 -98t35 -151l-6 -496q0 -15 5 -26.5t15.5 -20t26 -13t36.5 -4.5q10 0 34.5 4t46.5 9h20v-70q-14 -11 -41 -25t-61 -27t-71.5 -22t-71.5 -9q-44 0 -81 8t-64.5 26.5t-43 50t-15.5 78.5v0
q-37 -56 -78 -88.5t-82.5 -49t-80 -21t-69.5 -4.5zM459 131q21 0 42.5 3.5t42.5 13t39.5 25t33.5 39.5l2 285q-68 0 -123 -11.5t-93.5 -36.5t-59.5 -63.5t-21 -92.5q0 -47 12.5 -78t32 -50t44 -26.5t48.5 -7.5zM186 1316h644v-148h-644v148z" />
    <glyph glyph-name="abreve" unicode="&#x103;" horiz-adv-x="1038" 
d="M306 -20q-59 0 -107 22t-82.5 58.5t-53 84.5t-18.5 100q0 61 21 109.5t56.5 85.5t82 63.5t97 43t101 24.5t95.5 8q9 0 25.5 -1t34.5 -2.5t34.5 -2.5t26.5 -1l1 145q0 48 -5.5 79t-19.5 48t-37 23.5t-58 6.5q-40 0 -84 -17.5t-87 -42.5t-81.5 -52.5t-66.5 -46.5h-32
l-41 195q34 16 75.5 31.5t89.5 28t102 20t112 7.5q70 0 142 -15.5t129.5 -52.5t93.5 -98t35 -151l-6 -496q0 -15 5 -26.5t15.5 -20t26 -13t36.5 -4.5q10 0 34.5 4t46.5 9h20v-70q-14 -11 -41 -25t-61 -27t-71.5 -22t-71.5 -9q-44 0 -81 8t-64.5 26.5t-43 50t-15.5 78.5v0
q-37 -56 -78 -88.5t-82.5 -49t-80 -21t-69.5 -4.5zM459 131q21 0 42.5 3.5t42.5 13t39.5 25t33.5 39.5l2 285q-68 0 -123 -11.5t-93.5 -36.5t-59.5 -63.5t-21 -92.5q0 -47 12.5 -78t32 -50t44 -26.5t48.5 -7.5zM507 1100q-55 0 -106.5 16.5t-94.5 56t-73.5 104.5t-43.5 163
l86 17q16 -55 34 -91.5t44.5 -59t63.5 -32t90 -9.5q51 0 87.5 9t63.5 31t46 59t36 93l86 -17q-15 -98 -45 -163.5t-72 -104.5t-93.5 -55.5t-108.5 -16.5z" />
    <glyph glyph-name="uni1EAF" unicode="&#x1eaf;" horiz-adv-x="1038" 
d="M306 -20q-59 0 -107 22t-82.5 58.5t-53 84.5t-18.5 100q0 61 21 109.5t56.5 85.5t82 63.5t97 43t101 24.5t95.5 8q9 0 25.5 -1t34.5 -2.5t34.5 -2.5t26.5 -1l1 145q0 48 -5.5 79t-19.5 48t-37 23.5t-58 6.5q-40 0 -84 -17.5t-87 -42.5t-81.5 -52.5t-66.5 -46.5h-32
l-41 195q34 16 75.5 31.5t89.5 28t102 20t112 7.5q70 0 142 -15.5t129.5 -52.5t93.5 -98t35 -151l-6 -496q0 -15 5 -26.5t15.5 -20t26 -13t36.5 -4.5q10 0 34.5 4t46.5 9h20v-70q-14 -11 -41 -25t-61 -27t-71.5 -22t-71.5 -9q-44 0 -81 8t-64.5 26.5t-43 50t-15.5 78.5v0
q-37 -56 -78 -88.5t-82.5 -49t-80 -21t-69.5 -4.5zM459 131q21 0 42.5 3.5t42.5 13t39.5 25t33.5 39.5l2 285q-68 0 -123 -11.5t-93.5 -36.5t-59.5 -63.5t-21 -92.5q0 -47 12.5 -78t32 -50t44 -26.5t48.5 -7.5zM434 1357l65 250q7 29 18 47.5t25 29t30.5 14.5t34.5 4
q19 0 36 -5.5t29.5 -16.5t20 -27.5t7.5 -37.5q0 -15 -4 -29t-11.5 -27.5t-19 -27.5t-25.5 -29l-155 -170zM504 1100q-55 0 -106.5 16.5t-94.5 56t-73.5 104.5t-43.5 163l86 17q16 -55 34 -91.5t44.5 -59t63.5 -32t90 -9.5q51 0 87.5 9t63.5 31t46 59t36 93l86 -17
q-15 -98 -45 -163.5t-72 -104.5t-93.5 -55.5t-108.5 -16.5z" />
    <glyph glyph-name="uni1EB1" unicode="&#x1eb1;" horiz-adv-x="1038" 
d="M306 -20q-59 0 -107 22t-82.5 58.5t-53 84.5t-18.5 100q0 61 21 109.5t56.5 85.5t82 63.5t97 43t101 24.5t95.5 8q9 0 25.5 -1t34.5 -2.5t34.5 -2.5t26.5 -1l1 145q0 48 -5.5 79t-19.5 48t-37 23.5t-58 6.5q-40 0 -84 -17.5t-87 -42.5t-81.5 -52.5t-66.5 -46.5h-32
l-41 195q34 16 75.5 31.5t89.5 28t102 20t112 7.5q70 0 142 -15.5t129.5 -52.5t93.5 -98t35 -151l-6 -496q0 -15 5 -26.5t15.5 -20t26 -13t36.5 -4.5q10 0 34.5 4t46.5 9h20v-70q-14 -11 -41 -25t-61 -27t-71.5 -22t-71.5 -9q-44 0 -81 8t-64.5 26.5t-43 50t-15.5 78.5v0
q-37 -56 -78 -88.5t-82.5 -49t-80 -21t-69.5 -4.5zM459 131q21 0 42.5 3.5t42.5 13t39.5 25t33.5 39.5l2 285q-68 0 -123 -11.5t-93.5 -36.5t-59.5 -63.5t-21 -92.5q0 -47 12.5 -78t32 -50t44 -26.5t48.5 -7.5zM524 1332l-155 170q-14 15 -25.5 29t-19 27.5t-11.5 27.5
t-4 29q0 21 7.5 37.5t20 27.5t29.5 16.5t36 5.5q18 0 34.5 -4t30.5 -14.5t24.5 -29t18.5 -47.5l65 -250zM504 1100q-55 0 -106.5 16.5t-94.5 56t-73.5 104.5t-43.5 163l86 17q16 -55 34 -91.5t44.5 -59t63.5 -32t90 -9.5q51 0 87.5 9t63.5 31t46 59t36 93l86 -17
q-15 -98 -45 -163.5t-72 -104.5t-93.5 -55.5t-108.5 -16.5z" />
    <glyph glyph-name="uni1EB3" unicode="&#x1eb3;" horiz-adv-x="1038" 
d="M306 -20q-59 0 -107 22t-82.5 58.5t-53 84.5t-18.5 100q0 61 21 109.5t56.5 85.5t82 63.5t97 43t101 24.5t95.5 8q9 0 25.5 -1t34.5 -2.5t34.5 -2.5t26.5 -1l1 145q0 48 -5.5 79t-19.5 48t-37 23.5t-58 6.5q-40 0 -84 -17.5t-87 -42.5t-81.5 -52.5t-66.5 -46.5h-32
l-41 195q34 16 75.5 31.5t89.5 28t102 20t112 7.5q70 0 142 -15.5t129.5 -52.5t93.5 -98t35 -151l-6 -496q0 -15 5 -26.5t15.5 -20t26 -13t36.5 -4.5q10 0 34.5 4t46.5 9h20v-70q-14 -11 -41 -25t-61 -27t-71.5 -22t-71.5 -9q-44 0 -81 8t-64.5 26.5t-43 50t-15.5 78.5v0
q-37 -56 -78 -88.5t-82.5 -49t-80 -21t-69.5 -4.5zM459 131q21 0 42.5 3.5t42.5 13t39.5 25t33.5 39.5l2 285q-68 0 -123 -11.5t-93.5 -36.5t-59.5 -63.5t-21 -92.5q0 -47 12.5 -78t32 -50t44 -26.5t48.5 -7.5zM511 1674q36 0 67.5 -6.5t55 -20.5t37 -35t13.5 -49
q0 -35 -17 -57.5t-37.5 -42.5t-37.5 -42.5t-17 -57.5v-22h-122v27q0 26 6.5 43t16.5 29t21 21.5t21 20t16.5 24t6.5 34.5t-13.5 35.5t-40.5 14.5q-29 0 -46.5 -15t-31.5 -31h-43v96q8 4 21.5 10t32 11t41.5 9t50 4zM505 1100q-55 0 -106.5 16.5t-94.5 56t-73.5 104.5
t-43.5 163l86 17q16 -55 34 -91.5t44.5 -59t63.5 -32t90 -9.5q51 0 87.5 9t63.5 31t46 59t36 93l86 -17q-15 -98 -45 -163.5t-72 -104.5t-93.5 -55.5t-108.5 -16.5z" />
    <glyph glyph-name="uni1EB5" unicode="&#x1eb5;" horiz-adv-x="1038" 
d="M306 -20q-59 0 -107 22t-82.5 58.5t-53 84.5t-18.5 100q0 61 21 109.5t56.5 85.5t82 63.5t97 43t101 24.5t95.5 8q9 0 25.5 -1t34.5 -2.5t34.5 -2.5t26.5 -1l1 145q0 48 -5.5 79t-19.5 48t-37 23.5t-58 6.5q-40 0 -84 -17.5t-87 -42.5t-81.5 -52.5t-66.5 -46.5h-32
l-41 195q34 16 75.5 31.5t89.5 28t102 20t112 7.5q70 0 142 -15.5t129.5 -52.5t93.5 -98t35 -151l-6 -496q0 -15 5 -26.5t15.5 -20t26 -13t36.5 -4.5q10 0 34.5 4t46.5 9h20v-70q-14 -11 -41 -25t-61 -27t-71.5 -22t-71.5 -9q-44 0 -81 8t-64.5 26.5t-43 50t-15.5 78.5v0
q-37 -56 -78 -88.5t-82.5 -49t-80 -21t-69.5 -4.5zM459 131q21 0 42.5 3.5t42.5 13t39.5 25t33.5 39.5l2 285q-68 0 -123 -11.5t-93.5 -36.5t-59.5 -63.5t-21 -92.5q0 -47 12.5 -78t32 -50t44 -26.5t48.5 -7.5zM505 1100q-55 0 -106.5 16.5t-94.5 56t-73.5 104.5t-43.5 163
l86 17q16 -55 34 -91.5t44.5 -59t63.5 -32t90 -9.5q51 0 87.5 9t63.5 31t46 59t36 93l86 -17q-15 -98 -45 -163.5t-72 -104.5t-93.5 -55.5t-108.5 -16.5zM143 1498q10 60 32.5 110.5t54.5 87.5t73 57.5t88 20.5q32 0 70 -11.5t84 -36.5q48 -26 79.5 -36t48.5 -10
q55 0 81 28.5t39 79.5h74q-9 -59 -30.5 -109.5t-53 -87.5t-72 -57.5t-87.5 -20.5q-17 0 -32 2t-32.5 7.5t-38.5 15t-49 25.5q-45 25 -78.5 36t-51.5 11q-56 0 -84 -30t-41 -82h-74z" />
    <glyph glyph-name="aring" unicode="&#xe5;" horiz-adv-x="1038" 
d="M306 -20q-59 0 -107 22t-82.5 58.5t-53 84.5t-18.5 100q0 61 21 109.5t56.5 85.5t82 63.5t97 43t101 24.5t95.5 8q9 0 25.5 -1t34.5 -2.5t34.5 -2.5t26.5 -1l1 145q0 48 -5.5 79t-19.5 48t-37 23.5t-58 6.5q-40 0 -84 -17.5t-87 -42.5t-81.5 -52.5t-66.5 -46.5h-32
l-41 195q34 16 75.5 31.5t89.5 28t102 20t112 7.5q70 0 142 -15.5t129.5 -52.5t93.5 -98t35 -151l-6 -496q0 -15 5 -26.5t15.5 -20t26 -13t36.5 -4.5q10 0 34.5 4t46.5 9h20v-70q-14 -11 -41 -25t-61 -27t-71.5 -22t-71.5 -9q-44 0 -81 8t-64.5 26.5t-43 50t-15.5 78.5v0
q-37 -56 -78 -88.5t-82.5 -49t-80 -21t-69.5 -4.5zM459 131q21 0 42.5 3.5t42.5 13t39.5 25t33.5 39.5l2 285q-68 0 -123 -11.5t-93.5 -36.5t-59.5 -63.5t-21 -92.5q0 -47 12.5 -78t32 -50t44 -26.5t48.5 -7.5zM500 1069q-48 0 -89 13t-71 39t-47 64.5t-17 88.5t18.5 89
t51 65.5t75.5 40.5t92 14q47 0 87 -13.5t69.5 -39t46 -64t16.5 -87.5q0 -51 -19 -90t-50.5 -65.5t-74 -40.5t-88.5 -14zM513 1130q48 0 70 37t22 97q0 33 -7.5 62t-21 50.5t-33 33.5t-43.5 12q-48 0 -71.5 -36t-23.5 -100q0 -35 7.5 -63.5t22 -49t34.5 -32t44 -11.5z" />
    <glyph glyph-name="aringacute" unicode="&#x1fb;" horiz-adv-x="1038" 
d="M306 -20q-59 0 -107 22t-82.5 58.5t-53 84.5t-18.5 100q0 61 21 109.5t56.5 85.5t82 63.5t97 43t101 24.5t95.5 8q9 0 25.5 -1t34.5 -2.5t34.5 -2.5t26.5 -1l1 145q0 48 -5.5 79t-19.5 48t-37 23.5t-58 6.5q-40 0 -84 -17.5t-87 -42.5t-81.5 -52.5t-66.5 -46.5h-32
l-41 195q34 16 75.5 31.5t89.5 28t102 20t112 7.5q70 0 142 -15.5t129.5 -52.5t93.5 -98t35 -151l-6 -496q0 -15 5 -26.5t15.5 -20t26 -13t36.5 -4.5q10 0 34.5 4t46.5 9h20v-70q-14 -11 -41 -25t-61 -27t-71.5 -22t-71.5 -9q-44 0 -81 8t-64.5 26.5t-43 50t-15.5 78.5v0
q-37 -56 -78 -88.5t-82.5 -49t-80 -21t-69.5 -4.5zM459 131q21 0 42.5 3.5t42.5 13t39.5 25t33.5 39.5l2 285q-68 0 -123 -11.5t-93.5 -36.5t-59.5 -63.5t-21 -92.5q0 -47 12.5 -78t32 -50t44 -26.5t48.5 -7.5zM504 1061q-48 0 -89 13t-71 39t-47 64.5t-17 88.5t18.5 89
t51 65.5t75.5 40.5t92 14q47 0 87 -13.5t69.5 -39t46 -64t16.5 -87.5q0 -51 -19 -90t-50.5 -65.5t-74 -40.5t-88.5 -14zM517 1122q48 0 70 37t22 97q0 33 -7.5 62t-21 50.5t-33 33.5t-43.5 12q-48 0 -71.5 -36t-23.5 -100q0 -35 7.5 -63.5t22 -49t34.5 -32t44 -11.5z
M258 1509q44 64 74.5 108.5t53 77t39.5 56.5t35 48q20 27 38.5 43.5t37 25.5t38 12t42.5 3q24 0 43.5 -7t33.5 -19t21.5 -27.5t7.5 -32.5q0 -19 -5 -35t-15 -30.5t-25.5 -28.5t-36.5 -29q-24 -17 -51 -33.5t-64 -39t-88.5 -53.5t-125.5 -77z" />
    <glyph glyph-name="uni1EA3" unicode="&#x1ea3;" horiz-adv-x="1038" 
d="M306 -20q-59 0 -107 22t-82.5 58.5t-53 84.5t-18.5 100q0 61 21 109.5t56.5 85.5t82 63.5t97 43t101 24.5t95.5 8q9 0 25.5 -1t34.5 -2.5t34.5 -2.5t26.5 -1l1 145q0 48 -5.5 79t-19.5 48t-37 23.5t-58 6.5q-40 0 -84 -17.5t-87 -42.5t-81.5 -52.5t-66.5 -46.5h-32
l-41 195q34 16 75.5 31.5t89.5 28t102 20t112 7.5q70 0 142 -15.5t129.5 -52.5t93.5 -98t35 -151l-6 -496q0 -15 5 -26.5t15.5 -20t26 -13t36.5 -4.5q10 0 34.5 4t46.5 9h20v-70q-14 -11 -41 -25t-61 -27t-71.5 -22t-71.5 -9q-44 0 -81 8t-64.5 26.5t-43 50t-15.5 78.5v0
q-37 -56 -78 -88.5t-82.5 -49t-80 -21t-69.5 -4.5zM459 131q21 0 42.5 3.5t42.5 13t39.5 25t33.5 39.5l2 285q-68 0 -123 -11.5t-93.5 -36.5t-59.5 -63.5t-21 -92.5q0 -47 12.5 -78t32 -50t44 -26.5t48.5 -7.5zM500 1553q49 0 92 -9.5t74.5 -29.5t49.5 -50t18 -71
q0 -34 -11.5 -59t-28.5 -46t-36.5 -40t-36.5 -39.5t-28.5 -46t-11.5 -58.5v-31h-151v39q0 37 10 63.5t25 47t32 38t32 35.5t25 40t10 52q0 31 -21 51.5t-66 20.5q-23 0 -41.5 -6t-33.5 -15t-27.5 -21t-24.5 -24h-47v109q12 6 30.5 14.5t43 16.5t55.5 13.5t68 5.5z" />
    <glyph glyph-name="uni1EA1" unicode="&#x1ea1;" horiz-adv-x="1038" 
d="M306 -20q-59 0 -107 22t-82.5 58.5t-53 84.5t-18.5 100q0 61 21 109.5t56.5 85.5t82 63.5t97 43t101 24.5t95.5 8q9 0 25.5 -1t34.5 -2.5t34.5 -2.5t26.5 -1l1 145q0 48 -5.5 79t-19.5 48t-37 23.5t-58 6.5q-40 0 -84 -17.5t-87 -42.5t-81.5 -52.5t-66.5 -46.5h-32
l-41 195q34 16 75.5 31.5t89.5 28t102 20t112 7.5q70 0 142 -15.5t129.5 -52.5t93.5 -98t35 -151l-6 -496q0 -15 5 -26.5t15.5 -20t26 -13t36.5 -4.5q10 0 34.5 4t46.5 9h20v-70q-14 -11 -41 -25t-61 -27t-71.5 -22t-71.5 -9q-44 0 -81 8t-64.5 26.5t-43 50t-15.5 78.5v0
q-37 -56 -78 -88.5t-82.5 -49t-80 -21t-69.5 -4.5zM459 131q21 0 42.5 3.5t42.5 13t39.5 25t33.5 39.5l2 285q-68 0 -123 -11.5t-93.5 -36.5t-59.5 -63.5t-21 -92.5q0 -47 12.5 -78t32 -50t44 -26.5t48.5 -7.5zM538 -449q-35 0 -65 12.5t-52 34t-35 51t-13 63.5q0 33 13 62
t35 50.5t52 34t65 12.5t65.5 -12.5t53.5 -34t36 -50.5t13 -62q0 -34 -13 -63.5t-36 -51t-53.5 -34t-65.5 -12.5z" />
    <glyph glyph-name="uni1EAD" unicode="&#x1ead;" horiz-adv-x="1038" 
d="M306 -20q-59 0 -107 22t-82.5 58.5t-53 84.5t-18.5 100q0 61 21 109.5t56.5 85.5t82 63.5t97 43t101 24.5t95.5 8q9 0 25.5 -1t34.5 -2.5t34.5 -2.5t26.5 -1l1 145q0 48 -5.5 79t-19.5 48t-37 23.5t-58 6.5q-40 0 -84 -17.5t-87 -42.5t-81.5 -52.5t-66.5 -46.5h-32
l-41 195q34 16 75.5 31.5t89.5 28t102 20t112 7.5q70 0 142 -15.5t129.5 -52.5t93.5 -98t35 -151l-6 -496q0 -15 5 -26.5t15.5 -20t26 -13t36.5 -4.5q10 0 34.5 4t46.5 9h20v-70q-14 -11 -41 -25t-61 -27t-71.5 -22t-71.5 -9q-44 0 -81 8t-64.5 26.5t-43 50t-15.5 78.5v0
q-37 -56 -78 -88.5t-82.5 -49t-80 -21t-69.5 -4.5zM459 131q21 0 42.5 3.5t42.5 13t39.5 25t33.5 39.5l2 285q-68 0 -123 -11.5t-93.5 -36.5t-59.5 -63.5t-21 -92.5q0 -47 12.5 -78t32 -50t44 -26.5t48.5 -7.5zM165 1106l194 289q26 40 61 60t80 20t80.5 -20t61.5 -60
l195 -288l-52 -35l-284 232l-285 -234zM538 -449q-35 0 -65 12.5t-52 34t-35 51t-13 63.5q0 33 13 62t35 50.5t52 34t65 12.5t65.5 -12.5t53.5 -34t36 -50.5t13 -62q0 -34 -13 -63.5t-36 -51t-53.5 -34t-65.5 -12.5z" />
    <glyph glyph-name="uni1EB7" unicode="&#x1eb7;" horiz-adv-x="1038" 
d="M306 -20q-59 0 -107 22t-82.5 58.5t-53 84.5t-18.5 100q0 61 21 109.5t56.5 85.5t82 63.5t97 43t101 24.5t95.5 8q9 0 25.5 -1t34.5 -2.5t34.5 -2.5t26.5 -1l1 145q0 48 -5.5 79t-19.5 48t-37 23.5t-58 6.5q-40 0 -84 -17.5t-87 -42.5t-81.5 -52.5t-66.5 -46.5h-32
l-41 195q34 16 75.5 31.5t89.5 28t102 20t112 7.5q70 0 142 -15.5t129.5 -52.5t93.5 -98t35 -151l-6 -496q0 -15 5 -26.5t15.5 -20t26 -13t36.5 -4.5q10 0 34.5 4t46.5 9h20v-70q-14 -11 -41 -25t-61 -27t-71.5 -22t-71.5 -9q-44 0 -81 8t-64.5 26.5t-43 50t-15.5 78.5v0
q-37 -56 -78 -88.5t-82.5 -49t-80 -21t-69.5 -4.5zM459 131q21 0 42.5 3.5t42.5 13t39.5 25t33.5 39.5l2 285q-68 0 -123 -11.5t-93.5 -36.5t-59.5 -63.5t-21 -92.5q0 -47 12.5 -78t32 -50t44 -26.5t48.5 -7.5zM507 1100q-55 0 -106.5 16.5t-94.5 56t-73.5 104.5t-43.5 163
l86 17q16 -55 34 -91.5t44.5 -59t63.5 -32t90 -9.5q51 0 87.5 9t63.5 31t46 59t36 93l86 -17q-15 -98 -45 -163.5t-72 -104.5t-93.5 -55.5t-108.5 -16.5zM538 -449q-35 0 -65 12.5t-52 34t-35 51t-13 63.5q0 33 13 62t35 50.5t52 34t65 12.5t65.5 -12.5t53.5 -34t36 -50.5
t13 -62q0 -34 -13 -63.5t-36 -51t-53.5 -34t-65.5 -12.5z" />
    <glyph glyph-name="aogonek" unicode="&#x105;" horiz-adv-x="1038" 
d="M459 131q21 0 42.5 3.5t42.5 13t39.5 25t33.5 39.5l2 285q-68 0 -123 -11.5t-93.5 -36.5t-59.5 -63.5t-21 -92.5q0 -47 12.5 -78t32 -50t44 -26.5t48.5 -7.5zM813 -439q-55 0 -99.5 14.5t-76 40t-49 59t-17.5 71.5q0 39 13 73t35.5 64t51.5 56.5t62 49.5
q-54 14 -85.5 49.5t-31.5 104.5l-19 -26q-32 -44 -69.5 -71t-76.5 -41.5t-76.5 -19.5t-68.5 -5q-59 0 -107 22t-82.5 58.5t-53 84.5t-18.5 100q0 61 21 109.5t56.5 85.5t82 63.5t97 43t101 24.5t95.5 8q9 0 25.5 -1t34.5 -2.5t34.5 -2.5t26.5 -1l1 145q0 48 -5.5 79
t-19.5 48t-37 23.5t-58 6.5q-40 0 -84 -17.5t-87 -42.5t-81.5 -52.5t-66.5 -46.5h-32l-41 195q34 16 75.5 31.5t89.5 28t102 20t112 7.5q70 0 142 -15.5t129.5 -52.5t93.5 -98t35 -151l-6 -496q0 -15 5 -26.5t15.5 -20t26 -13t36.5 -4.5q10 0 34.5 4t46.5 9h20v-70
q-14 -10 -40 -24t-59 -26.5t-69 -22t-70 -10.5q-35 -39 -55.5 -87.5t-20.5 -108.5q0 -27 7 -48.5t21 -36.5t35 -23t49 -8q18 0 43 5.5t46 16.5h21v-89q-40 -17 -83.5 -28.5t-76.5 -11.5z" />
    <glyph glyph-name="ae" unicode="&#xe6;" horiz-adv-x="1550" 
d="M1084 -22q-69 0 -128 12.5t-108.5 38t-90.5 63t-72 87.5v0q-47 -75 -99 -115.5t-101.5 -59t-93.5 -21.5t-75 -3q-61 0 -111 22t-85.5 58.5t-55 84.5t-19.5 100q0 61 21 109.5t56.5 85.5t82 63.5t97 43t101 24.5t95.5 8q9 0 26 -1t35 -2.5t35 -2.5t27 -1l1 145
q0 48 -6 78.5t-20 48t-37.5 24t-58.5 6.5q-27 0 -55.5 -8t-57.5 -21.5t-57.5 -30.5t-55.5 -35t-50.5 -34.5t-42.5 -29.5h-32l-41 195q34 16 75.5 31.5t89.5 28t102 20t112 7.5q42 0 84 -6.5t82.5 -20.5t77 -36t66.5 -53q54 48 127.5 82t170.5 34q99 0 175.5 -31.5t128 -84
t78.5 -121t27 -142.5q0 -10 -0.5 -25.5t-1.5 -31.5t-2 -29t-2 -17h-620q1 -187 77.5 -285.5t237.5 -98.5q53 0 96.5 10t78.5 24t62.5 30.5t48.5 28.5h23v-77q-34 -30 -78.5 -60t-98 -54t-114.5 -39.5t-127 -15.5zM1230 599q0 63 -6.5 117.5t-24 94.5t-47.5 63t-76 23
q-92 0 -139 -79.5t-54 -218.5h347zM461 131q21 0 42.5 3.5t42.5 13t39.5 25t33.5 39.5l2 285q-68 0 -123 -11.5t-94 -36.5t-60.5 -63.5t-21.5 -92.5q0 -47 12.5 -78t32.5 -50t45 -26.5t49 -7.5z" />
    <glyph glyph-name="aeacute" unicode="&#x1fd;" horiz-adv-x="1550" 
d="M1084 -22q-69 0 -128 12.5t-108.5 38t-90.5 63t-72 87.5v0q-47 -75 -99 -115.5t-101.5 -59t-93.5 -21.5t-75 -3q-61 0 -111 22t-85.5 58.5t-55 84.5t-19.5 100q0 61 21 109.5t56.5 85.5t82 63.5t97 43t101 24.5t95.5 8q9 0 26 -1t35 -2.5t35 -2.5t27 -1l1 145
q0 48 -6 78.5t-20 48t-37.5 24t-58.5 6.5q-27 0 -55.5 -8t-57.5 -21.5t-57.5 -30.5t-55.5 -35t-50.5 -34.5t-42.5 -29.5h-32l-41 195q34 16 75.5 31.5t89.5 28t102 20t112 7.5q42 0 84 -6.5t82.5 -20.5t77 -36t66.5 -53q54 48 127.5 82t170.5 34q99 0 175.5 -31.5t128 -84
t78.5 -121t27 -142.5q0 -10 -0.5 -25.5t-1.5 -31.5t-2 -29t-2 -17h-620q1 -187 77.5 -285.5t237.5 -98.5q53 0 96.5 10t78.5 24t62.5 30.5t48.5 28.5h23v-77q-34 -30 -78.5 -60t-98 -54t-114.5 -39.5t-127 -15.5zM1230 599q0 63 -6.5 117.5t-24 94.5t-47.5 63t-76 23
q-92 0 -139 -79.5t-54 -218.5h347zM461 131q21 0 42.5 3.5t42.5 13t39.5 25t33.5 39.5l2 285q-68 0 -123 -11.5t-94 -36.5t-60.5 -63.5t-21.5 -92.5q0 -47 12.5 -78t32.5 -50t45 -26.5t49 -7.5zM598 1112q44 64 74.5 108.5t53 77t39.5 56.5t35 48q20 27 38.5 43.5t37 25.5
t38 12t42.5 3q24 0 43.5 -7t33.5 -19t21.5 -27.5t7.5 -32.5q0 -19 -5 -35t-15 -30.5t-25.5 -28.5t-36.5 -29q-24 -17 -51 -33.5t-64 -39t-88.5 -53.5t-125.5 -77z" />
    <glyph glyph-name="cacute" unicode="&#x107;" horiz-adv-x="892" 
d="M482 -22q-106 0 -187 38.5t-136 104t-83 151.5t-28 182q0 71 14.5 138.5t44.5 127t74.5 110t105 86.5t136.5 56.5t168 20.5q53 0 96 -8t77 -19.5t60 -24.5t44 -23l-41 -198h-34q-36 27 -77 53t-82.5 47t-81.5 33.5t-74 12.5q-23 0 -42.5 -14.5t-44.5 -47.5
q-12 -15 -23 -41.5t-20 -62.5t-14.5 -81t-5.5 -98q0 -93 16 -165t51.5 -121.5t91 -75.5t134.5 -26q40 0 75.5 9.5t65.5 24t54.5 30t43.5 27.5h23v-77q-32 -29 -74.5 -59t-93.5 -54.5t-110 -40t-123 -15.5zM313 1112q44 64 74.5 108.5t53 77t39.5 56.5t35 48q20 27 38.5 43.5
t37 25.5t38 12t42.5 3q24 0 43.5 -7t33.5 -19t21.5 -27.5t7.5 -32.5q0 -19 -5 -35t-15 -30.5t-25.5 -28.5t-36.5 -29q-24 -17 -51 -33.5t-64 -39t-88.5 -53.5t-125.5 -77z" />
    <glyph glyph-name="ccircumflex" unicode="&#x109;" horiz-adv-x="892" 
d="M482 -22q-106 0 -187 38.5t-136 104t-83 151.5t-28 182q0 71 14.5 138.5t44.5 127t74.5 110t105 86.5t136.5 56.5t168 20.5q53 0 96 -8t77 -19.5t60 -24.5t44 -23l-41 -198h-34q-36 27 -77 53t-82.5 47t-81.5 33.5t-74 12.5q-23 0 -42.5 -14.5t-44.5 -47.5
q-12 -15 -23 -41.5t-20 -62.5t-14.5 -81t-5.5 -98q0 -93 16 -165t51.5 -121.5t91 -75.5t134.5 -26q40 0 75.5 9.5t65.5 24t54.5 30t43.5 27.5h23v-77q-32 -29 -74.5 -59t-93.5 -54.5t-110 -40t-123 -15.5zM225 1106l194 289q26 40 61 60t80 20t80.5 -20t61.5 -60l195 -288
l-52 -35l-284 232l-285 -234z" />
    <glyph glyph-name="ccaron" unicode="&#x10d;" horiz-adv-x="892" 
d="M482 -22q-106 0 -187 38.5t-136 104t-83 151.5t-28 182q0 71 14.5 138.5t44.5 127t74.5 110t105 86.5t136.5 56.5t168 20.5q53 0 96 -8t77 -19.5t60 -24.5t44 -23l-41 -198h-34q-36 27 -77 53t-82.5 47t-81.5 33.5t-74 12.5q-23 0 -42.5 -14.5t-44.5 -47.5
q-12 -15 -23 -41.5t-20 -62.5t-14.5 -81t-5.5 -98q0 -93 16 -165t51.5 -121.5t91 -75.5t134.5 -26q40 0 75.5 9.5t65.5 24t54.5 30t43.5 27.5h23v-77q-32 -29 -74.5 -59t-93.5 -54.5t-110 -40t-123 -15.5zM560 1089q-45 0 -79 20t-62 60l-194 279l51 36l285 -224l284 222
l52 -35l-195 -278q-28 -40 -62.5 -60t-79.5 -20z" />
    <glyph glyph-name="cdotaccent" unicode="&#x10b;" horiz-adv-x="892" 
d="M482 -22q-106 0 -187 38.5t-136 104t-83 151.5t-28 182q0 71 14.5 138.5t44.5 127t74.5 110t105 86.5t136.5 56.5t168 20.5q53 0 96 -8t77 -19.5t60 -24.5t44 -23l-41 -198h-34q-36 27 -77 53t-82.5 47t-81.5 33.5t-74 12.5q-23 0 -42.5 -14.5t-44.5 -47.5
q-12 -15 -23 -41.5t-20 -62.5t-14.5 -81t-5.5 -98q0 -93 16 -165t51.5 -121.5t91 -75.5t134.5 -26q40 0 75.5 9.5t65.5 24t54.5 30t43.5 27.5h23v-77q-32 -29 -74.5 -59t-93.5 -54.5t-110 -40t-123 -15.5zM558 1036q-35 0 -65 12.5t-52 34t-35 51t-13 63.5q0 33 13 62
t35 50.5t52 34t65 12.5t65.5 -12.5t53.5 -34t36 -50.5t13 -62q0 -34 -13 -63.5t-36 -51t-53.5 -34t-65.5 -12.5z" />
    <glyph glyph-name="ccedilla" unicode="&#xe7;" horiz-adv-x="892" 
d="M499 -446q-51 0 -98.5 16t-89.5 39v91h23q12 -8 29 -17.5t37.5 -17.5t43 -13.5t46.5 -5.5q45 0 69.5 24t24.5 60q0 44 -33.5 58.5t-108.5 14.5v177q-96 7 -170 48t-123.5 105t-75 147t-25.5 174q0 71 14.5 138.5t44.5 127t74.5 110t105 86.5t136.5 56.5t168 20.5
q53 0 96 -8t77 -19.5t60 -24.5t44 -23l-41 -198h-34q-36 27 -77 53t-82.5 47t-81.5 33.5t-74 12.5q-23 0 -42.5 -14.5t-44.5 -47.5q-12 -15 -23 -41.5t-20 -62.5t-14.5 -81t-5.5 -98q0 -93 16 -165t51.5 -121.5t91 -75.5t134.5 -26q40 0 75.5 9.5t65.5 24t54.5 30t43.5 27.5
h23v-77q-29 -26 -66.5 -53t-81.5 -50t-94.5 -40t-106.5 -23v-73q40 0 77.5 -7.5t66.5 -25.5t46.5 -47.5t17.5 -72.5q0 -48 -17.5 -85.5t-50 -63t-77 -39t-98.5 -13.5z" />
    <glyph glyph-name="dcaron" unicode="&#x10f;" horiz-adv-x="1434" 
d="M423 -20q-88 0 -157.5 35.5t-118 98.5t-74 149t-25.5 188q0 113 30.5 212.5t88 173.5t141 117t190.5 43q43 0 77.5 -8t62 -21.5t50 -31t40.5 -35.5v43v328q0 26 -12 44.5t-49 29.5l-104 30v48l433 87v-1297q0 -26 12 -44t50 -29l92 -26v-48l-395 -87h-20v165v0
q-43 -59 -88 -92t-86 -49t-77 -20t-61 -4zM559 146q19 0 42 1.5t46 8.5t44.5 21t36.5 39v612q-15 11 -36 19.5t-43.5 14t-45 8.5t-41.5 3q-60 0 -103.5 -27.5t-72.5 -75t-43 -111.5t-14 -136q0 -86 13 -155.5t40.5 -119t71 -76t105.5 -26.5zM1196 1080q23 19 44 38.5
t38.5 40.5t30 44.5t18.5 51.5q-39 24 -64 39.5t-39.5 30.5t-20.5 32.5t-6 44.5q0 16 8 32.5t23 29t36 20.5t47 8q40 0 67.5 -12.5t44.5 -33.5t24 -49.5t7 -59.5q0 -63 -23.5 -111.5t-57 -85.5t-71 -62.5t-64.5 -42.5z" />
    <glyph glyph-name="dcroat" unicode="&#x111;" horiz-adv-x="1160" 
d="M405 1226h323v46q0 26 -12 44.5t-49 29.5l-104 30v48l433 87v-285h154v-110h-154v-902q0 -26 12 -44t50 -29l92 -26v-48l-395 -87h-20v165v0q-43 -59 -88 -92t-86 -49t-77 -20t-61 -4q-88 0 -157.5 35.5t-118 98.5t-74 149t-25.5 188q0 113 30.5 212.5t88 173.5t141 117
t190.5 43q43 0 77.5 -8t62 -21.5t50 -31t40.5 -35.5v215h-323v110zM559 146q19 0 42 1.5t46 8.5t44.5 21t36.5 39v612q-15 11 -36 19.5t-43.5 14t-45 8.5t-41.5 3q-60 0 -103.5 -27.5t-72.5 -75t-43 -111.5t-14 -136q0 -86 13 -155.5t40.5 -119t71 -76t105.5 -26.5z" />
    <glyph glyph-name="egrave" unicode="&#xe8;" horiz-adv-x="1001" 
d="M535 -22q-108 0 -197.5 32.5t-154 96.5t-100 157.5t-35.5 216.5q0 102 34 195.5t98 164.5t156.5 113.5t209.5 42.5q99 0 175.5 -33t128 -86t78.5 -121.5t27 -138.5q0 -9 -0.5 -24t-1.5 -30t-2 -28.5t-2 -20.5h-621q1 -188 77.5 -286t238.5 -98q53 0 96.5 10t78.5 24
t62.5 30.5t48.5 28.5h23v-77q-33 -29 -78 -58.5t-98.5 -54.5t-114.5 -40.5t-127 -15.5zM681 599q0 63 -6.5 117.5t-24 94.5t-47.5 63t-76 23t-81 -20.5t-59 -59t-37.5 -94t-16.5 -124.5h348zM664 1074q-74 46 -125.5 77t-88.5 53.5t-64 39t-51 33.5q-44 31 -63 58t-19 65
q0 17 7.5 32.5t21.5 27.5t33.5 19t43.5 7q22 0 41.5 -3t38.5 -12t37.5 -25.5t38.5 -43.5q18 -24 35 -48t39.5 -56.5t53 -77t74.5 -108.5z" />
    <glyph glyph-name="eacute" unicode="&#xe9;" horiz-adv-x="1001" 
d="M535 -22q-108 0 -197.5 32.5t-154 96.5t-100 157.5t-35.5 216.5q0 102 34 195.5t98 164.5t156.5 113.5t209.5 42.5q99 0 175.5 -33t128 -86t78.5 -121.5t27 -138.5q0 -9 -0.5 -24t-1.5 -30t-2 -28.5t-2 -20.5h-621q1 -188 77.5 -286t238.5 -98q53 0 96.5 10t78.5 24
t62.5 30.5t48.5 28.5h23v-77q-33 -29 -78 -58.5t-98.5 -54.5t-114.5 -40.5t-127 -15.5zM681 599q0 63 -6.5 117.5t-24 94.5t-47.5 63t-76 23t-81 -20.5t-59 -59t-37.5 -94t-16.5 -124.5h348zM323 1112q44 64 74.5 108.5t53 77t39.5 56.5t35 48q20 27 38.5 43.5t37 25.5
t38 12t42.5 3q24 0 43.5 -7t33.5 -19t21.5 -27.5t7.5 -32.5q0 -19 -5 -35t-15 -30.5t-25.5 -28.5t-36.5 -29q-24 -17 -51 -33.5t-64 -39t-88.5 -53.5t-125.5 -77z" />
    <glyph glyph-name="ecircumflex" unicode="&#xea;" horiz-adv-x="1001" 
d="M535 -22q-108 0 -197.5 32.5t-154 96.5t-100 157.5t-35.5 216.5q0 102 34 195.5t98 164.5t156.5 113.5t209.5 42.5q99 0 175.5 -33t128 -86t78.5 -121.5t27 -138.5q0 -9 -0.5 -24t-1.5 -30t-2 -28.5t-2 -20.5h-621q1 -188 77.5 -286t238.5 -98q53 0 96.5 10t78.5 24
t62.5 30.5t48.5 28.5h23v-77q-33 -29 -78 -58.5t-98.5 -54.5t-114.5 -40.5t-127 -15.5zM681 599q0 63 -6.5 117.5t-24 94.5t-47.5 63t-76 23t-81 -20.5t-59 -59t-37.5 -94t-16.5 -124.5h348zM184 1106l194 289q26 40 61 60t80 20t80.5 -20t61.5 -60l195 -288l-52 -35
l-284 232l-285 -234z" />
    <glyph glyph-name="uni1EBF" unicode="&#x1ebf;" horiz-adv-x="1001" 
d="M535 -22q-108 0 -197.5 32.5t-154 96.5t-100 157.5t-35.5 216.5q0 102 34 195.5t98 164.5t156.5 113.5t209.5 42.5q99 0 175.5 -33t128 -86t78.5 -121.5t27 -138.5q0 -9 -0.5 -24t-1.5 -30t-2 -28.5t-2 -20.5h-621q1 -188 77.5 -286t238.5 -98q53 0 96.5 10t78.5 24
t62.5 30.5t48.5 28.5h23v-77q-33 -29 -78 -58.5t-98.5 -54.5t-114.5 -40.5t-127 -15.5zM681 599q0 63 -6.5 117.5t-24 94.5t-47.5 63t-76 23t-81 -20.5t-59 -59t-37.5 -94t-16.5 -124.5h348zM771 1357l88 231q11 29 24 48.5t29.5 31t36.5 16.5t45 5q21 0 39 -6t31.5 -18
t21.5 -29.5t8 -40.5t-14.5 -49t-50.5 -55l-206 -168zM184 1106l194 289q26 40 61 60t80 20t80.5 -20t61.5 -60l195 -288l-52 -35l-284 232l-285 -234z" />
    <glyph glyph-name="uni1EC1" unicode="&#x1ec1;" horiz-adv-x="1001" 
d="M535 -22q-108 0 -197.5 32.5t-154 96.5t-100 157.5t-35.5 216.5q0 102 34 195.5t98 164.5t156.5 113.5t209.5 42.5q99 0 175.5 -33t128 -86t78.5 -121.5t27 -138.5q0 -9 -0.5 -24t-1.5 -30t-2 -28.5t-2 -20.5h-621q1 -188 77.5 -286t238.5 -98q53 0 96.5 10t78.5 24
t62.5 30.5t48.5 28.5h23v-77q-33 -29 -78 -58.5t-98.5 -54.5t-114.5 -40.5t-127 -15.5zM681 599q0 63 -6.5 117.5t-24 94.5t-47.5 63t-76 23t-81 -20.5t-59 -59t-37.5 -94t-16.5 -124.5h348zM216 1323l-206 168q-36 29 -50.5 55t-14.5 49t8 40.5t21.5 29.5t31.5 18t39 6
q25 0 45 -5t36.5 -16.5t29.5 -31t24 -48.5l88 -231zM184 1106l194 289q26 40 61 60t80 20t80.5 -20t61.5 -60l195 -288l-52 -35l-284 232l-285 -234z" />
    <glyph glyph-name="uni1EC3" unicode="&#x1ec3;" horiz-adv-x="1001" 
d="M535 -22q-108 0 -197.5 32.5t-154 96.5t-100 157.5t-35.5 216.5q0 102 34 195.5t98 164.5t156.5 113.5t209.5 42.5q99 0 175.5 -33t128 -86t78.5 -121.5t27 -138.5q0 -9 -0.5 -24t-1.5 -30t-2 -28.5t-2 -20.5h-621q1 -188 77.5 -286t238.5 -98q53 0 96.5 10t78.5 24
t62.5 30.5t48.5 28.5h23v-77q-33 -29 -78 -58.5t-98.5 -54.5t-114.5 -40.5t-127 -15.5zM681 599q0 63 -6.5 117.5t-24 94.5t-47.5 63t-76 23t-81 -20.5t-59 -59t-37.5 -94t-16.5 -124.5h348zM184 1106l194 289q26 40 61 60t80 20t80.5 -20t61.5 -60l195 -288l-52 -35
l-284 232l-285 -234zM876 1623q36 0 67.5 -6.5t55 -20.5t37 -35t13.5 -49q0 -35 -17 -57.5t-37.5 -42.5t-37.5 -42.5t-17 -57.5v-22h-122v27q0 26 6.5 43t16.5 29t21 21.5t21 20t16.5 24t6.5 34.5t-13.5 35.5t-40.5 14.5q-29 0 -46.5 -15t-31.5 -31h-43v96q8 4 21.5 10
t32 11t41.5 9t50 4z" />
    <glyph glyph-name="uni1EC5" unicode="&#x1ec5;" horiz-adv-x="1001" 
d="M535 -22q-108 0 -197.5 32.5t-154 96.5t-100 157.5t-35.5 216.5q0 102 34 195.5t98 164.5t156.5 113.5t209.5 42.5q99 0 175.5 -33t128 -86t78.5 -121.5t27 -138.5q0 -9 -0.5 -24t-1.5 -30t-2 -28.5t-2 -20.5h-621q1 -188 77.5 -286t238.5 -98q53 0 96.5 10t78.5 24
t62.5 30.5t48.5 28.5h23v-77q-33 -29 -78 -58.5t-98.5 -54.5t-114.5 -40.5t-127 -15.5zM681 599q0 63 -6.5 117.5t-24 94.5t-47.5 63t-76 23t-81 -20.5t-59 -59t-37.5 -94t-16.5 -124.5h348zM184 1106l194 277q26 38 61 57.5t80 19.5t80.5 -19.5t61.5 -57.5l195 -276
l-52 -35l-284 217l-285 -219zM158 1475q10 60 32.5 110.5t54.5 87.5t73 57.5t88 20.5q32 0 70 -11.5t84 -36.5q48 -26 79.5 -36t48.5 -10q55 0 81 28.5t39 79.5h74q-9 -59 -30.5 -109.5t-53 -87.5t-72 -57.5t-87.5 -20.5q-17 0 -32 2t-32.5 7.5t-38.5 15t-49 25.5
q-45 25 -78.5 36t-51.5 11q-56 0 -84 -30t-41 -82h-74z" />
    <glyph glyph-name="ecaron" unicode="&#x11b;" horiz-adv-x="1001" 
d="M535 -22q-108 0 -197.5 32.5t-154 96.5t-100 157.5t-35.5 216.5q0 102 34 195.5t98 164.5t156.5 113.5t209.5 42.5q99 0 175.5 -33t128 -86t78.5 -121.5t27 -138.5q0 -9 -0.5 -24t-1.5 -30t-2 -28.5t-2 -20.5h-621q1 -188 77.5 -286t238.5 -98q53 0 96.5 10t78.5 24
t62.5 30.5t48.5 28.5h23v-77q-33 -29 -78 -58.5t-98.5 -54.5t-114.5 -40.5t-127 -15.5zM681 599q0 63 -6.5 117.5t-24 94.5t-47.5 63t-76 23t-81 -20.5t-59 -59t-37.5 -94t-16.5 -124.5h348zM537 1089q-45 0 -79 20t-62 60l-194 279l51 36l285 -224l284 222l52 -35
l-195 -278q-28 -40 -62.5 -60t-79.5 -20z" />
    <glyph glyph-name="uni1EBD" unicode="&#x1ebd;" horiz-adv-x="1001" 
d="M535 -22q-108 0 -197.5 32.5t-154 96.5t-100 157.5t-35.5 216.5q0 102 34 195.5t98 164.5t156.5 113.5t209.5 42.5q99 0 175.5 -33t128 -86t78.5 -121.5t27 -138.5q0 -9 -0.5 -24t-1.5 -30t-2 -28.5t-2 -20.5h-621q1 -188 77.5 -286t238.5 -98q53 0 96.5 10t78.5 24
t62.5 30.5t48.5 28.5h23v-77q-33 -29 -78 -58.5t-98.5 -54.5t-114.5 -40.5t-127 -15.5zM681 599q0 63 -6.5 117.5t-24 94.5t-47.5 63t-76 23t-81 -20.5t-59 -59t-37.5 -94t-16.5 -124.5h348zM175 1127q10 60 32.5 110.5t54.5 87.5t73 57.5t88 20.5q32 0 70 -11.5t84 -36.5
q48 -26 79.5 -36t48.5 -10q55 0 81 28.5t39 79.5h74q-9 -59 -30.5 -109.5t-53 -87.5t-72 -57.5t-87.5 -20.5q-17 0 -32 2t-32.5 7.5t-38.5 15t-49 25.5q-45 25 -78.5 36t-51.5 11q-56 0 -84 -30t-41 -82h-74z" />
    <glyph glyph-name="edieresis" unicode="&#xeb;" horiz-adv-x="1001" 
d="M535 -22q-108 0 -197.5 32.5t-154 96.5t-100 157.5t-35.5 216.5q0 102 34 195.5t98 164.5t156.5 113.5t209.5 42.5q99 0 175.5 -33t128 -86t78.5 -121.5t27 -138.5q0 -9 -0.5 -24t-1.5 -30t-2 -28.5t-2 -20.5h-621q1 -188 77.5 -286t238.5 -98q53 0 96.5 10t78.5 24
t62.5 30.5t48.5 28.5h23v-77q-33 -29 -78 -58.5t-98.5 -54.5t-114.5 -40.5t-127 -15.5zM681 599q0 63 -6.5 117.5t-24 94.5t-47.5 63t-76 23t-81 -20.5t-59 -59t-37.5 -94t-16.5 -124.5h348zM742 1122q-28 0 -52 10.5t-42 28.5t-28.5 42.5t-10.5 52.5t10.5 52.5t28.5 42.5
t42 28.5t52 10.5t53 -10.5t44 -28.5t29.5 -42.5t10.5 -52.5t-10.5 -52.5t-29.5 -42.5t-44 -28.5t-53 -10.5zM294 1122q-28 0 -52 10.5t-42 28.5t-28.5 42.5t-10.5 52.5t10.5 52.5t28.5 42.5t42 28.5t52 10.5t53 -10.5t44 -28.5t29.5 -42.5t10.5 -52.5t-10.5 -52.5
t-29.5 -42.5t-44 -28.5t-53 -10.5z" />
    <glyph glyph-name="emacron" unicode="&#x113;" horiz-adv-x="1001" 
d="M535 -22q-108 0 -197.5 32.5t-154 96.5t-100 157.5t-35.5 216.5q0 102 34 195.5t98 164.5t156.5 113.5t209.5 42.5q99 0 175.5 -33t128 -86t78.5 -121.5t27 -138.5q0 -9 -0.5 -24t-1.5 -30t-2 -28.5t-2 -20.5h-621q1 -188 77.5 -286t238.5 -98q53 0 96.5 10t78.5 24
t62.5 30.5t48.5 28.5h23v-77q-33 -29 -78 -58.5t-98.5 -54.5t-114.5 -40.5t-127 -15.5zM681 599q0 63 -6.5 117.5t-24 94.5t-47.5 63t-76 23t-81 -20.5t-59 -59t-37.5 -94t-16.5 -124.5h348zM216 1316h644v-148h-644v148z" />
    <glyph glyph-name="ebreve" unicode="&#x115;" horiz-adv-x="1001" 
d="M535 -22q-108 0 -197.5 32.5t-154 96.5t-100 157.5t-35.5 216.5q0 102 34 195.5t98 164.5t156.5 113.5t209.5 42.5q99 0 175.5 -33t128 -86t78.5 -121.5t27 -138.5q0 -9 -0.5 -24t-1.5 -30t-2 -28.5t-2 -20.5h-621q1 -188 77.5 -286t238.5 -98q53 0 96.5 10t78.5 24
t62.5 30.5t48.5 28.5h23v-77q-33 -29 -78 -58.5t-98.5 -54.5t-114.5 -40.5t-127 -15.5zM681 599q0 63 -6.5 117.5t-24 94.5t-47.5 63t-76 23t-81 -20.5t-59 -59t-37.5 -94t-16.5 -124.5h348zM537 1100q-55 0 -106.5 16.5t-94.5 56t-73.5 104.5t-43.5 163l86 17
q16 -55 34 -91.5t44.5 -59t63.5 -32t90 -9.5q51 0 87.5 9t63.5 31t46 59t36 93l86 -17q-15 -98 -45 -163.5t-72 -104.5t-93.5 -55.5t-108.5 -16.5z" />
    <glyph glyph-name="edotaccent" unicode="&#x117;" horiz-adv-x="1001" 
d="M535 -22q-108 0 -197.5 32.5t-154 96.5t-100 157.5t-35.5 216.5q0 102 34 195.5t98 164.5t156.5 113.5t209.5 42.5q99 0 175.5 -33t128 -86t78.5 -121.5t27 -138.5q0 -9 -0.5 -24t-1.5 -30t-2 -28.5t-2 -20.5h-621q1 -188 77.5 -286t238.5 -98q53 0 96.5 10t78.5 24
t62.5 30.5t48.5 28.5h23v-77q-33 -29 -78 -58.5t-98.5 -54.5t-114.5 -40.5t-127 -15.5zM681 599q0 63 -6.5 117.5t-24 94.5t-47.5 63t-76 23t-81 -20.5t-59 -59t-37.5 -94t-16.5 -124.5h348zM535 1036q-35 0 -65 12.5t-52 34t-35 51t-13 63.5q0 33 13 62t35 50.5t52 34
t65 12.5t65.5 -12.5t53.5 -34t36 -50.5t13 -62q0 -34 -13 -63.5t-36 -51t-53.5 -34t-65.5 -12.5z" />
    <glyph glyph-name="uni1EBB" unicode="&#x1ebb;" horiz-adv-x="1001" 
d="M535 -22q-108 0 -197.5 32.5t-154 96.5t-100 157.5t-35.5 216.5q0 102 34 195.5t98 164.5t156.5 113.5t209.5 42.5q99 0 175.5 -33t128 -86t78.5 -121.5t27 -138.5q0 -9 -0.5 -24t-1.5 -30t-2 -28.5t-2 -20.5h-621q1 -188 77.5 -286t238.5 -98q53 0 96.5 10t78.5 24
t62.5 30.5t48.5 28.5h23v-77q-33 -29 -78 -58.5t-98.5 -54.5t-114.5 -40.5t-127 -15.5zM681 599q0 63 -6.5 117.5t-24 94.5t-47.5 63t-76 23t-81 -20.5t-59 -59t-37.5 -94t-16.5 -124.5h348zM532 1553q49 0 92 -9.5t74.5 -29.5t49.5 -50t18 -71q0 -34 -11.5 -59t-28.5 -46
t-36.5 -40t-36.5 -39.5t-28.5 -46t-11.5 -58.5v-31h-151v39q0 37 10 63.5t25 47t32 38t32 35.5t25 40t10 52q0 31 -21 51.5t-66 20.5q-23 0 -41.5 -6t-33.5 -15t-27.5 -21t-24.5 -24h-47v109q12 6 30.5 14.5t43 16.5t55.5 13.5t68 5.5z" />
    <glyph glyph-name="uni1EB9" unicode="&#x1eb9;" horiz-adv-x="1001" 
d="M535 -22q-108 0 -197.5 32.5t-154 96.5t-100 157.5t-35.5 216.5q0 102 34 195.5t98 164.5t156.5 113.5t209.5 42.5q99 0 175.5 -33t128 -86t78.5 -121.5t27 -138.5q0 -9 -0.5 -24t-1.5 -30t-2 -28.5t-2 -20.5h-621q1 -188 77.5 -286t238.5 -98q53 0 96.5 10t78.5 24
t62.5 30.5t48.5 28.5h23v-77q-33 -29 -78 -58.5t-98.5 -54.5t-114.5 -40.5t-127 -15.5zM681 599q0 63 -6.5 117.5t-24 94.5t-47.5 63t-76 23t-81 -20.5t-59 -59t-37.5 -94t-16.5 -124.5h348zM534 -449q-35 0 -65 12.5t-52 34t-35 51t-13 63.5q0 33 13 62t35 50.5t52 34
t65 12.5t65.5 -12.5t53.5 -34t36 -50.5t13 -62q0 -34 -13 -63.5t-36 -51t-53.5 -34t-65.5 -12.5z" />
    <glyph glyph-name="uni1EC7" unicode="&#x1ec7;" horiz-adv-x="1001" 
d="M535 -22q-108 0 -197.5 32.5t-154 96.5t-100 157.5t-35.5 216.5q0 102 34 195.5t98 164.5t156.5 113.5t209.5 42.5q99 0 175.5 -33t128 -86t78.5 -121.5t27 -138.5q0 -9 -0.5 -24t-1.5 -30t-2 -28.5t-2 -20.5h-621q1 -188 77.5 -286t238.5 -98q53 0 96.5 10t78.5 24
t62.5 30.5t48.5 28.5h23v-77q-33 -29 -78 -58.5t-98.5 -54.5t-114.5 -40.5t-127 -15.5zM681 599q0 63 -6.5 117.5t-24 94.5t-47.5 63t-76 23t-81 -20.5t-59 -59t-37.5 -94t-16.5 -124.5h348zM184 1106l194 289q26 40 61 60t80 20t80.5 -20t61.5 -60l195 -288l-52 -35
l-284 232l-285 -234zM534 -449q-35 0 -65 12.5t-52 34t-35 51t-13 63.5q0 33 13 62t35 50.5t52 34t65 12.5t65.5 -12.5t53.5 -34t36 -50.5t13 -62q0 -34 -13 -63.5t-36 -51t-53.5 -34t-65.5 -12.5z" />
    <glyph glyph-name="eogonek" unicode="&#x119;" horiz-adv-x="1001" 
d="M681 599q0 63 -6.5 117.5t-24 94.5t-47.5 63t-76 23t-81 -20.5t-59 -59t-37.5 -94t-16.5 -124.5h348zM724 -439q-55 0 -99.5 14.5t-76 40t-49 59t-17.5 71.5q0 39 13 73t35 64t51 56t62 50q-26 -5 -53 -8t-55 -3q-108 0 -197.5 32.5t-154 96.5t-100 157.5t-35.5 216.5
q0 102 34 195.5t98 164.5t156.5 113.5t209.5 42.5q99 0 175.5 -33t128 -86t78.5 -121.5t27 -138.5q0 -9 -0.5 -24t-1.5 -30t-2 -28.5t-2 -20.5h-621q1 -188 77.5 -286t238.5 -98q53 0 96.5 10t78.5 24t62.5 30.5t48.5 28.5h23v-77q-14 -12 -29.5 -23.5t-32.5 -23t-34 -22.5
t-32 -21q-35 -23 -65 -51.5t-52 -62t-34 -73.5t-12 -86q0 -27 7 -48.5t21 -36.5t35 -23t49 -8q18 0 43 5.5t46 16.5h21v-89q-40 -17 -83.5 -28.5t-76.5 -11.5z" />
    <glyph glyph-name="gcircumflex" unicode="&#x11d;" horiz-adv-x="1099" 
d="M491 -471q-102 0 -186.5 16t-145.5 47.5t-95 77.5t-34 107q0 47 13.5 81t43.5 58.5t78.5 42.5t118.5 33v0q-29 7 -64 22.5t-65.5 40t-51 58t-20.5 76.5q0 42 19.5 71.5t51 51t71 36t79.5 25.5v0q-42 22 -80 49t-66 62t-44.5 80.5t-16.5 104.5q0 64 33 123.5t91.5 105
t139.5 72.5t177 27q45 0 99.5 -7.5t102.5 -20.5h369l-25 -135l-262 54v0q35 -24 57 -54.5t34.5 -61t17 -59t4.5 -48.5q0 -72 -27.5 -132.5t-81 -105t-132 -69.5t-179.5 -25q-42 0 -83 5.5t-71 13.5q-9 -6 -16.5 -13.5t-13 -17.5t-9 -23t-3.5 -29q0 -24 8 -40t21.5 -25.5
t30.5 -13.5t36 -4h280q103 0 172 -26.5t111 -67.5t60 -90t18 -93q0 -85 -44 -155t-120.5 -120t-179.5 -77.5t-221 -27.5zM524 419q41 0 67.5 21t42 56t21.5 80.5t6 95.5q0 51 -8 95t-25.5 75.5t-44 49.5t-63.5 18q-42 0 -69.5 -19.5t-43.5 -52.5t-22.5 -76.5t-6.5 -91.5
q0 -53 7.5 -98.5t25 -79.5t45 -53.5t68.5 -19.5zM541 -369q49 0 98 13t88 38.5t63 63t24 87.5q0 28 -9 53t-28.5 43.5t-50.5 29t-75 10.5h-315q-12 -17 -25 -53t-13 -93q0 -53 25 -90t62 -59.5t79 -32.5t77 -10zM216 1106l194 289q26 40 61 60t80 20t80.5 -20t61.5 -60
l195 -288l-52 -35l-284 232l-285 -234z" />
    <glyph glyph-name="gbreve" unicode="&#x11f;" horiz-adv-x="1099" 
d="M491 -471q-102 0 -186.5 16t-145.5 47.5t-95 77.5t-34 107q0 47 13.5 81t43.5 58.5t78.5 42.5t118.5 33v0q-29 7 -64 22.5t-65.5 40t-51 58t-20.5 76.5q0 42 19.5 71.5t51 51t71 36t79.5 25.5v0q-42 22 -80 49t-66 62t-44.5 80.5t-16.5 104.5q0 64 33 123.5t91.5 105
t139.5 72.5t177 27q45 0 99.5 -7.5t102.5 -20.5h369l-25 -135l-262 54v0q35 -24 57 -54.5t34.5 -61t17 -59t4.5 -48.5q0 -72 -27.5 -132.5t-81 -105t-132 -69.5t-179.5 -25q-42 0 -83 5.5t-71 13.5q-9 -6 -16.5 -13.5t-13 -17.5t-9 -23t-3.5 -29q0 -24 8 -40t21.5 -25.5
t30.5 -13.5t36 -4h280q103 0 172 -26.5t111 -67.5t60 -90t18 -93q0 -85 -44 -155t-120.5 -120t-179.5 -77.5t-221 -27.5zM524 419q41 0 67.5 21t42 56t21.5 80.5t6 95.5q0 51 -8 95t-25.5 75.5t-44 49.5t-63.5 18q-42 0 -69.5 -19.5t-43.5 -52.5t-22.5 -76.5t-6.5 -91.5
q0 -53 7.5 -98.5t25 -79.5t45 -53.5t68.5 -19.5zM541 -369q49 0 98 13t88 38.5t63 63t24 87.5q0 28 -9 53t-28.5 43.5t-50.5 29t-75 10.5h-315q-12 -17 -25 -53t-13 -93q0 -53 25 -90t62 -59.5t79 -32.5t77 -10zM551 1100q-55 0 -106.5 16.5t-94.5 56t-73.5 104.5t-43.5 163
l86 17q16 -55 34 -91.5t44.5 -59t63.5 -32t90 -9.5q51 0 87.5 9t63.5 31t46 59t36 93l86 -17q-15 -98 -45 -163.5t-72 -104.5t-93.5 -55.5t-108.5 -16.5z" />
    <glyph glyph-name="gdotaccent" unicode="&#x121;" horiz-adv-x="1099" 
d="M491 -471q-102 0 -186.5 16t-145.5 47.5t-95 77.5t-34 107q0 47 13.5 81t43.5 58.5t78.5 42.5t118.5 33v0q-29 7 -64 22.5t-65.5 40t-51 58t-20.5 76.5q0 42 19.5 71.5t51 51t71 36t79.5 25.5v0q-42 22 -80 49t-66 62t-44.5 80.5t-16.5 104.5q0 64 33 123.5t91.5 105
t139.5 72.5t177 27q45 0 99.5 -7.5t102.5 -20.5h369l-25 -135l-262 54v0q35 -24 57 -54.5t34.5 -61t17 -59t4.5 -48.5q0 -72 -27.5 -132.5t-81 -105t-132 -69.5t-179.5 -25q-42 0 -83 5.5t-71 13.5q-9 -6 -16.5 -13.5t-13 -17.5t-9 -23t-3.5 -29q0 -24 8 -40t21.5 -25.5
t30.5 -13.5t36 -4h280q103 0 172 -26.5t111 -67.5t60 -90t18 -93q0 -85 -44 -155t-120.5 -120t-179.5 -77.5t-221 -27.5zM524 419q41 0 67.5 21t42 56t21.5 80.5t6 95.5q0 51 -8 95t-25.5 75.5t-44 49.5t-63.5 18q-42 0 -69.5 -19.5t-43.5 -52.5t-22.5 -76.5t-6.5 -91.5
q0 -53 7.5 -98.5t25 -79.5t45 -53.5t68.5 -19.5zM541 -369q49 0 98 13t88 38.5t63 63t24 87.5q0 28 -9 53t-28.5 43.5t-50.5 29t-75 10.5h-315q-12 -17 -25 -53t-13 -93q0 -53 25 -90t62 -59.5t79 -32.5t77 -10zM549 1036q-35 0 -65 12.5t-52 34t-35 51t-13 63.5q0 33 13 62
t35 50.5t52 34t65 12.5t65.5 -12.5t53.5 -34t36 -50.5t13 -62q0 -34 -13 -63.5t-36 -51t-53.5 -34t-65.5 -12.5z" />
    <glyph glyph-name="uni0123" unicode="&#x123;" horiz-adv-x="1099" 
d="M491 -471q-102 0 -186.5 16t-145.5 47.5t-95 77.5t-34 107q0 47 13.5 81t43.5 58.5t78.5 42.5t118.5 33v0q-29 7 -64 22.5t-65.5 40t-51 58t-20.5 76.5q0 42 19.5 71.5t51 51t71 36t79.5 25.5v0q-42 22 -80 49t-66 62t-44.5 80.5t-16.5 104.5q0 64 33 123.5t91.5 105
t139.5 72.5t177 27q45 0 99.5 -7.5t102.5 -20.5h369l-25 -135l-262 54v0q35 -24 57 -54.5t34.5 -61t17 -59t4.5 -48.5q0 -72 -27.5 -132.5t-81 -105t-132 -69.5t-179.5 -25q-42 0 -83 5.5t-71 13.5q-9 -6 -16.5 -13.5t-13 -17.5t-9 -23t-3.5 -29q0 -24 8 -40t21.5 -25.5
t30.5 -13.5t36 -4h280q103 0 172 -26.5t111 -67.5t60 -90t18 -93q0 -85 -44 -155t-120.5 -120t-179.5 -77.5t-221 -27.5zM524 419q41 0 67.5 21t42 56t21.5 80.5t6 95.5q0 51 -8 95t-25.5 75.5t-44 49.5t-63.5 18q-42 0 -69.5 -19.5t-43.5 -52.5t-22.5 -76.5t-6.5 -91.5
q0 -53 7.5 -98.5t25 -79.5t45 -53.5t68.5 -19.5zM541 -369q49 0 98 13t88 38.5t63 63t24 87.5q0 28 -9 53t-28.5 43.5t-50.5 29t-75 10.5h-315q-12 -17 -25 -53t-13 -93q0 -53 25 -90t62 -59.5t79 -32.5t77 -10zM668 1424q-24 -21 -40.5 -39t-27 -34.5t-17 -32t-11.5 -33.5
q28 -16 48 -28t32.5 -25t18 -28t5.5 -36q0 -17 -7.5 -33t-22 -28.5t-35.5 -20.5t-48 -8q-36 0 -62.5 11t-43.5 31t-25.5 47.5t-8.5 60.5q0 48 19 85t48 66.5t63.5 52.5t66.5 41z" />
    <glyph glyph-name="hcircumflex" unicode="&#x125;" horiz-adv-x="1202" 
d="M23 59l98 32q20 7 32.5 20.5t12.5 35.5v1125q0 26 -14 44.5t-47 29.5l-92 30v48l421 87v-632v-52q42 56 81 89.5t76.5 51.5t74 23.5t74.5 5.5q64 0 120.5 -19.5t98.5 -61t66 -107t24 -156.5v-501q0 -25 13.5 -39.5t31.5 -21.5l86 -32v-59h-533v59l91 32q17 6 30 21t13 40
v410q0 67 -6 117.5t-23.5 84.5t-50.5 51.5t-87 17.5q-23 0 -47.5 -2t-48.5 -10.5t-45.5 -24.5t-38.5 -44v-604q0 -23 12.5 -36t32.5 -21l76 -32v-59h-532v59zM-55 1568l194 289q26 40 61 60t80 20t80.5 -20t61.5 -60l195 -288l-52 -35l-284 232l-285 -234z" />
    <glyph glyph-name="hbar" unicode="&#x127;" horiz-adv-x="1202" 
d="M13 1227h153v45q0 26 -14 44.5t-47 29.5l-92 30v48l421 87v-284h396v-110h-396v-140v-150q42 56 81 89.5t76.5 51.5t74 23.5t74.5 5.5q64 0 120.5 -19.5t98.5 -61t66 -107t24 -156.5v-501q0 -25 13.5 -39.5t31.5 -21.5l86 -32v-59h-533v59l91 32q17 6 30 21t13 40v410
q0 67 -6 117.5t-23.5 84.5t-50.5 51.5t-87 17.5q-23 0 -47.5 -2t-48.5 -10.5t-45.5 -24.5t-38.5 -44v-604q0 -23 12.5 -36t32.5 -21l76 -32v-59h-532v59l98 32q20 7 32.5 20.5t12.5 35.5v970h-153v110z" />
    <glyph glyph-name="igrave" unicode="&#xec;" horiz-adv-x="617" 
d="M39 59l103 32q20 6 32.5 20.5t12.5 36.5v610q0 26 -13.5 43.5t-48.5 30.5l-82 30v48l412 79v-841q0 -23 12.5 -36.5t32.5 -20.5l94 -32v-59h-555v59zM444 1074q-74 46 -125.5 77t-88.5 53.5t-64 39t-51 33.5q-44 31 -63 58t-19 65q0 17 7.5 32.5t21.5 27.5t33.5 19
t43.5 7q22 0 41.5 -3t38.5 -12t37.5 -25.5t38.5 -43.5q18 -24 35 -48t39.5 -56.5t53 -77t74.5 -108.5z" />
    <glyph glyph-name="iacute" unicode="&#xed;" horiz-adv-x="617" 
d="M39 59l103 32q20 6 32.5 20.5t12.5 36.5v610q0 26 -13.5 43.5t-48.5 30.5l-82 30v48l412 79v-841q0 -23 12.5 -36.5t32.5 -20.5l94 -32v-59h-555v59zM63 1112q44 64 74.5 108.5t53 77t39.5 56.5t35 48q20 27 38.5 43.5t37 25.5t38 12t42.5 3q24 0 43.5 -7t33.5 -19
t21.5 -27.5t7.5 -32.5q0 -19 -5 -35t-15 -30.5t-25.5 -28.5t-36.5 -29q-24 -17 -51 -33.5t-64 -39t-88.5 -53.5t-125.5 -77z" />
    <glyph glyph-name="icircumflex" unicode="&#xee;" horiz-adv-x="621" 
d="M-25 1106l184 289q26 42 61 61t80 19q89 0 142 -80l185 -288l-52 -35l-274 232l-275 -234zM41 59l103 32q20 6 32.5 20.5t12.5 36.5v610q0 26 -13.5 43.5t-48.5 30.5l-82 30v48l412 79v-841q0 -23 12.5 -36.5t32.5 -20.5l94 -32v-59h-555v59z" />
    <glyph glyph-name="itilde" unicode="&#x129;" horiz-adv-x="617" 
d="M39 59l103 32q20 6 32.5 20.5t12.5 36.5v610q0 26 -13.5 43.5t-48.5 30.5l-82 30v48l412 79v-841q0 -23 12.5 -36.5t32.5 -20.5l94 -32v-59h-555v59zM-61 1127q10 60 32.5 110.5t54.5 87.5t73 57.5t88 20.5q32 0 70 -11.5t84 -36.5q48 -26 79.5 -36t48.5 -10
q55 0 81 28.5t39 79.5h74q-9 -59 -30.5 -109.5t-53 -87.5t-72 -57.5t-87.5 -20.5q-17 0 -32 2t-32.5 7.5t-38.5 15t-49 25.5q-45 25 -78.5 36t-51.5 11q-56 0 -84 -30t-41 -82h-74z" />
    <glyph glyph-name="idieresis" unicode="&#xef;" horiz-adv-x="621" 
d="M512 1122q-28 0 -52 10.5t-42 28.5t-28.5 42.5t-10.5 52.5t10.5 52.5t28.5 42.5t42 28.5t52 10.5t53 -10.5t44 -28.5t29.5 -42.5t10.5 -52.5t-10.5 -52.5t-29.5 -42.5t-44 -28.5t-53 -10.5zM84 1122q-28 0 -52 10.5t-42 28.5t-28.5 42.5t-10.5 52.5t10.5 52.5t28.5 42.5
t42 28.5t52 10.5t53 -10.5t44 -28.5t29.5 -42.5t10.5 -52.5t-10.5 -52.5t-29.5 -42.5t-44 -28.5t-53 -10.5zM41 59l103 32q20 6 32.5 20.5t12.5 36.5v610q0 26 -13.5 43.5t-48.5 30.5l-82 30v48l412 79v-841q0 -23 12.5 -36.5t32.5 -20.5l94 -32v-59h-555v59z" />
    <glyph glyph-name="imacron" unicode="&#x12b;" horiz-adv-x="617" 
d="M39 59l103 32q20 6 32.5 20.5t12.5 36.5v610q0 26 -13.5 43.5t-48.5 30.5l-82 30v48l412 79v-841q0 -23 12.5 -36.5t32.5 -20.5l94 -32v-59h-555v59zM-20 1316h644v-148h-644v148z" />
    <glyph glyph-name="ibreve" unicode="&#x12d;" horiz-adv-x="617" 
d="M39 59l103 32q20 6 32.5 20.5t12.5 36.5v610q0 26 -13.5 43.5t-48.5 30.5l-82 30v48l412 79v-841q0 -23 12.5 -36.5t32.5 -20.5l94 -32v-59h-555v59zM301 1100q-55 0 -106.5 16.5t-94.5 56t-73.5 104.5t-43.5 163l86 17q16 -55 34 -91.5t44.5 -59t63.5 -32t90 -9.5
q51 0 87.5 9t63.5 31t46 59t36 93l86 -17q-15 -98 -45 -163.5t-72 -104.5t-93.5 -55.5t-108.5 -16.5z" />
    <glyph glyph-name="uni1EC9" unicode="&#x1ec9;" horiz-adv-x="617" 
d="M39 59l103 32q20 6 32.5 20.5t12.5 36.5v610q0 26 -13.5 43.5t-48.5 30.5l-82 30v48l412 79v-841q0 -23 12.5 -36.5t32.5 -20.5l94 -32v-59h-555v59zM294 1553q49 0 92 -9.5t74.5 -29.5t49.5 -50t18 -71q0 -34 -11.5 -59t-28.5 -46t-36.5 -40t-36.5 -39.5t-28.5 -46
t-11.5 -58.5v-31h-151v39q0 37 10 63.5t25 47t32 38t32 35.5t25 40t10 52q0 31 -21 51.5t-66 20.5q-23 0 -41.5 -6t-33.5 -15t-27.5 -21t-24.5 -24h-47v109q12 6 30.5 14.5t43 16.5t55.5 13.5t68 5.5z" />
    <glyph glyph-name="uni1ECB" unicode="&#x1ecb;" horiz-adv-x="617" 
d="M310 1186q-35 0 -65 12.5t-52 34t-35 51t-13 63.5q0 33 13 62t35 50.5t52 34t65 12.5t65.5 -12.5t53.5 -34t36 -50.5t13 -62q0 -34 -13 -63.5t-36 -51t-53.5 -34t-65.5 -12.5zM39 59l103 32q20 6 32.5 20.5t12.5 36.5v610q0 26 -13.5 43.5t-48.5 30.5l-82 30v48l412 79
v-841q0 -23 12.5 -36.5t32.5 -20.5l94 -32v-59h-555v59zM319 -449q-35 0 -65 12.5t-52 34t-35 51t-13 63.5q0 33 13 62t35 50.5t52 34t65 12.5t65.5 -12.5t53.5 -34t36 -50.5t13 -62q0 -34 -13 -63.5t-36 -51t-53.5 -34t-65.5 -12.5z" />
    <glyph glyph-name="iogonek" unicode="&#x12f;" horiz-adv-x="617" 
d="M39 59l103 32q20 6 32.5 20.5t12.5 36.5v610q0 26 -13.5 43.5t-48.5 30.5l-82 30v48l412 79v-841q0 -23 12.5 -36.5t32.5 -20.5l94 -32v-59h-240q-43 -42 -68.5 -95t-25.5 -121q0 -27 7 -48.5t21 -36.5t35 -23t49 -8q18 0 43 5.5t46 16.5h21v-89q-40 -17 -83.5 -28.5
t-76.5 -11.5q-55 0 -99.5 14.5t-76 40t-49 59t-17.5 71.5q0 42 14.5 77.5t39 67t57 58.5t67.5 51h-219v59zM310 1186q-35 0 -65 12.5t-52 34t-35 51t-13 63.5q0 33 13 62t35 50.5t52 34t65 12.5t65.5 -12.5t53.5 -34t36 -50.5t13 -62q0 -34 -13 -63.5t-36 -51t-53.5 -34
t-65.5 -12.5z" />
    <glyph glyph-name="dotlessi" unicode="&#x131;" horiz-adv-x="617" 
d="M39 59l103 32q20 6 32.5 20.5t12.5 36.5v610q0 26 -13.5 43.5t-48.5 30.5l-82 30v48l412 79v-841q0 -23 12.5 -36.5t32.5 -20.5l94 -32v-59h-555v59z" />
    <glyph glyph-name="ij" unicode="&#x133;" horiz-adv-x="1217" 
d="M310 1186q-35 0 -65 12.5t-52 34t-35 51t-13 63.5q0 33 13 62t35 50.5t52 34t65 12.5t65.5 -12.5t53.5 -34t36 -50.5t13 -62q0 -34 -13 -63.5t-36 -51t-53.5 -34t-65.5 -12.5zM39 59l103 32q20 6 32.5 20.5t12.5 36.5v610q0 26 -13.5 43.5t-48.5 30.5l-82 30v48l412 79
v-841q0 -23 12.5 -36.5t32.5 -20.5l94 -32v-59h-555v59zM922 1186q-35 0 -65 12.5t-52 34t-35 51t-13 63.5q0 33 13 62t35 50.5t52 34t65 12.5t65.5 -12.5t53.5 -34t36 -50.5t13 -62q0 -34 -13 -63.5t-36 -51t-53.5 -34t-65.5 -12.5zM608 -453q-18 0 -44 2.5t-54 8t-55 13
t-45 17.5l45 193h29q25 -14 57 -29t65 -27t64.5 -20t55.5 -8q26 0 42 11.5t23 40.5q6 25 9.5 61t6 81.5t3 100.5t0.5 119v647q0 29 -14 46t-48 28l-96 30v48l426 79v-884q0 -131 -36 -234.5t-99 -175.5t-149 -110t-186 -38z" />
    <glyph glyph-name="jcircumflex" unicode="&#x135;" horiz-adv-x="600" 
d="M-9 -453q-18 0 -44 2.5t-54 8t-55 13t-45 17.5l45 193h29q25 -14 57 -29t65 -27t64.5 -20t55.5 -8q26 0 42 11.5t23 40.5q6 25 9.5 61t6 81.5t3 100.5t0.5 119v647q0 29 -14 46t-48 28l-96 30v48l426 79v-884q0 -131 -36 -234.5t-99 -175.5t-149 -110t-186 -38zM-57 1106
l194 289q26 40 61 60t80 20t80.5 -20t61.5 -60l195 -288l-52 -35l-284 232l-285 -234z" />
    <glyph glyph-name="uni0137" unicode="&#x137;" horiz-adv-x="1120" 
d="M23 59l98 32q23 8 34 22.5t11 34.5v1132q0 26 -13.5 38t-47.5 25l-92 33v48l421 87v-1024l362 379l-116 44v59h410v-59l-108 -34q-21 -7 -42.5 -22.5t-35.5 -28.5l-203 -190l323 -503q12 -18 31 -30.5t44 -20.5l68 -22v-59h-498v59l84 32l-231 382l-88 -64v-261
q0 -23 12 -35.5t33 -21.5l76 -32v-59h-532v59zM503 -440q24 21 40.5 39t27 34.5t17 32t11.5 33.5q-28 16 -48 28t-32.5 25t-18 28t-5.5 36q0 16 7.5 32.5t22 29t35.5 20.5t48 8q36 0 62.5 -11t43.5 -31t25.5 -47.5t8.5 -60.5q0 -48 -19 -85t-48 -66.5t-64 -52.5t-66 -41z
" />
    <glyph glyph-name="kgreenlandic" unicode="&#x138;" horiz-adv-x="1120" 
d="M23 59l98 32q23 8 34 22.5t11 34.5v618q0 26 -13.5 38t-47.5 25l-92 33v46l421 81v-502l362 379l-116 44v59h410v-59l-108 -34q-21 -7 -42.5 -22.5t-35.5 -28.5l-203 -190l323 -503q12 -18 31 -30.5t44 -20.5l68 -22v-59h-498v59l84 32l-231 382l-88 -64v-261
q0 -23 12 -35.5t33 -21.5l76 -32v-59h-532v59z" />
    <glyph glyph-name="lacute" unicode="&#x13a;" horiz-adv-x="600" 
d="M25 59l98 32q23 8 34 22t11 35v1124q0 26 -13 44.5t-48 29.5l-92 30v48l421 87v-1363q0 -23 12.5 -36t32.5 -21l86 -32v-59h-542v59zM46 1612q44 64 74.5 108.5t53 77t39.5 56.5t35 48q20 27 38.5 43.5t37 25.5t38 12t42.5 3q24 0 43.5 -7t33.5 -19t21.5 -27.5t7.5 -32.5
q0 -19 -5 -35t-15 -30.5t-25.5 -28.5t-36.5 -29q-24 -17 -51 -33.5t-64 -39t-88.5 -53.5t-125.5 -77z" />
    <glyph glyph-name="lcaron" unicode="&#x13e;" horiz-adv-x="797" 
d="M25 59l98 32q23 8 34 22t11 35v1124q0 26 -13 44.5t-48 29.5l-92 30v48l421 87v-1363q0 -23 12.5 -36t32.5 -21l86 -32v-59h-542v59zM578 1080q23 19 44 38.5t38.5 40.5t30 44.5t18.5 51.5q-39 24 -64 39.5t-39.5 30.5t-20.5 32.5t-6 44.5q0 16 8 32.5t23 29t36 20.5
t47 8q40 0 67.5 -12.5t44.5 -33.5t24 -49.5t7 -59.5q0 -63 -23.5 -111.5t-57 -85.5t-71 -62.5t-64.5 -42.5z" />
    <glyph glyph-name="uni013C" unicode="&#x13c;" horiz-adv-x="600" 
d="M25 59l98 32q23 8 34 22t11 35v1124q0 26 -13 44.5t-48 29.5l-92 30v48l421 87v-1363q0 -23 12.5 -36t32.5 -21l86 -32v-59h-542v59zM200 -440q24 21 40.5 39t27 34.5t17 32t11.5 33.5q-28 16 -48 28t-32.5 25t-18 28t-5.5 36q0 16 7.5 32.5t22 29t35.5 20.5t48 8
q36 0 62.5 -11t43.5 -31t25.5 -47.5t8.5 -60.5q0 -48 -19 -85t-48 -66.5t-64 -52.5t-66 -41z" />
    <glyph glyph-name="lslash" unicode="&#x142;" horiz-adv-x="600" 
d="M25 59l98 32q23 8 34 22t11 35v548l-151 -61v106l151 61v470q0 26 -13 44.5t-48 29.5l-92 30v48l421 87v-601l144 59v-104l-144 -59v-658q0 -23 12.5 -36t32.5 -21l86 -32v-59h-542v59z" />
    <glyph glyph-name="ldot" unicode="&#x140;" horiz-adv-x="844" 
d="M25 59l98 32q23 8 34 22t11 35v1124q0 26 -13 44.5t-48 29.5l-92 30v48l421 87v-1363q0 -23 12.5 -36t32.5 -21l86 -32v-59h-542v59zM726 595q-35 0 -65 12.5t-52 34t-35 51t-13 63.5q0 33 13 62t35 50.5t52 34t65 12.5t65.5 -12.5t53.5 -34t36 -50.5t13 -62
q0 -34 -13 -63.5t-36 -51t-53.5 -34t-65.5 -12.5z" />
    <glyph glyph-name="nacute" unicode="&#x144;" horiz-adv-x="1224" 
d="M43 59l99 32q19 6 32 20.5t13 36.5v610q0 26 -14.5 44t-47.5 30l-82 30v48l407 79v-162v0q39 55 78.5 88.5t78.5 51.5t77.5 24t76.5 6q65 0 121.5 -19.5t98 -61t65 -107t23.5 -156.5v-501q0 -25 13.5 -39.5t31.5 -21.5l86 -32v-59h-532v59l90 32q17 6 30 21t13 40v410
q0 67 -5.5 117.5t-23 84.5t-50 51.5t-86.5 17.5q-23 0 -48 -2t-48.5 -10t-45.5 -24.5t-39 -44.5v-604q0 -23 13 -36t32 -21l76 -32v-59h-533v59zM430 1112q44 64 74.5 108.5t53 77t39.5 56.5t35 48q20 27 38.5 43.5t37 25.5t38 12t42.5 3q24 0 43.5 -7t33.5 -19t21.5 -27.5
t7.5 -32.5q0 -19 -5 -35t-15 -30.5t-25.5 -28.5t-36.5 -29q-24 -17 -51 -33.5t-64 -39t-88.5 -53.5t-125.5 -77z" />
    <glyph glyph-name="ncaron" unicode="&#x148;" horiz-adv-x="1224" 
d="M43 59l99 32q19 6 32 20.5t13 36.5v610q0 26 -14.5 44t-47.5 30l-82 30v48l407 79v-162v0q39 55 78.5 88.5t78.5 51.5t77.5 24t76.5 6q65 0 121.5 -19.5t98 -61t65 -107t23.5 -156.5v-501q0 -25 13.5 -39.5t31.5 -21.5l86 -32v-59h-532v59l90 32q17 6 30 21t13 40v410
q0 67 -5.5 117.5t-23 84.5t-50 51.5t-86.5 17.5q-23 0 -48 -2t-48.5 -10t-45.5 -24.5t-39 -44.5v-604q0 -23 13 -36t32 -21l76 -32v-59h-533v59zM720 1089q-45 0 -79 20t-62 60l-194 279l51 36l285 -224l284 222l52 -35l-195 -278q-28 -40 -62.5 -60t-79.5 -20z" />
    <glyph glyph-name="ntilde" unicode="&#xf1;" horiz-adv-x="1224" 
d="M43 59l99 32q19 6 32 20.5t13 36.5v610q0 26 -14.5 44t-47.5 30l-82 30v48l407 79v-162v0q39 55 78.5 88.5t78.5 51.5t77.5 24t76.5 6q65 0 121.5 -19.5t98 -61t65 -107t23.5 -156.5v-501q0 -25 13.5 -39.5t31.5 -21.5l86 -32v-59h-532v59l90 32q17 6 30 21t13 40v410
q0 67 -5.5 117.5t-23 84.5t-50 51.5t-86.5 17.5q-23 0 -48 -2t-48.5 -10t-45.5 -24.5t-39 -44.5v-604q0 -23 13 -36t32 -21l76 -32v-59h-533v59zM250 1127q10 60 32.5 110.5t54.5 87.5t73 57.5t88 20.5q32 0 70 -11.5t84 -36.5q48 -26 79.5 -36t48.5 -10q55 0 81 28.5
t39 79.5h74q-9 -59 -30.5 -109.5t-53 -87.5t-72 -57.5t-87.5 -20.5q-17 0 -32 2t-32.5 7.5t-38.5 15t-49 25.5q-45 25 -78.5 36t-51.5 11q-56 0 -84 -30t-41 -82h-74z" />
    <glyph glyph-name="uni0146" unicode="&#x146;" horiz-adv-x="1224" 
d="M43 59l99 32q19 6 32 20.5t13 36.5v610q0 26 -14.5 44t-47.5 30l-82 30v48l407 79v-162v0q39 55 78.5 88.5t78.5 51.5t77.5 24t76.5 6q65 0 121.5 -19.5t98 -61t65 -107t23.5 -156.5v-501q0 -25 13.5 -39.5t31.5 -21.5l86 -32v-59h-532v59l90 32q17 6 30 21t13 40v410
q0 67 -5.5 117.5t-23 84.5t-50 51.5t-86.5 17.5q-23 0 -48 -2t-48.5 -10t-45.5 -24.5t-39 -44.5v-604q0 -23 13 -36t32 -21l76 -32v-59h-533v59zM518 -440q24 21 40.5 39t27 34.5t17 32t11.5 33.5q-28 16 -48 28t-32.5 25t-18 28t-5.5 36q0 16 7.5 32.5t22 29t35.5 20.5
t48 8q36 0 62.5 -11t43.5 -31t25.5 -47.5t8.5 -60.5q0 -48 -19 -85t-48 -66.5t-64 -52.5t-66 -41z" />
    <glyph glyph-name="napostrophe" unicode="&#x149;" horiz-adv-x="1638" 
d="M457 59l99 32q19 6 32 20.5t13 36.5v610q0 26 -14.5 44t-47.5 30l-82 30v48l407 79v-162v0q39 55 78.5 88.5t78.5 51.5t77.5 24t76.5 6q65 0 121.5 -19.5t98 -61t65 -107t23.5 -156.5v-501q0 -25 13.5 -39.5t31.5 -21.5l86 -32v-59h-532v59l90 32q17 6 30 21t13 40v410
q0 67 -5.5 117.5t-23 84.5t-50 51.5t-86.5 17.5q-23 0 -48 -2t-48.5 -10t-45.5 -24.5t-39 -44.5v-604q0 -23 13 -36t32 -21l76 -32v-59h-533v59zM32 885q54 38 92.5 73t64 67.5t40 63t20.5 60.5q-54 21 -89.5 38.5t-56.5 36.5t-29.5 42.5t-8.5 56.5q0 22 9 47t27.5 46.5
t46 35.5t63.5 14q52 0 88 -17.5t58.5 -49t33 -74.5t10.5 -94q0 -75 -31 -135.5t-79 -110.5t-105 -90t-109 -73z" />
    <glyph glyph-name="ograve" unicode="&#xf2;" horiz-adv-x="1092" 
d="M540 -27q-115 0 -206 36t-154.5 103t-97.5 161t-34 210q0 107 33.5 200.5t98 163.5t158 110t214.5 40q129 0 222 -42.5t153 -113t88.5 -163t28.5 -191.5q0 -106 -33 -199.5t-97.5 -163.5t-158.5 -110.5t-215 -40.5zM553 74q64 0 104 38t62 96t29.5 127.5t7.5 132.5
q0 78 -10.5 154.5t-35.5 137.5t-66.5 99t-104.5 38t-102.5 -37.5t-61.5 -95.5t-30 -127t-8 -132q0 -70 8.5 -146t32.5 -139.5t66 -104.5t109 -41zM693 1074q-74 46 -125.5 77t-88.5 53.5t-64 39t-51 33.5q-44 31 -63 58t-19 65q0 17 7.5 32.5t21.5 27.5t33.5 19t43.5 7
q22 0 41.5 -3t38.5 -12t37.5 -25.5t38.5 -43.5q18 -24 35 -48t39.5 -56.5t53 -77t74.5 -108.5z" />
    <glyph glyph-name="oacute" unicode="&#xf3;" horiz-adv-x="1092" 
d="M540 -27q-115 0 -206 36t-154.5 103t-97.5 161t-34 210q0 107 33.5 200.5t98 163.5t158 110t214.5 40q129 0 222 -42.5t153 -113t88.5 -163t28.5 -191.5q0 -106 -33 -199.5t-97.5 -163.5t-158.5 -110.5t-215 -40.5zM553 74q64 0 104 38t62 96t29.5 127.5t7.5 132.5
q0 78 -10.5 154.5t-35.5 137.5t-66.5 99t-104.5 38t-102.5 -37.5t-61.5 -95.5t-30 -127t-8 -132q0 -70 8.5 -146t32.5 -139.5t66 -104.5t109 -41zM333 1112q44 64 74.5 108.5t53 77t39.5 56.5t35 48q20 27 38.5 43.5t37 25.5t38 12t42.5 3q24 0 43.5 -7t33.5 -19t21.5 -27.5
t7.5 -32.5q0 -19 -5 -35t-15 -30.5t-25.5 -28.5t-36.5 -29q-24 -17 -51 -33.5t-64 -39t-88.5 -53.5t-125.5 -77z" />
    <glyph glyph-name="ocircumflex" unicode="&#xf4;" horiz-adv-x="1092" 
d="M540 -27q-115 0 -206 36t-154.5 103t-97.5 161t-34 210q0 107 33.5 200.5t98 163.5t158 110t214.5 40q129 0 222 -42.5t153 -113t88.5 -163t28.5 -191.5q0 -106 -33 -199.5t-97.5 -163.5t-158.5 -110.5t-215 -40.5zM553 74q64 0 104 38t62 96t29.5 127.5t7.5 132.5
q0 78 -10.5 154.5t-35.5 137.5t-66.5 99t-104.5 38t-102.5 -37.5t-61.5 -95.5t-30 -127t-8 -132q0 -70 8.5 -146t32.5 -139.5t66 -104.5t109 -41zM207 1106l194 289q26 40 61 60t80 20t80.5 -20t61.5 -60l195 -288l-52 -35l-284 232l-285 -234z" />
    <glyph glyph-name="uni1ED1" unicode="&#x1ed1;" horiz-adv-x="1092" 
d="M540 -27q-115 0 -206 36t-154.5 103t-97.5 161t-34 210q0 107 33.5 200.5t98 163.5t158 110t214.5 40q129 0 222 -42.5t153 -113t88.5 -163t28.5 -191.5q0 -106 -33 -199.5t-97.5 -163.5t-158.5 -110.5t-215 -40.5zM553 74q64 0 104 38t62 96t29.5 127.5t7.5 132.5
q0 78 -10.5 154.5t-35.5 137.5t-66.5 99t-104.5 38t-102.5 -37.5t-61.5 -95.5t-30 -127t-8 -132q0 -70 8.5 -146t32.5 -139.5t66 -104.5t109 -41zM794 1357l88 231q11 29 24 48.5t29.5 31t36.5 16.5t45 5q21 0 39 -6t31.5 -18t21.5 -29.5t8 -40.5t-14.5 -49t-50.5 -55
l-206 -168zM207 1106l194 289q26 40 61 60t80 20t80.5 -20t61.5 -60l195 -288l-52 -35l-284 232l-285 -234z" />
    <glyph glyph-name="uni1ED3" unicode="&#x1ed3;" horiz-adv-x="1092" 
d="M540 -27q-115 0 -206 36t-154.5 103t-97.5 161t-34 210q0 107 33.5 200.5t98 163.5t158 110t214.5 40q129 0 222 -42.5t153 -113t88.5 -163t28.5 -191.5q0 -106 -33 -199.5t-97.5 -163.5t-158.5 -110.5t-215 -40.5zM553 74q64 0 104 38t62 96t29.5 127.5t7.5 132.5
q0 78 -10.5 154.5t-35.5 137.5t-66.5 99t-104.5 38t-102.5 -37.5t-61.5 -95.5t-30 -127t-8 -132q0 -70 8.5 -146t32.5 -139.5t66 -104.5t109 -41zM239 1323l-206 168q-36 29 -50.5 55t-14.5 49t8 40.5t21.5 29.5t31.5 18t39 6q25 0 45 -5t36.5 -16.5t29.5 -31t24 -48.5
l88 -231zM207 1106l194 289q26 40 61 60t80 20t80.5 -20t61.5 -60l195 -288l-52 -35l-284 232l-285 -234z" />
    <glyph glyph-name="uni1ED5" unicode="&#x1ed5;" horiz-adv-x="1092" 
d="M540 -27q-115 0 -206 36t-154.5 103t-97.5 161t-34 210q0 107 33.5 200.5t98 163.5t158 110t214.5 40q129 0 222 -42.5t153 -113t88.5 -163t28.5 -191.5q0 -106 -33 -199.5t-97.5 -163.5t-158.5 -110.5t-215 -40.5zM553 74q64 0 104 38t62 96t29.5 127.5t7.5 132.5
q0 78 -10.5 154.5t-35.5 137.5t-66.5 99t-104.5 38t-102.5 -37.5t-61.5 -95.5t-30 -127t-8 -132q0 -70 8.5 -146t32.5 -139.5t66 -104.5t109 -41zM207 1106l194 289q26 40 61 60t80 20t80.5 -20t61.5 -60l195 -288l-52 -35l-284 232l-285 -234zM899 1623q36 0 67.5 -6.5
t55 -20.5t37 -35t13.5 -49q0 -35 -17 -57.5t-37.5 -42.5t-37.5 -42.5t-17 -57.5v-22h-122v27q0 26 6.5 43t16.5 29t21 21.5t21 20t16.5 24t6.5 34.5t-13.5 35.5t-40.5 14.5q-29 0 -46.5 -15t-31.5 -31h-43v96q8 4 21.5 10t32 11t41.5 9t50 4z" />
    <glyph glyph-name="uni1ED7" unicode="&#x1ed7;" horiz-adv-x="1092" 
d="M540 -27q-115 0 -206 36t-154.5 103t-97.5 161t-34 210q0 107 33.5 200.5t98 163.5t158 110t214.5 40q129 0 222 -42.5t153 -113t88.5 -163t28.5 -191.5q0 -106 -33 -199.5t-97.5 -163.5t-158.5 -110.5t-215 -40.5zM553 74q64 0 104 38t62 96t29.5 127.5t7.5 132.5
q0 78 -10.5 154.5t-35.5 137.5t-66.5 99t-104.5 38t-102.5 -37.5t-61.5 -95.5t-30 -127t-8 -132q0 -70 8.5 -146t32.5 -139.5t66 -104.5t109 -41zM207 1106l194 277q26 38 61 57.5t80 19.5t80.5 -19.5t61.5 -57.5l195 -276l-52 -35l-284 217l-285 -219zM181 1475
q10 60 32.5 110.5t54.5 87.5t73 57.5t88 20.5q32 0 70 -11.5t84 -36.5q48 -26 79.5 -36t48.5 -10q55 0 81 28.5t39 79.5h74q-9 -59 -30.5 -109.5t-53 -87.5t-72 -57.5t-87.5 -20.5q-17 0 -32 2t-32.5 7.5t-38.5 15t-49 25.5q-45 25 -78.5 36t-51.5 11q-56 0 -84 -30t-41 -82
h-74z" />
    <glyph glyph-name="otilde" unicode="&#xf5;" horiz-adv-x="1092" 
d="M540 -27q-115 0 -206 36t-154.5 103t-97.5 161t-34 210q0 107 33.5 200.5t98 163.5t158 110t214.5 40q129 0 222 -42.5t153 -113t88.5 -163t28.5 -191.5q0 -106 -33 -199.5t-97.5 -163.5t-158.5 -110.5t-215 -40.5zM553 74q64 0 104 38t62 96t29.5 127.5t7.5 132.5
q0 78 -10.5 154.5t-35.5 137.5t-66.5 99t-104.5 38t-102.5 -37.5t-61.5 -95.5t-30 -127t-8 -132q0 -70 8.5 -146t32.5 -139.5t66 -104.5t109 -41zM180 1127q10 60 32.5 110.5t54.5 87.5t73 57.5t88 20.5q32 0 70 -11.5t84 -36.5q48 -26 79.5 -36t48.5 -10q55 0 81 28.5
t39 79.5h74q-9 -59 -30.5 -109.5t-53 -87.5t-72 -57.5t-87.5 -20.5q-17 0 -32 2t-32.5 7.5t-38.5 15t-49 25.5q-45 25 -78.5 36t-51.5 11q-56 0 -84 -30t-41 -82h-74z" />
    <glyph glyph-name="odieresis" unicode="&#xf6;" horiz-adv-x="1092" 
d="M540 -27q-115 0 -206 36t-154.5 103t-97.5 161t-34 210q0 107 33.5 200.5t98 163.5t158 110t214.5 40q129 0 222 -42.5t153 -113t88.5 -163t28.5 -191.5q0 -106 -33 -199.5t-97.5 -163.5t-158.5 -110.5t-215 -40.5zM553 74q64 0 104 38t62 96t29.5 127.5t7.5 132.5
q0 78 -10.5 154.5t-35.5 137.5t-66.5 99t-104.5 38t-102.5 -37.5t-61.5 -95.5t-30 -127t-8 -132q0 -70 8.5 -146t32.5 -139.5t66 -104.5t109 -41zM768 1122q-28 0 -52 10.5t-42 28.5t-28.5 42.5t-10.5 52.5t10.5 52.5t28.5 42.5t42 28.5t52 10.5t53 -10.5t44 -28.5
t29.5 -42.5t10.5 -52.5t-10.5 -52.5t-29.5 -42.5t-44 -28.5t-53 -10.5zM320 1122q-28 0 -52 10.5t-42 28.5t-28.5 42.5t-10.5 52.5t10.5 52.5t28.5 42.5t42 28.5t52 10.5t53 -10.5t44 -28.5t29.5 -42.5t10.5 -52.5t-10.5 -52.5t-29.5 -42.5t-44 -28.5t-53 -10.5z" />
    <glyph glyph-name="omacron" unicode="&#x14d;" horiz-adv-x="1092" 
d="M540 -27q-115 0 -206 36t-154.5 103t-97.5 161t-34 210q0 107 33.5 200.5t98 163.5t158 110t214.5 40q129 0 222 -42.5t153 -113t88.5 -163t28.5 -191.5q0 -106 -33 -199.5t-97.5 -163.5t-158.5 -110.5t-215 -40.5zM553 74q64 0 104 38t62 96t29.5 127.5t7.5 132.5
q0 78 -10.5 154.5t-35.5 137.5t-66.5 99t-104.5 38t-102.5 -37.5t-61.5 -95.5t-30 -127t-8 -132q0 -70 8.5 -146t32.5 -139.5t66 -104.5t109 -41zM227 1316h644v-148h-644v148z" />
    <glyph glyph-name="obreve" unicode="&#x14f;" horiz-adv-x="1092" 
d="M540 -27q-115 0 -206 36t-154.5 103t-97.5 161t-34 210q0 107 33.5 200.5t98 163.5t158 110t214.5 40q129 0 222 -42.5t153 -113t88.5 -163t28.5 -191.5q0 -106 -33 -199.5t-97.5 -163.5t-158.5 -110.5t-215 -40.5zM553 74q64 0 104 38t62 96t29.5 127.5t7.5 132.5
q0 78 -10.5 154.5t-35.5 137.5t-66.5 99t-104.5 38t-102.5 -37.5t-61.5 -95.5t-30 -127t-8 -132q0 -70 8.5 -146t32.5 -139.5t66 -104.5t109 -41zM548 1100q-55 0 -106.5 16.5t-94.5 56t-73.5 104.5t-43.5 163l86 17q16 -55 34 -91.5t44.5 -59t63.5 -32t90 -9.5q51 0 87.5 9
t63.5 31t46 59t36 93l86 -17q-15 -98 -45 -163.5t-72 -104.5t-93.5 -55.5t-108.5 -16.5z" />
    <glyph glyph-name="ohungarumlaut" unicode="&#x151;" horiz-adv-x="1092" 
d="M540 -27q-115 0 -206 36t-154.5 103t-97.5 161t-34 210q0 107 33.5 200.5t98 163.5t158 110t214.5 40q129 0 222 -42.5t153 -113t88.5 -163t28.5 -191.5q0 -106 -33 -199.5t-97.5 -163.5t-158.5 -110.5t-215 -40.5zM553 74q64 0 104 38t62 96t29.5 127.5t7.5 132.5
q0 78 -10.5 154.5t-35.5 137.5t-66.5 99t-104.5 38t-102.5 -37.5t-61.5 -95.5t-30 -127t-8 -132q0 -70 8.5 -146t32.5 -139.5t66 -104.5t109 -41zM322 1112l155 298q17 29 32.5 47t31.5 28t33 13.5t37 3.5q21 0 38 -7.5t29.5 -20t19 -29t6.5 -34.5q0 -21 -4 -36.5t-12.5 -29
t-22.5 -27.5t-34 -31l-256 -213zM685 1112l155 298q17 29 32.5 47t31.5 28t33 13.5t37 3.5q42 0 67.5 -27t25.5 -64q0 -21 -4 -36.5t-12.5 -29t-22.5 -27.5t-34 -31l-256 -213z" />
    <glyph glyph-name="uni1ECF" unicode="&#x1ecf;" horiz-adv-x="1092" 
d="M540 -27q-115 0 -206 36t-154.5 103t-97.5 161t-34 210q0 107 33.5 200.5t98 163.5t158 110t214.5 40q129 0 222 -42.5t153 -113t88.5 -163t28.5 -191.5q0 -106 -33 -199.5t-97.5 -163.5t-158.5 -110.5t-215 -40.5zM553 74q64 0 104 38t62 96t29.5 127.5t7.5 132.5
q0 78 -10.5 154.5t-35.5 137.5t-66.5 99t-104.5 38t-102.5 -37.5t-61.5 -95.5t-30 -127t-8 -132q0 -70 8.5 -146t32.5 -139.5t66 -104.5t109 -41zM543 1553q49 0 92 -9.5t74.5 -29.5t49.5 -50t18 -71q0 -34 -11.5 -59t-28.5 -46t-36.5 -40t-36.5 -39.5t-28.5 -46
t-11.5 -58.5v-31h-151v39q0 37 10 63.5t25 47t32 38t32 35.5t25 40t10 52q0 31 -21 51.5t-66 20.5q-23 0 -41.5 -6t-33.5 -15t-27.5 -21t-24.5 -24h-47v109q12 6 30.5 14.5t43 16.5t55.5 13.5t68 5.5z" />
    <glyph glyph-name="uni1ECD" unicode="&#x1ecd;" horiz-adv-x="1092" 
d="M540 -27q-115 0 -206 36t-154.5 103t-97.5 161t-34 210q0 107 33.5 200.5t98 163.5t158 110t214.5 40q129 0 222 -42.5t153 -113t88.5 -163t28.5 -191.5q0 -106 -33 -199.5t-97.5 -163.5t-158.5 -110.5t-215 -40.5zM553 74q64 0 104 38t62 96t29.5 127.5t7.5 132.5
q0 78 -10.5 154.5t-35.5 137.5t-66.5 99t-104.5 38t-102.5 -37.5t-61.5 -95.5t-30 -127t-8 -132q0 -70 8.5 -146t32.5 -139.5t66 -104.5t109 -41zM538 -449q-35 0 -65 12.5t-52 34t-35 51t-13 63.5q0 33 13 62t35 50.5t52 34t65 12.5t65.5 -12.5t53.5 -34t36 -50.5t13 -62
q0 -34 -13 -63.5t-36 -51t-53.5 -34t-65.5 -12.5z" />
    <glyph glyph-name="uni1ED9" unicode="&#x1ed9;" horiz-adv-x="1092" 
d="M540 -27q-115 0 -206 36t-154.5 103t-97.5 161t-34 210q0 107 33.5 200.5t98 163.5t158 110t214.5 40q129 0 222 -42.5t153 -113t88.5 -163t28.5 -191.5q0 -106 -33 -199.5t-97.5 -163.5t-158.5 -110.5t-215 -40.5zM553 74q64 0 104 38t62 96t29.5 127.5t7.5 132.5
q0 78 -10.5 154.5t-35.5 137.5t-66.5 99t-104.5 38t-102.5 -37.5t-61.5 -95.5t-30 -127t-8 -132q0 -70 8.5 -146t32.5 -139.5t66 -104.5t109 -41zM207 1106l194 289q26 40 61 60t80 20t80.5 -20t61.5 -60l195 -288l-52 -35l-284 232l-285 -234zM538 -449q-35 0 -65 12.5
t-52 34t-35 51t-13 63.5q0 33 13 62t35 50.5t52 34t65 12.5t65.5 -12.5t53.5 -34t36 -50.5t13 -62q0 -34 -13 -63.5t-36 -51t-53.5 -34t-65.5 -12.5z" />
    <glyph glyph-name="ohorn" unicode="&#x1a1;" horiz-adv-x="1375" 
d="M1125 969h197q19 -34 27 -67.5t8 -61.5q0 -68 -29 -114.5t-74.5 -77t-102.5 -47t-113 -24.5q3 -22 4.5 -44.5t1.5 -45.5q0 -106 -33 -199.5t-97.5 -163.5t-158.5 -110.5t-215 -40.5q-115 0 -206 36t-154.5 103t-97.5 161t-34 210q0 107 33.5 200.5t98 163.5t158 110
t214.5 40q98 0 175 -25t134.5 -68.5t96 -103t59.5 -128.5q27 7 51.5 20t42.5 33t29 48.5t11 67.5q0 24 -7 47t-19 47v34zM553 74q64 0 104 38t62 96t29.5 127.5t7.5 132.5q0 78 -10.5 154.5t-35.5 137.5t-66.5 99t-104.5 38t-102.5 -37.5t-61.5 -95.5t-30 -127t-8 -132
q0 -70 8.5 -146t32.5 -139.5t66 -104.5t109 -41z" />
    <glyph glyph-name="uni1EDB" unicode="&#x1edb;" horiz-adv-x="1375" 
d="M1125 969h197q19 -34 27 -67.5t8 -61.5q0 -68 -29 -114.5t-74.5 -77t-102.5 -47t-113 -24.5q3 -22 4.5 -44.5t1.5 -45.5q0 -106 -33 -199.5t-97.5 -163.5t-158.5 -110.5t-215 -40.5q-115 0 -206 36t-154.5 103t-97.5 161t-34 210q0 107 33.5 200.5t98 163.5t158 110
t214.5 40q98 0 175 -25t134.5 -68.5t96 -103t59.5 -128.5q27 7 51.5 20t42.5 33t29 48.5t11 67.5q0 24 -7 47t-19 47v34zM553 74q64 0 104 38t62 96t29.5 127.5t7.5 132.5q0 78 -10.5 154.5t-35.5 137.5t-66.5 99t-104.5 38t-102.5 -37.5t-61.5 -95.5t-30 -127t-8 -132
q0 -70 8.5 -146t32.5 -139.5t66 -104.5t109 -41zM333 1112q44 64 74.5 108.5t53 77t39.5 56.5t35 48q20 27 38.5 43.5t37 25.5t38 12t42.5 3q24 0 43.5 -7t33.5 -19t21.5 -27.5t7.5 -32.5q0 -19 -5 -35t-15 -30.5t-25.5 -28.5t-36.5 -29q-24 -17 -51 -33.5t-64 -39
t-88.5 -53.5t-125.5 -77z" />
    <glyph glyph-name="uni1EDD" unicode="&#x1edd;" horiz-adv-x="1375" 
d="M1125 969h197q19 -34 27 -67.5t8 -61.5q0 -68 -29 -114.5t-74.5 -77t-102.5 -47t-113 -24.5q3 -22 4.5 -44.5t1.5 -45.5q0 -106 -33 -199.5t-97.5 -163.5t-158.5 -110.5t-215 -40.5q-115 0 -206 36t-154.5 103t-97.5 161t-34 210q0 107 33.5 200.5t98 163.5t158 110
t214.5 40q98 0 175 -25t134.5 -68.5t96 -103t59.5 -128.5q27 7 51.5 20t42.5 33t29 48.5t11 67.5q0 24 -7 47t-19 47v34zM553 74q64 0 104 38t62 96t29.5 127.5t7.5 132.5q0 78 -10.5 154.5t-35.5 137.5t-66.5 99t-104.5 38t-102.5 -37.5t-61.5 -95.5t-30 -127t-8 -132
q0 -70 8.5 -146t32.5 -139.5t66 -104.5t109 -41zM693 1074q-74 46 -125.5 77t-88.5 53.5t-64 39t-51 33.5q-44 31 -63 58t-19 65q0 17 7.5 32.5t21.5 27.5t33.5 19t43.5 7q22 0 41.5 -3t38.5 -12t37.5 -25.5t38.5 -43.5q18 -24 35 -48t39.5 -56.5t53 -77t74.5 -108.5z" />
    </font>
</defs>
</svg>
